<?xml version="1.0" encoding="utf-8"?>
<!-- Generator: Adobe Illustrator 18.0.0, SVG Export Plug-In . SVG Version: 6.00 Build 0)  -->
<!DOCTYPE svg PUBLIC "-//W3C//DTD SVG 1.1//EN" "http://www.w3.org/Graphics/SVG/1.1/DTD/svg11.dtd">
<svg version="1.1" id="ingress" xmlns="http://www.w3.org/2000/svg" xmlns:xlink="http://www.w3.org/1999/xlink" x="0px" y="0px"
	 viewBox="0 0 2048 2048" enable-background="new 0 0 2048 2048" xml:space="preserve">
<g>
	<polygon fill="#231F20" points="1024,2039.5 144.6,1531.8 144.6,516.3 1024,8.5 1903.4,516.3 1903.4,1531.7 	"/>
</g>
<g>
	<g>
		<path fill="#48863D" d="M1024,200.5L310.8,612.3v823.5l713.2,411.8l713.2-411.8V612.3L1024,200.5z M1024,306.7l575.2,332.1
			l-340.4,193.1L1024,425.4L786.8,836.2L448.8,638.8L1024,306.7z M756.9,1231.3l267.1-154.2l267.1,154.2H756.9z M978,689v308.4
			l-267.1,154.2L978,689z M1070,997.4V689l267.1,462.6L1070,997.4z M402.8,1382.6V718.5l337.9,197.4l-235.2,407.4H978v391.4
			L402.8,1382.6z M1645.2,1382.6L1070,1714.7v-391.4h472.4l-237.7-411.7l340.4-193.1V1382.6z"/>
	</g>
</g>
</svg>
