<?xml version="1.0" encoding="UTF-8" standalone="no"?>
<svg
   xmlns:dc="http://purl.org/dc/elements/1.1/"
   xmlns:cc="http://creativecommons.org/ns#"
   xmlns:rdf="http://www.w3.org/1999/02/22-rdf-syntax-ns#"
   xmlns:svg="http://www.w3.org/2000/svg"
   xmlns="http://www.w3.org/2000/svg"
   version="1.1"
   id="ingress"
   x="0px"
   y="0px"
   width="2048"
   height="2048"
   viewBox="0 0 2048 2048"
   overflow="inherit"
   xml:space="preserve"
   inkscape:version="0.48.2 r9819"
   sodipodi:docname="ingress.svg"
   style="overflow:inherit"><title
     id="title3004">ingress logo</title><sodipodi:namedview
     pagecolor="#ffffff"
     bordercolor="#666666"
     borderopacity="1"
     objecttolerance="10"
     gridtolerance="10"
     guidetolerance="10"
     inkscape:pageopacity="0"
     inkscape:pageshadow="2"
     inkscape:window-width="1600"
     inkscape:window-height="847"
     id="namedview21"
     showgrid="false"
     inkscape:zoom="0.23046875"
     inkscape:cx="527.94451"
     inkscape:cy="1009.3498"
     inkscape:window-x="-8"
     inkscape:window-y="-8"
     inkscape:window-maximized="1"
     inkscape:current-layer="ingress" /><defs
     id="defs23" /><switch
     id="switch5"><g
       i:extraneous="self"
       id="g9"><g
         id="g11"><polygon
           points="144.555,1531.75 144.555,516.252 1024,8.504 1903.445,516.252 1903.445,1531.746 1024,2039.496 "
           id="polygon13"
           style="fill:#09aeed" /><polygon
           points="455.428,433.318 455.428,433.318 1125.801,965.229 1196.789,1843.188 1819.832,1483.473 1819.832,564.525 1024,105.053 "
           id="polygon15"
           style="fill:#75d2f5" /><path
           d="M 1542.449,724.676 H 505.555 l 518.447,897.977 518.447,-897.977 z M 1070,1358.98 V 1050.558 L 1337.102,896.347 1070,1358.98 z M 1291.102,816.676 1024.004,970.887 756.902,816.676 h 534.2 z m -580.2,79.674 267.1,154.209 v 308.422 L 710.902,896.35 z"
           id="path17"
           inkscape:connector-curvature="0"
           style="fill:#ffffff" /><path
           d="m 1024.002,200.504 -713.17,411.75 v 823.496 l 713.17,411.75 713.17,-411.75 V 612.254 l -713.17,-411.75 z m 379.584,989.535 -46,79.676 241.586,139.48 -575.17,332.074 -575.17,-332.074 241.586,-139.48 -46,-79.676 -241.586,139.48 V 665.369 L 978.002,333.295 V 612.254 H 1070 V 333.293 l 575.172,332.076 v 664.15 l -241.586,-139.48 z"
           id="path19"
           inkscape:connector-curvature="0"
           style="fill:#ffffff" /></g></g></switch><metadata
     id="metadata3002"><rdf:RDF><cc:Work
         rdf:about=""><dc:title>ingress logo</dc:title><dc:creator><cc:Agent><dc:title>cr0ybot</dc:title></cc:Agent></dc:creator><dc:source>https://github.com/cr0ybot/ingress-logos</dc:source><dc:contributor><cc:Agent><dc:title>Shizhao</dc:title></cc:Agent></dc:contributor><dc:rights><cc:Agent><dc:title></dc:title></cc:Agent></dc:rights><cc:license
           rdf:resource="http://creativecommons.org/licenses/by-nc-sa/3.0/" /></cc:Work><cc:License
         rdf:about="http://creativecommons.org/licenses/by-nc-sa/3.0/"><cc:permits
           rdf:resource="http://creativecommons.org/ns#Reproduction" /><cc:permits
           rdf:resource="http://creativecommons.org/ns#Distribution" /><cc:requires
           rdf:resource="http://creativecommons.org/ns#Notice" /><cc:requires
           rdf:resource="http://creativecommons.org/ns#Attribution" /><cc:prohibits
           rdf:resource="http://creativecommons.org/ns#CommercialUse" /><cc:permits
           rdf:resource="http://creativecommons.org/ns#DerivativeWorks" /><cc:requires
           rdf:resource="http://creativecommons.org/ns#ShareAlike" /></cc:License></rdf:RDF></metadata></svg>