<?xml version="1.0" encoding="UTF-8"?>
<!DOCTYPE svg PUBLIC "-//W3C//DTD SVG 1.1//EN" "http://www.w3.org/Graphics/SVG/1.1/DTD/svg11.dtd">
<svg version="1.1" xmlns="http://www.w3.org/2000/svg" xmlns:xlink="http://www.w3.org/1999/xlink" x="0" y="0" width="720" height="960" viewBox="0, 0, 720, 960">
  <g id="Layer_1">
    <g>
      <g>
        <path d="M412.026,249.433 C385.229,240.586 356.415,231.77 327.268,227.212 L326,227.014 L326,22.836 L455.259,128.5 L433.785,190.826 L420.857,182.207 L427.367,144.148 L364,96.504 L364.002,206.708 C379.369,212.228 397.61,221.211 418.24,233.421 L419.322,234.061 L413.396,249.884 L412.026,249.433 z" fill="#000000"/>
        <path d="M327.5,26 L453.5,129 L433,188.5 L422.5,181.5 L429,143.5 L362.5,93.5 L362.502,207.767 C380.375,214.062 400.108,224.434 417.477,234.713 L412.498,248.009 C387.749,239.838 358,230.5 327.5,225.73 L327.5,26 M324.5,19.673 L324.5,26 L324.5,225.73 L324.5,228.297 L327.037,228.693 C356.077,233.235 384.821,242.029 411.557,250.857 L414.295,251.761 L415.307,249.06 L420.286,235.764 L421.168,233.41 L419.005,232.13 C398.735,220.133 380.748,211.234 365.502,205.655 L365.5,99.509 L425.734,144.798 L419.543,180.994 L419.215,182.915 L420.836,183.996 L431.336,190.996 L434.57,193.152 L435.836,189.477 L456.336,129.977 L457.018,128 L455.399,126.677 L329.399,23.677 L324.5,19.673 L324.5,19.673 z" fill="#FFFFFF"/>
      </g>
      <g>
        <path d="M547.259,319.694 C521.27,299.955 465.573,263.621 465.014,263.256 L463.781,262.452 L513.142,183.578 L628.461,279.906 L626.569,280.972 C626.19,281.186 588.215,302.542 548.769,319.872 L547.961,320.226 L547.259,319.694 z M497.058,253.353 C503.445,258.238 534.832,282.248 550.357,294.044 C570.516,284.754 587.64,276.37 593.416,273.522 L523.298,216.181 L497.058,253.353 z" fill="#000000"/>
        <path d="M513.5,185.833 L625.833,279.666 C625.833,279.666 588,300.999 548.166,318.499 C521.833,298.499 465.833,261.999 465.833,261.999 L513.5,185.833 M550.166,295.783 C575.609,284.075 596.166,273.833 596.166,273.833 L523,214 L495,253.667 C495,253.667 533.05,282.783 550.166,295.783 M512.782,181.325 L510.957,184.242 L463.29,260.409 L461.728,262.906 L464.196,264.514 C464.755,264.879 520.407,301.184 546.352,320.89 L547.757,321.957 L549.373,321.247 C588.887,303.888 626.927,282.495 627.307,282.281 L631.088,280.149 L627.756,277.366 L515.423,183.533 L512.782,181.325 L512.782,181.325 z M499.116,253.039 L523.594,218.361 L590.659,273.206 C583.596,276.674 568.304,284.11 550.547,292.305 C535.598,280.941 507.334,259.325 499.116,253.039 L499.116,253.039 z" fill="#FFFFFF"/>
      </g>
      <g>
        <path d="M461.084,446.792 L462.377,446.154 C485.862,434.569 497.981,426.563 514.245,411.885 L514.941,411.257 L594.163,443.255 L518.076,574.796 L461.084,446.792 z M528.602,522.895 L565.864,459.793 L527.412,442.09 C520.233,450.504 510.789,458.427 500.597,464.586 L528.602,522.895 z" fill="#000000"/>
        <path d="M515.25,413 L592,444 L518.25,571.5 L463.041,447.5 C487.875,435.25 499.875,426.875 515.25,413 M528.465,526.075 L568,459.125 L527,440.25 C519.625,449.125 509.5,457.625 498.65,464 L528.465,526.075 M514.634,409.516 L513.24,410.773 C498.966,423.654 487.615,432.033 461.714,444.81 L459.127,446.086 L460.301,448.721 L515.51,572.721 L517.902,578.094 L520.847,573.002 L594.597,445.502 L596.326,442.512 L593.123,441.218 L516.373,410.218 L514.634,409.516 L514.634,409.516 z M502.535,465.158 C512.068,459.239 520.905,451.816 527.808,443.925 L563.727,460.461 L528.737,519.714 L502.535,465.158 L502.535,465.158 z" fill="#FFFFFF"/>
      </g>
      <g>
        <path d="M337,481.367 L338.379,481.255 C369.439,478.735 392.728,474.123 416.252,465.836 L417.768,465.301 L427.752,501.461 L426.76,502.044 C407.302,513.468 384.021,515.755 378,516.167 L378,811.768 L451.902,693.477 L426.289,578.468 L445.213,568.278 L481.364,704.737 L337,940.573 L337,481.367 z" fill="#000000"/>
        <path d="M416.75,467.25 L426,500.75 C404,513.667 376.5,514.75 376.5,514.75 L376.5,817 L453.5,693.75 L428,579.25 L444.25,570.5 L479.75,704.5 L338.5,935.25 L338.5,482.75 C370.334,480.167 393.334,475.5 416.75,467.25 M418.786,463.352 L415.753,464.42 C392.357,472.663 369.182,477.25 338.257,479.759 L335.5,479.983 L335.5,482.75 L335.5,935.25 L335.5,945.897 L341.059,936.816 L482.309,706.066 L482.979,704.971 L482.651,703.731 L447.151,569.731 L446.176,566.055 L442.828,567.858 L426.578,576.608 L424.578,577.685 L425.071,579.902 L450.304,693.203 L379.5,806.536 L379.5,517.556 C387.262,516.903 409.074,514.167 427.519,503.337 L429.505,502.171 L428.892,499.951 L419.642,466.451 L418.786,463.352 L418.786,463.352 z" fill="#FFFFFF"/>
      </g>
      <g>
        <path d="M150.994,388.294 C124.515,382.132 93.283,360.279 92.97,360.06 L89.276,357.458 L93.793,357.334 C94.032,357.328 117.433,356.681 123.245,356.039 C133.738,350.991 141.743,346.355 151,340.994 C159.949,335.811 170.092,329.937 184.812,322.334 C190.333,319.482 195.704,316.572 200.898,313.757 C231.557,297.143 260.515,281.449 313.851,281.449 C317.489,281.449 321.259,281.523 325.058,281.668 C389.548,284.13 412.361,295.804 443.936,311.961 C446.713,313.382 449.56,314.839 452.51,316.327 C475.565,327.96 499.206,341.322 520.908,354.984 C522.2,354.945 524.505,354.925 527.777,354.925 C534.082,354.925 541.935,354.999 542.013,354.999 L545.11,355.028 L543.168,357.44 C542.737,357.975 532.357,370.667 510.611,380.369 L510.064,380.613 L509.499,380.413 C500.433,377.204 492.52,373.511 481.569,368.399 C469.675,362.848 454.875,355.94 431.931,346.554 C389.565,329.222 353.251,326.522 323.315,326.166 C321.228,326.141 319.015,326.122 316.684,326.122 C292.539,326.122 256.214,328.269 219.679,346.836 C201.637,356.005 188.797,364.745 177.468,372.456 C168.381,378.642 160.532,383.984 151.994,388.178 L151.514,388.414 L150.994,388.294 z" fill="#000000"/>
        <path d="M313.85,282.95 C317.447,282.95 321.168,283.021 325,283.167 C394.833,285.834 415.5,299.334 451.834,317.667 C486.305,335.06 512.833,351.667 520.5,356.5 C521.777,356.444 524.592,356.426 527.777,356.426 C534.147,356.426 542,356.5 542,356.5 C542,356.5 531.666,369.333 510,379 C491.167,372.333 476.5,363.167 432.5,345.167 C388.5,327.167 351.333,325 323.333,324.667 C321.24,324.642 319.021,324.623 316.684,324.623 C292.589,324.623 256.07,326.661 219,345.5 C186.374,362.081 170.333,377.5 151.333,386.833 C124.833,380.666 93.833,358.833 93.833,358.833 C93.833,358.833 118.166,358.166 123.666,357.5 C144.499,347.5 155.429,339.198 185.499,323.667 C223.621,303.977 251.903,282.95 313.85,282.95 M313.85,279.95 C260.134,279.95 231.014,295.731 200.183,312.438 C194.995,315.25 189.631,318.156 184.123,321.001 C169.371,328.621 159.211,334.505 150.248,339.696 C141.086,345.002 133.155,349.595 122.828,354.575 C116.705,355.2 93.988,355.828 93.752,355.835 L84.718,356.083 L92.107,361.287 C93.392,362.192 123.893,383.529 150.654,389.756 L151.696,389.999 L152.656,389.527 C161.289,385.286 169.178,379.916 178.312,373.698 C189.604,366.012 202.401,357.301 220.359,348.175 C256.607,329.754 292.693,327.624 316.684,327.624 C318.679,327.624 320.781,327.638 323.298,327.668 C353.092,328.022 389.231,330.708 431.364,347.944 C454.273,357.316 469.056,364.216 480.934,369.76 C491.923,374.889 499.864,378.594 508.998,381.828 L510.127,382.227 L511.222,381.739 C533.294,371.891 543.896,358.928 544.336,358.381 L548.22,353.558 L542.028,353.499 C541.949,353.499 534.089,353.425 527.777,353.425 C524.808,353.425 522.678,353.441 521.322,353.472 C499.686,339.869 476.145,326.573 453.185,314.988 C450.238,313.501 447.394,312.046 444.619,310.625 C412.872,294.38 389.935,282.644 325.114,280.168 C321.297,280.023 317.507,279.95 313.85,279.95 L313.85,279.95 z" fill="#FFFFFF"/>
      </g>
      <g>
        <path d="M330.745,432.5 C257.888,432.24 207.916,399.579 207.42,399.249 L205.608,398.045 L207.378,396.78 C207.621,396.606 231.922,379.269 252.25,367.534 L253.276,366.942 L254.09,367.802 C254.394,368.123 284.9,399.884 324.237,399.884 C325.136,399.884 326.036,399.868 326.945,399.834 C368.845,398.291 398.777,366.955 399.074,366.639 L399.803,365.864 L456.088,390.821 L454.078,392.358 C453.553,392.759 400.78,432.501 331.402,432.501 L330.745,432.5 z" fill="#000000"/>
        <path d="M400.167,367.667 L453.167,391.167 C453.167,391.167 401.075,431.001 331.402,431.001 C331.184,431.001 330.967,431.001 330.75,431 C257.5,430.738 208.25,398 208.25,398 C208.25,398 232.5,380.667 253,368.833 C253,368.833 283.761,401.384 324.237,401.384 C325.154,401.384 326.073,401.367 327,401.333 C370,399.75 400.167,367.667 400.167,367.667 M399.438,364.062 L397.982,365.61 L397.982,365.61 C397.688,365.922 368.099,396.818 326.889,398.335 C326.01,398.367 325.118,398.384 324.237,398.384 C285.502,398.384 255.479,367.089 255.18,366.773 L253.553,365.051 L251.5,366.236 C231.11,378.006 206.749,395.386 206.505,395.56 L202.965,398.09 L206.589,400.499 C207.103,400.84 219.426,408.962 240.959,417.204 C260.781,424.791 292.447,433.864 330.739,434 L331.402,434.001 C367.933,434.001 399.562,423.022 419.662,413.812 C441.449,403.828 454.446,393.965 454.989,393.55 L459.01,390.476 L454.383,388.424 L401.383,364.924 L399.438,364.062 L399.438,364.062 z" fill="#FFFFFF"/>
      </g>
    </g>
  </g>
</svg>
