<?xml version="1.0" encoding="UTF-8" standalone="no"?>
<!-- Generator: Adobe Illustrator 15.1.0, SVG Export Plug-In . SVG Version: 6.00 Build 0)  -->

<svg
   xmlns:i="http://ns.adobe.com/AdobeIllustrator/10.0/"
   xmlns:dc="http://purl.org/dc/elements/1.1/"
   xmlns:cc="http://creativecommons.org/ns#"
   xmlns:rdf="http://www.w3.org/1999/02/22-rdf-syntax-ns#"
   xmlns:svg="http://www.w3.org/2000/svg"
   xmlns="http://www.w3.org/2000/svg"
   xmlns:sodipodi="http://sodipodi.sourceforge.net/DTD/sodipodi-0.dtd"
   xmlns:inkscape="http://www.inkscape.org/namespaces/inkscape"
   version="1.1"
   id="enlightened"
   x="0px"
   y="0px"
   width="720px"
   height="960px"
   viewBox="0 0 720 960"
   overflow="inherit"
   xml:space="preserve"
   inkscape:version="0.48.2 r9819"
   sodipodi:docname="enlightened_alt.svg"><defs
     id="defs27" /><sodipodi:namedview
     pagecolor="#ffffff"
     bordercolor="#666666"
     borderopacity="1"
     objecttolerance="10"
     gridtolerance="10"
     guidetolerance="10"
     inkscape:pageopacity="0"
     inkscape:pageshadow="2"
     inkscape:window-width="1600"
     inkscape:window-height="847"
     id="namedview25"
     showgrid="false"
     inkscape:zoom="0.69532167"
     inkscape:cx="-53.47043"
     inkscape:cy="494.88437"
     inkscape:window-x="-8"
     inkscape:window-y="-8"
     inkscape:window-maximized="1"
     inkscape:current-layer="enlightened" /><switch
     id="switch5"><g
       i:extraneous="self"
       id="g9"><g
         id="g11"><path
           fill="#02BF02"
           d="M334.093,495.086v440.951c0,0,18.092,2.063,31.129-18.723c18.79-29.96,43.76-82.378,71.22-124.815     s43.685-57.416,47.43-111.087c3.744-53.67-45.005-85.359-45.005-85.359s6.11,11.674,10.908,37.344     c9.896,52.944-17.562,101.438-38.902,120.718c-19.854,17.938-33.094,34.58-33.094,34.58V532.883c0,0,53.459-8.118,54.919-56.167     C432.697,476.715,400.727,500.143,334.093,495.086z"
           id="path13" /><path
           fill="#02BF02"
           d="M601.827,461.8c0,0-29.957-29.402-64.907-46.045c-14.352-6.834-25.519-0.555-25.519-0.555l-44.381,48.265     c-7.767,11.095,2.773,29.958,16.643,46.6c11,13.2,23.3,24.409,27.738,45.491c2.533,12.031,2.219,38.833,2.219,38.833     s13.314-6.657,22.746-28.849c5.499-12.939,23.854-36.337,31.066-44.381c11.408-12.725,26.629-33.285,34.395-41.607     C609.594,471.23,601.827,461.8,601.827,461.8z M557.446,483.297c-3.422,3.232-17.197,20.11-17.197,20.11     s-6.604,8.701-12.204,0.555c-6.104-8.876-18.308-21.081-18.308-21.081s-3.328-3.884-0.555-9.986s18.307-21.081,18.307-21.081     s7.767-3.329,14.424,1.664c6.657,4.993,17.753,14.424,17.753,14.424S564.937,476.224,557.446,483.297z"
           id="path15" /><path
           fill="#02BF02"
           d="M628.179,277.896c-8.482-7.59-40.991-43.27-54.302-53.989c-8.414-6.775-24.075-22.328-33.439-32.815     c-12.082-13.531-27.511-19.433-27.511-19.433s-0.416,21.636-7.489,34.95c-8.309,15.641-12.492,19.316-21.22,34.118     c-11.004,18.661-12.336,38.087-2.882,47.784l61.688,47.254c0,0,17.403,6.079,31.344-1.561c34.673-19,53.832-34.082,53.832-34.082     S643.99,292.042,628.179,277.896z M575.71,281.495c0,0-7.844,7.875-13.609,13.875s-13.967,3.968-13.967,3.968     s-24.689-14.713-28.41-20.289c-3.722-5.575-1.062-9.944-1.062-9.944s6.399-7.556,10.992-17.299     c4.214-8.942,16.004-2.121,16.004-2.121s23.096,15.599,26.994,18.237C581.184,273.695,575.71,281.495,575.71,281.495z"
           id="path17" /><path
           fill="#02BF02"
           d="M225.698,399.666c0,0,36.612,49.374,101.522,49.374c71.009,0,121.492-59.914,121.492-59.914     s-61.03,23.583-112.616,24.964C273.963,415.754,225.698,399.666,225.698,399.666z"
           id="path19" /><path
           fill="#02BF02"
           d="M84.788,359.724c0,0,19.402,38.163,54.922,37.724c44.936-0.555,57.141-31.067,99.303-44.936     c55.163-18.145,109.38-19.61,161.436-0.555c62.134,22.745,63.783,40.989,98.193,40.498c38.834-0.555,44.382-25.519,44.382-25.519     s-11.101-7.16-23.3-8.322c-23.301-2.219-42.718-26.628-68.791-41.053c-23.703-13.112-66.017-40.498-128.705-43.271     c-60.451-2.675-93.756,20.526-118.72,33.286c-24.965,12.76-53.258,39.388-75.448,48.264     C111.602,362.424,84.788,359.724,84.788,359.724z"
           id="path21" /><path
           fill="#02BF02"
           d="M317.789,243.778V24.092c0,0,16.408-1.847,29.402,6.102c23.578,14.424,91.773,71.388,106.515,91.536     c16.644,22.75,16.644,36.892,6.657,47.709c-11.793,12.775-38.279,13.869-38.279,13.869s14.702-16.643,8.877-27.184     c-5.52-9.987-12.905-14.945-28.016-21.358c-26.826-11.387-28.016,1.242-28.016,1.242v74.483c0,0,6.799,8.189,28.848,23.855     c21.08,14.979,11.096,30.79,11.096,30.79s-11.299-15.129-20.526-17.752c-9.438-2.683-19.417-3.605-19.417-3.605H317.789z"
           id="path23" /></g></g></switch><metadata
     id="metadata3006"><rdf:RDF><cc:Work
         rdf:about=""><dc:title></dc:title><cc:license
           rdf:resource="http://creativecommons.org/licenses/by-nc-sa/3.0/" /></cc:Work><cc:License
         rdf:about="http://creativecommons.org/licenses/by-nc-sa/3.0/"><cc:permits
           rdf:resource="http://creativecommons.org/ns#Reproduction" /><cc:permits
           rdf:resource="http://creativecommons.org/ns#Distribution" /><cc:requires
           rdf:resource="http://creativecommons.org/ns#Notice" /><cc:requires
           rdf:resource="http://creativecommons.org/ns#Attribution" /><cc:prohibits
           rdf:resource="http://creativecommons.org/ns#CommercialUse" /><cc:permits
           rdf:resource="http://creativecommons.org/ns#DerivativeWorks" /><cc:requires
           rdf:resource="http://creativecommons.org/ns#ShareAlike" /></cc:License></rdf:RDF></metadata></svg>