<?xml version="1.0" encoding="UTF-8"?>
<!DOCTYPE svg PUBLIC "-//W3C//DTD SVG 1.1//EN" "http://www.w3.org/Graphics/SVG/1.1/DTD/svg11.dtd">
<svg version="1.1" xmlns="http://www.w3.org/2000/svg" xmlns:xlink="http://www.w3.org/1999/xlink" x="0" y="0" width="2048" height="2048" viewBox="0, 0, 2048, 2048">
  <g id="Layer_1">
    <g>
      <path d="M1024,2039.496 L144.555,1531.75 L144.555,516.252 L1024,8.504 L1903.445,516.252 L1903.445,1531.746 z" fill="#000000"/>
      <path d="M1024,105.053 L455.428,433.318 L455.428,433.318 L1125.801,965.229 L1196.789,1843.188 L1819.832,1483.473 L1819.832,564.525 z" fill="#000000"/>
      <path d="M1542.449,724.676 L505.555,724.676 L1024.002,1622.653 L1542.449,724.676 z M1070,1358.98 L1070,1050.558 L1337.102,896.347 L1070,1358.98 z M1291.102,816.676 L1024.004,970.887 L756.902,816.676 L1291.102,816.676 z M710.902,896.35 L978.002,1050.559 L978.002,1358.981 L710.902,896.35 z" fill="#FFFFFF"/>
      <path d="M1024.002,200.504 L310.832,612.254 L310.832,1435.75 L1024.002,1847.5 L1737.172,1435.75 L1737.172,612.254 L1024.002,200.504 z M1403.586,1190.039 L1357.586,1269.715 L1599.172,1409.195 L1024.002,1741.269 L448.832,1409.195 L690.418,1269.715 L644.418,1190.039 L402.832,1329.519 L402.832,665.369 L978.002,333.295 L978.002,612.254 L1070,612.254 L1070,333.293 L1645.172,665.369 L1645.172,1329.519 L1403.586,1190.039 z" fill="#FFFFFF"/>
    </g>
  </g>
</svg>
