<?xml version="1.0" encoding="UTF-8" standalone="no"?>
<!-- Generator: Adobe Illustrator 15.1.0, SVG Export Plug-In . SVG Version: 6.00 Build 0)  -->

<svg
   xmlns:i="http://ns.adobe.com/AdobeIllustrator/10.0/"
   xmlns:dc="http://purl.org/dc/elements/1.1/"
   xmlns:cc="http://creativecommons.org/ns#"
   xmlns:rdf="http://www.w3.org/1999/02/22-rdf-syntax-ns#"
   xmlns:svg="http://www.w3.org/2000/svg"
   xmlns="http://www.w3.org/2000/svg"
   xmlns:sodipodi="http://sodipodi.sourceforge.net/DTD/sodipodi-0.dtd"
   xmlns:inkscape="http://www.inkscape.org/namespaces/inkscape"
   version="1.1"
   id="enlightened_1_"
   x="0px"
   y="0px"
   width="720"
   height="960"
   viewBox="0 0 720 960"
   overflow="inherit"
   xml:space="preserve"
   inkscape:version="0.48.2 r9819"
   sodipodi:docname="enlightened.svg"
   style="overflow:inherit"><defs
     id="defs51" /><sodipodi:namedview
     pagecolor="#ffffff"
     bordercolor="#666666"
     borderopacity="1"
     objecttolerance="10"
     gridtolerance="10"
     guidetolerance="10"
     inkscape:pageopacity="0"
     inkscape:pageshadow="2"
     inkscape:window-width="1600"
     inkscape:window-height="847"
     id="namedview49"
     showgrid="false"
     inkscape:zoom="0.69532167"
     inkscape:cx="296.81"
     inkscape:cy="481.8603"
     inkscape:window-x="-8"
     inkscape:window-y="-8"
     inkscape:window-maximized="1"
     inkscape:current-layer="enlightened_1_" /><switch
     id="switch5"><g
       i:extraneous="self"
       id="g9"><g
         id="g11"><g
           id="g13"><path
             d="M 412.026,249.433 C 385.229,240.586 356.415,231.77 327.268,227.212 L 326,227.014 V 22.836 l 129.259,105.664 -21.474,62.326 -12.928,-8.619 6.51,-38.059 L 364,96.504 l 0.002,110.204 c 15.367,5.52 33.608,14.503 54.238,26.713 l 1.082,0.64 -5.926,15.823 -1.37,-0.451 z"
             id="path15"
             inkscape:connector-curvature="0" /><path
             d="m 327.5,26 126,103 -20.5,59.5 -10.5,-7 6.5,-38 -66.5,-50 0.002,114.267 c 17.873,6.295 37.606,16.667 54.975,26.946 l -4.979,13.296 C 387.749,239.838 358,230.5 327.5,225.73 V 26 m -3,-6.327 V 26 v 199.73 2.567 l 2.537,0.396 c 29.04,4.542 57.784,13.336 84.52,22.164 l 2.738,0.904 1.012,-2.701 4.979,-13.296 0.882,-2.354 -2.163,-1.28 c -20.27,-11.997 -38.257,-20.896 -53.503,-26.475 L 365.5,99.509 l 60.234,45.289 -6.191,36.196 -0.328,1.921 1.621,1.081 10.5,7 3.234,2.156 1.266,-3.675 20.5,-59.5 0.682,-1.977 -1.619,-1.323 -126,-103 -4.899,-4.004 0,0 z"
             id="path17"
             inkscape:connector-curvature="0"
             style="fill:#80f852" /></g><g
           id="g19"><path
             d="M 547.259,319.694 C 521.27,299.955 465.573,263.621 465.014,263.256 l -1.233,-0.804 49.361,-78.874 115.319,96.328 -1.892,1.066 c -0.379,0.214 -38.354,21.57 -77.8,38.9 l -0.808,0.354 -0.702,-0.532 z m -50.201,-66.341 c 6.387,4.885 37.774,28.895 53.299,40.691 20.159,-9.29 37.283,-17.674 43.059,-20.522 l -70.118,-57.341 -26.24,37.172 z"
             id="path21"
             inkscape:connector-curvature="0" /><path
             d="m 513.5,185.833 112.333,93.833 c 0,0 -37.833,21.333 -77.667,38.833 -26.333,-20 -82.333,-56.5 -82.333,-56.5 L 513.5,185.833 m 36.666,109.95 c 25.443,-11.708 46,-21.95 46,-21.95 L 523,214 495,253.667 c 0,0 38.05,29.116 55.166,42.116 m -37.384,-114.458 -1.825,2.917 -47.667,76.167 -1.562,2.497 2.468,1.608 c 0.559,0.365 56.211,36.67 82.156,56.376 l 1.405,1.067 1.616,-0.71 c 39.514,-17.359 77.554,-38.752 77.934,-38.966 l 3.781,-2.132 -3.332,-2.783 -112.333,-93.833 -2.641,-2.208 0,0 z m -13.666,71.714 24.478,-34.678 67.065,54.845 c -7.063,3.468 -22.355,10.904 -40.112,19.099 -14.949,-11.364 -43.213,-32.98 -51.431,-39.266 l 0,0 z"
             id="path23"
             inkscape:connector-curvature="0"
             style="fill:#80f852" /></g><g
           id="g25"><path
             d="m 461.084,446.792 1.293,-0.638 c 23.485,-11.585 35.604,-19.591 51.868,-34.269 l 0.696,-0.628 79.222,31.998 -76.087,131.541 -56.992,-128.004 z m 67.518,76.103 37.262,-63.102 -38.452,-17.703 c -7.179,8.414 -16.623,16.337 -26.815,22.496 l 28.005,58.309 z"
             id="path27"
             inkscape:connector-curvature="0" /><path
             d="M 515.25,413 592,444 518.25,571.5 463.041,447.5 C 487.875,435.25 499.875,426.875 515.25,413 M 528.465,526.075 568,459.125 527,440.25 c -7.375,8.875 -17.5,17.375 -28.35,23.75 l 29.815,62.075 m -13.831,-116.559 -1.394,1.257 c -14.274,12.881 -25.625,21.26 -51.526,34.037 l -2.587,1.276 1.174,2.635 55.209,124 2.392,5.373 2.945,-5.092 73.75,-127.5 1.729,-2.99 -3.203,-1.294 -76.75,-31 -1.739,-0.702 0,0 z m -12.099,55.642 c 9.533,-5.919 18.37,-13.342 25.273,-21.233 l 35.919,16.536 -34.99,59.253 -26.202,-54.556 0,0 z"
             id="path29"
             inkscape:connector-curvature="0"
             style="fill:#80f852" /></g><g
           id="g31"><path
             d="m 337,481.367 1.379,-0.112 c 31.06,-2.52 54.349,-7.132 77.873,-15.419 l 1.516,-0.535 9.984,36.16 -0.992,0.583 C 407.302,513.468 384.021,515.755 378,516.167 V 811.768 L 451.902,693.477 426.289,578.468 445.213,568.278 481.364,704.737 337,940.573 V 481.367 z"
             id="path33"
             inkscape:connector-curvature="0" /><path
             d="m 416.75,467.25 9.25,33.5 c -22,12.917 -49.5,14 -49.5,14 V 817 l 77,-123.25 -25.5,-114.5 16.25,-8.75 35.5,134 -141.25,230.75 v -452.5 c 31.834,-2.583 54.834,-7.25 78.25,-15.5 m 2.036,-3.898 -3.033,1.068 c -23.396,8.243 -46.571,12.83 -77.496,15.339 l -2.757,0.224 v 2.767 452.5 10.647 l 5.559,-9.081 141.25,-230.75 0.67,-1.095 -0.328,-1.24 -35.5,-134 -0.975,-3.676 -3.348,1.803 -16.25,8.75 -2,1.077 0.493,2.217 25.233,113.301 -70.804,113.333 v -288.98 c 7.762,-0.653 29.574,-3.389 48.019,-14.219 l 1.986,-1.166 -0.613,-2.22 -9.25,-33.5 -0.856,-3.099 0,0 z"
             id="path35"
             inkscape:connector-curvature="0"
             style="fill:#80f852" /></g><g
           id="g37"><path
             d="M 150.994,388.294 C 124.515,382.132 93.283,360.279 92.97,360.06 l -3.694,-2.602 4.517,-0.124 c 0.239,-0.006 23.64,-0.653 29.452,-1.295 10.493,-5.048 18.498,-9.684 27.755,-15.045 8.949,-5.183 19.092,-11.057 33.812,-18.66 5.521,-2.852 10.892,-5.762 16.086,-8.577 30.659,-16.614 59.617,-32.308 112.953,-32.308 3.638,0 7.408,0.074 11.207,0.219 64.49,2.462 87.303,14.136 118.878,30.293 2.777,1.421 5.624,2.878 8.574,4.366 23.055,11.633 46.696,24.995 68.398,38.657 1.292,-0.039 3.597,-0.059 6.869,-0.059 6.305,0 14.158,0.074 14.236,0.074 l 3.097,0.029 -1.942,2.412 c -0.431,0.535 -10.811,13.227 -32.557,22.929 l -0.547,0.244 -0.565,-0.2 c -9.066,-3.209 -16.979,-6.902 -27.93,-12.014 -11.894,-5.551 -26.694,-12.459 -49.638,-21.845 -42.366,-17.332 -78.68,-20.032 -108.616,-20.388 -2.087,-0.025 -4.3,-0.044 -6.631,-0.044 -24.145,0 -60.47,2.147 -97.005,20.714 -18.042,9.169 -30.882,17.909 -42.211,25.62 -9.087,6.186 -16.936,11.528 -25.474,15.722 l -0.48,0.236 -0.52,-0.12 z"
             id="path39"
             inkscape:connector-curvature="0" /><path
             d="m 313.85,282.95 c 3.597,0 7.318,0.071 11.15,0.217 69.833,2.667 90.5,16.167 126.834,34.5 34.471,17.393 60.999,34 68.666,38.833 1.277,-0.056 4.092,-0.074 7.277,-0.074 6.37,0 14.223,0.074 14.223,0.074 0,0 -10.334,12.833 -32,22.5 -18.833,-6.667 -33.5,-15.833 -77.5,-33.833 -44,-18 -81.167,-20.167 -109.167,-20.5 -2.093,-0.025 -4.312,-0.044 -6.649,-0.044 -24.095,0 -60.614,2.038 -97.684,20.877 -32.626,16.581 -48.667,32 -67.667,41.333 -26.5,-6.167 -57.5,-28 -57.5,-28 0,0 24.333,-0.667 29.833,-1.333 20.833,-10 31.763,-18.302 61.833,-33.833 38.122,-19.69 66.404,-40.717 128.351,-40.717 m 0,-3 c -53.716,0 -82.836,15.781 -113.667,32.488 -5.188,2.812 -10.552,5.718 -16.06,8.563 -14.752,7.62 -24.912,13.504 -33.875,18.695 -9.162,5.306 -17.093,9.899 -27.42,14.879 -6.123,0.625 -28.84,1.253 -29.076,1.26 l -9.034,0.248 7.389,5.204 c 1.285,0.905 31.786,22.242 58.547,28.469 l 1.042,0.243 0.96,-0.472 c 8.633,-4.241 16.522,-9.611 25.656,-15.829 11.292,-7.686 24.089,-16.397 42.047,-25.523 36.248,-18.421 72.334,-20.551 96.325,-20.551 1.995,0 4.097,0.014 6.614,0.044 29.794,0.354 65.933,3.04 108.066,20.276 22.909,9.372 37.692,16.272 49.57,21.816 10.989,5.129 18.93,8.834 28.064,12.068 l 1.129,0.399 1.095,-0.488 c 22.072,-9.848 32.674,-22.811 33.114,-23.358 l 3.884,-4.823 -6.192,-0.059 c -0.079,0 -7.939,-0.074 -14.251,-0.074 -2.969,0 -5.099,0.016 -6.455,0.047 -21.636,-13.603 -45.177,-26.899 -68.137,-38.484 -2.947,-1.487 -5.791,-2.942 -8.566,-4.363 -31.747,-16.245 -54.684,-27.981 -119.505,-30.457 -3.817,-0.145 -7.607,-0.218 -11.264,-0.218 l 0,0 z"
             id="path41"
             inkscape:connector-curvature="0"
             style="fill:#80f852" /></g><g
           id="g43"><path
             d="M 330.745,432.5 C 257.888,432.24 207.916,399.579 207.42,399.249 l -1.812,-1.204 1.77,-1.265 c 0.243,-0.174 24.544,-17.511 44.872,-29.246 l 1.026,-0.592 0.814,0.86 c 0.304,0.321 30.81,32.082 70.147,32.082 0.899,0 1.799,-0.016 2.708,-0.05 41.9,-1.543 71.832,-32.879 72.129,-33.195 l 0.729,-0.775 56.285,24.957 -2.01,1.537 c -0.525,0.401 -53.298,40.143 -122.676,40.143 l -0.657,-10e-4 z"
             id="path45"
             inkscape:connector-curvature="0" /><path
             d="m 400.167,367.667 53,23.5 c 0,0 -52.092,39.834 -121.765,39.834 -0.218,0 -0.435,0 -0.652,-10e-4 -73.25,-0.262 -122.5,-33 -122.5,-33 0,0 24.25,-17.333 44.75,-29.167 0,0 30.761,32.551 71.237,32.551 0.917,0 1.836,-0.017 2.763,-0.051 43,-1.583 73.167,-33.666 73.167,-33.666 m -0.729,-3.605 -1.456,1.548 0,0 c -0.294,0.312 -29.883,31.208 -71.093,32.725 -0.879,0.032 -1.771,0.049 -2.652,0.049 -38.735,0 -68.758,-31.295 -69.057,-31.611 l -1.627,-1.722 -2.053,1.185 c -20.39,11.77 -44.751,29.15 -44.995,29.324 l -3.54,2.53 3.624,2.409 c 0.514,0.341 12.837,8.463 34.37,16.705 19.822,7.587 51.488,16.66 89.78,16.796 l 0.663,10e-4 c 36.531,0 68.16,-10.979 88.26,-20.189 21.787,-9.984 34.784,-19.847 35.327,-20.262 l 4.021,-3.074 -4.627,-2.052 -53,-23.5 -1.945,-0.862 0,0 z"
             id="path47"
             inkscape:connector-curvature="0"
             style="fill:#80f852" /></g></g></g></switch><metadata
     id="metadata3030"><rdf:RDF><cc:Work
         rdf:about=""><dc:title></dc:title><cc:license
           rdf:resource="http://creativecommons.org/licenses/by-nc-sa/3.0/" /></cc:Work><cc:License
         rdf:about="http://creativecommons.org/licenses/by-nc-sa/3.0/"><cc:permits
           rdf:resource="http://creativecommons.org/ns#Reproduction" /><cc:permits
           rdf:resource="http://creativecommons.org/ns#Distribution" /><cc:requires
           rdf:resource="http://creativecommons.org/ns#Notice" /><cc:requires
           rdf:resource="http://creativecommons.org/ns#Attribution" /><cc:prohibits
           rdf:resource="http://creativecommons.org/ns#CommercialUse" /><cc:permits
           rdf:resource="http://creativecommons.org/ns#DerivativeWorks" /><cc:requires
           rdf:resource="http://creativecommons.org/ns#ShareAlike" /></cc:License></rdf:RDF></metadata></svg>