<?xml version="1.0" encoding="UTF-8" standalone="no"?>
<!-- Created with Inkscape (http://www.inkscape.org/) -->

<svg
   xmlns:dc="http://purl.org/dc/elements/1.1/"
   xmlns:cc="http://creativecommons.org/ns#"
   xmlns:rdf="http://www.w3.org/1999/02/22-rdf-syntax-ns#"
   xmlns:svg="http://www.w3.org/2000/svg"
   xmlns="http://www.w3.org/2000/svg"
   xmlns:sodipodi="http://sodipodi.sourceforge.net/DTD/sodipodi-0.dtd"
   xmlns:inkscape="http://www.inkscape.org/namespaces/inkscape"
   width="362.29675"
   height="399"
   id="svg2"
   version="1.1"
   inkscape:version="0.91+devel r"
   sodipodi:docname="abaddon.svg"
   inkscape:export-filename="/home/ra100/Downloads/sources/ingress-logos/helios/helios.png"
   inkscape:export-xdpi="377.28482"
   inkscape:export-ydpi="377.28482"
   viewBox="0 0 362.29676 399">
  <defs
     id="defs4" />
  <sodipodi:namedview
     id="base"
     pagecolor="#ffffff"
     bordercolor="#666666"
     borderopacity="1.0"
     inkscape:pageopacity="0.0"
     inkscape:pageshadow="2"
     inkscape:zoom="1"
     inkscape:cx="222.52859"
     inkscape:cy="313.16713"
     inkscape:document-units="px"
     inkscape:current-layer="layer1"
     showgrid="false"
     inkscape:window-width="1887"
     inkscape:window-height="1054"
     inkscape:window-x="3840"
     inkscape:window-y="0"
     inkscape:window-maximized="1"
     inkscape:snap-bbox="true"
     inkscape:bbox-paths="true"
     inkscape:bbox-nodes="false"
     inkscape:snap-bbox-edge-midpoints="false"
     inkscape:snap-global="false"
     fit-margin-top="0"
     fit-margin-left="0"
     fit-margin-right="0"
     fit-margin-bottom="0"
     showguides="true"
     inkscape:guide-bbox="true">
    <sodipodi:guide
       position="48.171651,332.78213"
       orientation="0,1"
       id="guide8161" />
    <sodipodi:guide
       position="181,298.5"
       orientation="1,0"
       id="guide8178" />
  </sodipodi:namedview>
  <metadata
     id="metadata7">
    <rdf:RDF>
      <cc:Work
         rdf:about="">
        <dc:format>image/svg+xml</dc:format>
        <dc:type
           rdf:resource="http://purl.org/dc/dcmitype/StillImage" />
        <dc:title></dc:title>
      </cc:Work>
    </rdf:RDF>
  </metadata>
  <g
     inkscape:label="Layer 1"
     inkscape:groupmode="layer"
     id="layer1"
     transform="translate(-65.954559,-332.54202)">
    <path
       id="path8208"
       d="M 20.126953,86.988281 H 342.25391 L 307.61719,326.5918 181.19141,380.07227 54.765625,326.5918 Z"
       style="opacity:1;fill:#05396b;fill-opacity:1;stroke:none;stroke-width:0.359;stroke-linecap:round;stroke-linejoin:round;stroke-miterlimit:4;stroke-dasharray:none;stroke-dashoffset:0;stroke-opacity:1"
       inkscape:connector-curvature="0"
       sodipodi:nodetypes="cccccc"
       transform="translate(65.954559,332.54202)" />
    <path
       style="opacity:1;fill:#ef5a29;fill-opacity:1;stroke:none;stroke-width:0.359;stroke-linecap:round;stroke-linejoin:round;stroke-miterlimit:4;stroke-dasharray:none;stroke-dashoffset:0;stroke-opacity:1"
       d="M 161.25 127.125 L 106 326.5 L 145 326.5 L 154.68555 293.125 L 208.57617 293.125 L 218 326.5 L 257.375 326.5 L 202.375 127.125 L 161.25 127.125 z M 182 199 L 199.25977 260.125 L 164.26172 260.125 L 182 199 z "
       transform="translate(65.954559,332.54202)"
       id="path8210" />
    <path
       style="opacity:1;fill:#ffc426;stroke-width:0.59198815;fill-opacity:1"
       d="M 198.68945 97.722656 C 202.4552 101.21667 209.83029 109.03266 210.5332 118.19336 C 210.80637 121.67116 210.55047 123.27986 208.72461 129.55469 C 207.83291 132.61912 206.3354 136.65757 205.54883 138.63281 L 216.52148 178.4082 L 216.49414 178.41602 C 216.5706 178.70072 216.66067 178.99215 216.7207 179.26758 C 218.28658 186.45112 217.64553 188.44542 215.83203 193.66016 C 213.92704 199.13798 210.53221 204.21428 205.39648 209.26758 C 199.21988 215.34506 198.69806 216.61411 199.07812 224.625 C 199.36041 230.57493 200.34582 235.61437 201.22656 235.60938 C 201.41612 235.60816 202.46732 233.87792 203.56055 231.76367 C 206.29223 226.4808 209.08165 222.97619 212.3457 220.73047 C 213.86333 219.68631 217.33384 216.84808 220.05859 214.42383 C 222.78334 211.99959 225.13004 210.13201 225.27148 210.27344 C 225.27299 210.27495 225.28724 210.45005 225.28906 210.45703 L 225.33203 210.34766 L 254.68945 316.76562 C 256.84416 309.28878 260.23194 305.28405 264.58398 300.43359 C 272.09898 292.04957 274.67116 287.31061 277.15234 277.27344 C 278.05319 273.62907 279.0957 268.84568 279.1582 264.25195 C 279.23087 258.91453 278.17618 253.81114 277.12109 250.70703 C 275.84814 247.00149 273.54337 243.0367 271.37305 239.26758 C 268.66721 235.03833 266.93612 233.93804 266.16211 235.95508 C 265.96448 236.4701 265.80273 241.55355 265.80273 247.25195 C 265.80273 255.77585 265.5862 258.46156 264.58203 262.39453 C 263.27755 267.50368 259.89306 275.22239 258.42188 276.44336 C 256.95772 277.6585 256.64079 275.6439 257.8418 272.75781 C 258.47328 271.24033 259.45016 266.56033 259.66016 261.82227 C 259.88814 256.6783 259.30078 251.44328 258.75586 249.51758 C 258.16941 247.44511 257.02961 238.39062 255.11719 220.61914 C 254.80802 217.74616 254.38238 214.68384 254.17188 213.8125 C 253.59121 211.40888 248.63646 201.76437 244.23438 194.46875 C 239.05732 185.88876 237.72516 181.53806 238.125 174.52539 C 238.4158 169.42522 238.57953 168.91572 242.38281 161.28125 C 244.55827 156.91438 247.32779 152.07249 248.53711 150.52148 C 251.81567 146.31658 254.78779 142.10436 255.37109 141.08789 C 253.17128 142.14855 250.34616 143.51133 245.22266 145.98828 C 236.53605 150.18783 231.97327 152.14062 230.84766 152.14062 C 229.68881 152.14062 229.70371 148.40475 230.88086 143.76758 C 232.65238 136.789 233.0929 126.3505 231.82422 121.40625 C 229.68073 113.05277 223.82838 106.17429 214.97852 101.60352 C 210.40175 99.260906 207.14269 97.523116 198.68945 97.722656 z M 123.66016 117.33594 C 115.38123 119.34126 109.54415 124.43333 105.20312 130.00781 C 103.32929 132.83086 102.55954 134.37522 101.85156 139.22266 C 101.38073 144.13138 100.59893 148.49258 99.056641 152.24023 C 107.8779 149.61277 111.98882 142.72445 114.20508 135.20312 C 115.84533 128.3636 119.48705 123.25594 123.66016 117.33594 z M 148.76367 121.81445 C 138.40037 127.69711 138.02355 135.75024 133.08594 142.96484 C 128.64163 151.10468 124.39058 158.74128 123.9082 159.88086 C 120.8674 167.06436 120.11554 179.4311 122.08203 188.7793 C 123.13138 193.76761 126.67833 204.9337 129.00781 210.35352 C 129.68414 211.92707 130.23828 213.32513 130.23828 213.46094 C 130.23828 213.59674 129.36673 213.70703 128.30273 213.70703 C 123.8015 213.70703 118.60583 207.37726 112.21289 194.10156 L 108.48438 186.35938 C 104.47534 194.56075 106.24521 203.05161 107.23828 208.42969 C 108.23136 213.80778 113.25758 230.37816 116.02734 238.31055 C 118.41494 245.14856 117.98534 249.05242 115.94727 250.95117 C 111.2121 254.98545 102.28606 242.31434 98.527344 237.91406 C 94.876424 255.9079 102.50498 268.04955 107.24023 273.66992 C 113.30962 280.7918 118.07896 288.52926 119.29297 294.20312 C 120.62497 300.42845 125.81674 307.055 131.7168 310.0625 C 133.01918 310.72638 134.2851 311.14624 134.5293 310.99609 C 135.24676 310.55494 135.04123 309.0809 134.05273 307.57227 C 133.03955 305.72663 130.67306 292.84202 131.68945 292.88672 C 132.0855 292.90415 136.57171 296.23778 141.78125 299.88672 C 152.19873 307.18347 154.675 308.48641 160.5293 309.75391 C 164.03553 310.51307 165.03115 310.50384 169.41016 309.66406 C 176.58813 308.28751 177.58769 307.22323 173.60156 305.20117 C 168.55192 302.63962 164.00536 299.3458 162.60938 297.23633 C 155.73032 286.84138 150.67471 270.9496 151.07812 260.98828 C 151.19078 258.28539 150.52976 254.36574 157.2793 253.96289 C 160.06864 253.79641 164.20517 256.11267 167.3457 258.46875 C 167.85344 258.84964 168.63364 259.58841 169.41016 260.125 L 188.69727 260.125 C 187.64534 258.91022 185.7424 256.79539 184.53516 255.26367 C 182.81667 253.0833 180.97299 250.63234 180.4375 249.81836 C 179.90201 249.00438 178.5775 247.35909 177.49414 246.16211 C 176.41078 244.96513 175.12511 243.3885 174.63672 242.6582 C 174.14833 241.9279 172.92436 240.43149 171.91602 239.33203 C 170.38806 237.66599 166.64606 231.66817 163.57617 225.96289 C 160.68945 220.59802 157.79375 203.84242 158.75977 198.0918 C 159.11535 195.97511 159.2213 190.63636 159.01367 185.25195 C 158.69503 176.98837 158.38855 174.96617 156.05469 165.71484 C 154.62298 160.03957 152.23872 150.20259 150.75586 143.85352 C 148.27869 133.24715 148.6803 131.80488 148.7207 126.97266 L 148.76367 121.81445 z M 278.05664 145.73047 C 276.26872 145.44515 267.58645 150.1096 264.69531 152.70898 C 259.57053 157.3166 257.3324 160.95998 256.34766 167.625 C 255.88597 170.74987 255.29754 175.0623 254.82422 176.66797 C 254.35091 178.27363 253.47656 180.54577 253.47656 180.79883 C 253.47656 181.71396 260.30676 177.51569 262.68164 175.21094 C 265.14644 172.81893 267.66168 167.52007 268.4082 164.27734 C 269.11794 161.19433 271.27023 156.2797 273.28516 153.04688 C 274.7029 150.7226 275.9431 147.92569 278.05664 145.73047 z M 138.38086 152.49609 L 139.63672 154.95898 C 141.22755 158.07728 141.21229 159.17617 139.48633 165.24609 C 136.91724 174.28121 137.11156 183.84069 139.97852 189.38477 C 141.06802 191.49164 140.70689 191.6422 138.22852 190.11133 C 135.79152 188.606 134.89625 187.44962 132.31641 182.47852 C 130.16027 178.32387 130.09803 178.02718 130.35547 173.30273 C 130.62434 168.36841 131.59126 165.53936 133.86133 163.05078 C 134.47611 162.37683 135.74435 159.72765 136.67969 157.16211 L 138.38086 152.49609 z M 228.68945 174.33984 L 229.73828 176.70898 C 231.20849 180.02667 231.32905 193.33705 229.91406 196.125 C 226.06435 203.71006 220.52116 209.8167 215.3457 212.17383 C 213.63091 212.95482 210.5623 215.21277 208.52734 217.19141 L 204.82812 220.78906 L 204.83789 218.28516 C 204.84288 216.9076 205.04204 215.48005 205.28125 215.11328 C 205.94764 214.09153 210.89708 208.50683 214.7832 204.39258 C 216.70052 202.3627 219.14466 199.06059 220.21484 197.05273 C 221.28502 195.04487 222.56846 192.92368 223.06836 192.33984 C 224.39072 190.79542 227.22604 182.69077 228.01172 178.20703 L 228.68945 174.33984 z M 271.38281 253.07812 C 271.91493 253.14035 273.96995 260.35138 274.23438 263.0293 C 274.57298 266.45848 273.77844 274.83748 272.50586 278.57227 C 271.33189 282.01768 267.63781 285.87299 263.50586 287.9668 C 260.58733 289.44574 259.88281 289.69884 259.88281 289.27344 C 259.88281 289.15892 261.06797 287.25981 262.51758 285.05273 C 266.55637 278.90356 267.9991 275.43382 270.19531 261.48047 C 270.83247 257.43231 271.19214 253.48413 271.29883 253.16406 C 271.31978 253.1012 271.34734 253.07398 271.38281 253.07812 z M 134.10938 274.08984 C 134.23647 274.08984 135.32854 274.55717 136.53516 275.12695 C 138.39071 276.00318 139.08181 276.92301 141.01367 281.0957 C 144.70078 289.05962 148.81663 293.98459 153.99609 296.62695 C 155.25499 297.26919 156.28516 297.92195 156.28516 298.07812 C 156.28516 298.23427 155.01923 298.34266 153.47266 298.31836 C 150.35653 298.26936 143.37418 295.20585 141.08984 292.88672 C 139.01402 290.77928 136.1582 284.82206 136.1582 282.59961 C 136.1582 281.48496 135.64412 279.11466 135.01758 277.33203 C 134.39103 275.5494 133.98226 274.08984 134.10938 274.08984 z M 189.23633 293.125 L 190.04297 295.25391 C 190.33081 296.14929 191.44437 299.46984 192.51758 302.63281 C 192.87237 303.67846 193.64505 305.43678 193.77344 306.36719 C 193.89114 307.22015 194.00235 308.9043 194.83594 308.9043 C 196.91853 308.95664 199.28428 303.92165 200.77148 298.36133 C 201.25227 296.56377 201.98477 294.08838 202.24023 293.125 L 189.23633 293.125 z "
       transform="translate(65.954559,332.54202)"
       id="path8217" />
    <path
       style="opacity:1;fill:#ffc426;fill-opacity:1;stroke:none;stroke-width:0.359;stroke-linecap:round;stroke-linejoin:round;stroke-miterlimit:4;stroke-dasharray:none;stroke-dashoffset:0;stroke-opacity:1"
       d="M 0 -0.16210938 L 0 80.888672 L 0 85.605469 L 0.19921875 86.988281 L 33.539062 317.61133 L 36.460938 337.82227 L 41.460938 339.9375 L 177.35938 397.42578 L 181.19141 399.04688 L 185.02344 397.42578 L 191.81641 394.55273 L 320.92578 339.93555 L 326.10938 337.74219 L 329.03125 317.5332 L 362.36133 86.988281 L 362.74609 84.326172 L 362.74609 80.851562 L 362.74609 -0.16210938 L 117.5 -0.16210938 L 0 -0.16210938 z M 20.126953 86.988281 L 342.25391 86.988281 L 307.61719 326.5918 L 181.19141 380.07227 L 54.765625 326.5918 L 20.126953 86.988281 z "
       id="rect8180"
       transform="translate(65.954559,332.54202)" />
    <path
       style="opacity:1;fill:#05396b;fill-opacity:1;stroke:none;stroke-width:7.55905533;stroke-linecap:round;stroke-linejoin:round;stroke-miterlimit:4;stroke-dasharray:none;stroke-dashoffset:0;stroke-opacity:1"
       d="M 299.9375 20.0625 L 299.9375 66.25 L 308.5625 66.25 L 308.5625 37.25 L 325.32812 66.287109 L 334.0625 66.287109 L 334.0625 20.1875 L 325.375 20.1875 L 325.375 49.75 L 308.23438 20.0625 L 299.9375 20.0625 z M 72.125 20.207031 L 72.125 66.25 L 98.125 66.25 L 106.1875 58.71875 L 106.1875 47.087891 L 102.09375 43.228516 L 106.1875 39.367188 L 106.1875 27.738281 L 98.125 20.207031 L 72.125 20.207031 z M 160.10938 20.207031 L 160.10938 66.25 L 186.10938 66.25 L 194.17188 58.71875 L 194.17188 27.738281 L 186.10938 20.207031 L 160.10938 20.207031 z M 208.36914 20.207031 L 208.36914 66.25 L 234.36914 66.25 L 242.43164 58.71875 L 242.43164 27.738281 L 234.36914 20.207031 L 208.36914 20.207031 z M 261.29492 20.207031 L 253.23242 27.738281 L 253.23242 58.71875 L 261.29492 66.25 L 279.09375 66.25 L 287.15625 58.71875 L 287.15625 27.738281 L 279.09375 20.207031 L 261.29492 20.207031 z M 40.658203 20.208984 L 28.460938 66.128906 L 37.300781 66.128906 L 39.365234 58.427734 L 51.287109 58.427734 L 53.396484 66.302734 L 62.402344 66.302734 L 50.050781 20.208984 L 40.658203 20.208984 z M 127.98633 20.208984 L 115.78906 66.128906 L 124.62891 66.128906 L 126.69336 58.427734 L 138.61523 58.427734 L 140.72461 66.302734 L 149.73047 66.302734 L 137.37891 20.208984 L 127.98633 20.208984 z M 80.521484 27.662109 L 94.486328 27.662109 L 97.669922 30.845703 L 97.669922 36.060547 L 94.089844 39.388672 L 80.519531 39.388672 C 80.519531 39.388672 80.521484 31.654309 80.521484 27.662109 z M 168.50586 27.662109 L 182.4707 27.662109 L 185.6543 30.845703 L 185.6543 55.611328 L 182.4707 58.792969 L 168.50586 58.792969 L 168.50586 27.662109 z M 216.76562 27.662109 L 230.73047 27.662109 L 233.91406 30.845703 L 233.91406 55.611328 L 230.73047 58.792969 L 216.76562 58.792969 L 216.76562 27.662109 z M 264.93359 27.662109 L 275.45508 27.662109 L 278.63867 30.845703 L 278.63867 55.611328 L 275.45508 58.792969 L 264.93359 58.792969 L 261.75 55.611328 L 261.75 30.845703 L 264.93359 27.662109 z M 45.326172 36.177734 L 49.324219 51.103516 L 41.326172 51.103516 L 45.326172 36.177734 z M 132.6543 36.177734 L 136.65234 51.103516 L 128.6543 51.103516 L 132.6543 36.177734 z M 80.519531 47.066406 L 94.089844 47.066406 L 97.669922 50.396484 L 97.669922 55.611328 L 94.486328 58.792969 L 80.521484 58.792969 C 80.521484 54.800769 80.519531 47.066406 80.519531 47.066406 z "
       transform="translate(65.954559,332.54202)"
       id="path8144" />
    <path
       id="path8246"
       transform="translate(65.954559,332.54202)"
       d="m 138.38086,152.49609 1.25586,2.46289 c 1.59083,3.1183 1.57557,4.21719 -0.15039,10.28711 -2.56909,9.03512 -2.37477,18.5946 0.49219,24.13868 1.0895,2.10687 0.72837,2.25743 -1.75,0.72656 -2.437,-1.50533 -3.33227,-2.66171 -5.91211,-7.63281 -2.15614,-4.15465 -2.21838,-4.45134 -1.96094,-9.17579 0.26887,-4.93432 1.23579,-7.76337 3.50586,-10.25195 0.61478,-0.67395 1.88302,-3.32313 2.81836,-5.88867 z m 90.30859,21.84375 1.04883,2.36914 c 1.47021,3.31769 1.59077,16.62807 0.17578,19.41602 -3.84971,7.58506 -9.3929,13.6917 -14.56836,16.04883 -1.71479,0.78099 -4.7834,3.03894 -6.81836,5.01758 l -3.69922,3.59765 0.01,-2.5039 c 0.005,-1.37756 0.20415,-2.80511 0.44336,-3.17188 0.66639,-1.02175 5.61583,-6.60645 9.50195,-10.7207 1.91732,-2.02988 4.36146,-5.33199 5.43164,-7.33985 1.07018,-2.00786 2.35362,-4.12905 2.85352,-4.71289 1.32236,-1.54442 4.15768,-9.64907 4.94336,-14.13281 z m 42.69336,78.73828 c 0.53212,0.0622 2.58714,7.27326 2.85157,9.95118 0.3386,3.42918 -0.45594,11.80818 -1.72852,15.54297 -1.17397,3.44541 -4.86805,7.30072 -9,9.39453 -2.91853,1.47894 -3.62305,1.73204 -3.62305,1.30664 0,-0.11452 1.18516,-2.01363 2.63477,-4.22071 4.03879,-6.14917 5.48152,-9.61891 7.67773,-23.57226 0.63716,-4.04816 0.99683,-7.99634 1.10352,-8.31641 0.0209,-0.0629 0.0485,-0.0901 0.084,-0.0859 z"
       style="opacity:1;fill:#05396b;fill-opacity:1;stroke-width:0.59198815"
       inkscape:connector-curvature="0"
       sodipodi:nodetypes="ccccccccccccsscccccscccccccscccc" />
    <path
       id="path8248"
       transform="translate(65.954559,332.54202)"
       d="m 134.10938,274.08984 c 0.12709,0 1.21916,0.46733 2.42578,1.03711 1.85555,0.87623 2.54665,1.79606 4.47851,5.96875 3.68711,7.96392 7.80296,12.88889 12.98242,15.53125 1.2589,0.64224 2.28907,1.295 2.28907,1.45117 0,0.15615 -1.26593,0.26454 -2.8125,0.24024 -3.11613,-0.049 -10.09848,-3.11251 -12.38282,-5.43164 -2.07582,-2.10744 -4.93164,-8.06466 -4.93164,-10.28711 0,-1.11465 -0.51408,-3.48495 -1.14062,-5.26758 -0.62655,-1.78263 -1.03532,-3.24219 -0.9082,-3.24219 z"
       style="opacity:1;fill:#05396b;fill-opacity:1;stroke-width:0.59198815"
       inkscape:connector-curvature="0"
       sodipodi:nodetypes="scscsccscs" />
  </g>
</svg>
