<?xml version="1.0" encoding="UTF-8" standalone="no"?>
<!-- Created with Inkscape (http://www.inkscape.org/) -->

<svg
   xmlns:dc="http://purl.org/dc/elements/1.1/"
   xmlns:cc="http://creativecommons.org/ns#"
   xmlns:rdf="http://www.w3.org/1999/02/22-rdf-syntax-ns#"
   xmlns:svg="http://www.w3.org/2000/svg"
   xmlns="http://www.w3.org/2000/svg"
   xmlns:sodipodi="http://sodipodi.sourceforge.net/DTD/sodipodi-0.dtd"
   xmlns:inkscape="http://www.inkscape.org/namespaces/inkscape"
   id="svg2"
   version="1.1"
   inkscape:version="0.91 r13725"
   width="370.05255"
   height="499.57034"
   viewBox="0 0 370.05256 499.57033"
   sodipodi:docname="aegisNova.svg">
  <metadata
     id="metadata8">
    <rdf:RDF>
      <cc:Work
         rdf:about="">
        <dc:format>image/svg+xml</dc:format>
        <dc:type
           rdf:resource="http://purl.org/dc/dcmitype/StillImage" />
        <dc:title></dc:title>
      </cc:Work>
    </rdf:RDF>
  </metadata>
  <defs
     id="defs6" />
  <sodipodi:namedview
     pagecolor="#ffffff"
     bordercolor="#666666"
     borderopacity="1"
     objecttolerance="10"
     gridtolerance="10"
     guidetolerance="10"
     inkscape:pageopacity="0"
     inkscape:pageshadow="2"
     inkscape:window-width="1887"
     inkscape:window-height="1054"
     id="namedview4"
     showgrid="false"
     inkscape:zoom="1.4142136"
     inkscape:cx="234.37532"
     inkscape:cy="233.60323"
     inkscape:window-x="3840"
     inkscape:window-y="0"
     inkscape:window-maximized="1"
     inkscape:current-layer="svg2"
     inkscape:snap-global="true"
     inkscape:snap-bbox="true"
     showguides="false"
     fit-margin-top="0"
     fit-margin-left="0"
     fit-margin-right="0"
     fit-margin-bottom="0" />
  <g
     id="g8299"
     transform="matrix(1.9068846,0,0,1.9068846,-468.21465,-54.662872)">
    <path
       style="opacity:1;fill:#f0592a;fill-opacity:1;stroke:none;stroke-width:25;stroke-linecap:round;stroke-linejoin:round;stroke-miterlimit:4;stroke-dasharray:none;stroke-dashoffset:0;stroke-opacity:1"
       d="m 254.57812,38.714844 -9.7e-4,162.345796 c -9.8e-4,35.21369 61.42179,68.18144 87.99257,79.37695 26.57078,-11.19551 87.99355,-44.16326 87.99257,-79.37695 l -9.7e-4,-162.345796 z"
       id="path8297"
       inkscape:connector-curvature="0"
       sodipodi:nodetypes="cccccc" />
    <path
       id="path8255"
       d="m 267.07812,81.5 0,29.41211 13.98438,5.93555 -2.62109,-4.67774 12.15625,-0.0391 c 4.22963,-0.0133 8.55582,-0.0114 12.87304,-0.0117 L 273.88477,81.5 l -6.80665,0 z m 53.05274,0 11.81641,30.61719 c 2.66456,0.002 4.98742,0.003 7.83984,0.004 L 339.92188,81.5 l -19.79102,0 z m 25.02344,0 0.13476,30.62109 c 2.85242,-10e-4 5.17529,-0.002 7.83985,-0.004 L 364.94531,81.5 l -19.79101,0 z m 66.03711,0 -29.58594,30.61914 c 4.31722,3e-4 8.64342,-0.002 12.87305,0.0117 l 12.15625,0.0391 -2.6211,4.67774 13.98438,-5.93555 0,-29.41211 -6.80664,0 z m -144.11329,69.7793 0,23.43164 38.39844,-15.76367 c -1.53316,-2.54673 -3.05932,-5.10534 -4.58398,-7.66797 l -33.81446,0 z m 117.10547,0 c -1.52466,2.56263 -3.05082,5.12124 -4.58398,7.66797 l 38.39844,15.76367 0,-23.43164 -33.81446,0 z m -75.17382,13.52148 -41.93165,17.96484 0,17.17969 a 12.50125,12.50125 0 0 1 0.0527,1.05274 c 0,3.91255 1.67242,8.53831 4.68945,13.48633 l 41.76367,-42.17969 c -1.52691,-2.49627 -3.05283,-4.99615 -4.57421,-7.50391 z m 67.05664,0 c -1.52138,2.50776 -3.04731,5.00764 -4.57422,7.50391 l 41.76367,42.17969 c 3.01703,-4.94802 4.68945,-9.57378 4.68945,-13.48633 a 12.50125,12.50125 0 0 1 0.0527,-1.05274 l 0,-17.17969 -41.93164,-17.96484 z M 327.41602,193.55664 306.7207,247.125 c 11.25801,7.36876 22.98788,13.59929 32.39258,18.04297 l 0.22656,-52.94141 -11.92382,-18.66992 z m 30.24414,0 -11.92383,18.66992 0.22656,52.94141 c 9.4047,-4.44368 21.13457,-10.67421 32.39258,-18.04297 l -20.69531,-53.56836 z"
       style="opacity:1;fill:#fdc616;fill-opacity:1;stroke:none;stroke-width:14.30000019;stroke-linecap:round;stroke-linejoin:miter;stroke-miterlimit:4;stroke-dasharray:none;stroke-dashoffset:0;stroke-opacity:1"
       inkscape:connector-curvature="0" />
    <path
       id="path8253"
       d="m 282.9668,81.5 36.05468,37.75977 c -1.32686,-9.3e-4 -2.99032,-0.001 -4.28515,-0.002 -8.40754,-0.004 -16.19666,-0.002 -24.11524,0.0234 10.16557,18.14219 20.7164,35.70635 31.38672,53.0918 l -46.23047,47.78515 c 5.0418,6.50034 12.03403,13.28548 20.38086,19.57422 1.4978,1.12849 3.03278,2.23351 4.58203,3.32617 l 25,-64.61914 c 5.59436,9.07451 11.21152,18.11588 16.81836,27.17188 5.59839,-9.04234 11.20671,-18.07016 16.79297,-27.13086 l 24.98438,64.57812 c 1.54925,-1.09266 3.08423,-2.19768 4.58203,-3.32617 8.34683,-6.28874 15.33906,-13.07388 20.38086,-19.57422 l -46.20508,-47.75781 c 10.67652,-17.39422 21.23349,-34.96758 31.4043,-53.11914 -9.15001,-0.0289 -18.48483,-0.0282 -28.44336,-0.0215 L 402.10938,81.5 l -29.43555,0 -14.77149,37.76562 c -5.02504,0.004 -9.61378,0.008 -15.34375,0.008 -5.74575,0 -10.34795,-0.004 -15.38476,-0.008 L 312.40234,81.5 l -29.43554,0 z m -15.88868,37.375 0,24.97852 29.41602,0 c -3.22595,-5.49436 -6.421,-11.04316 -9.58984,-16.63672 l -19.82618,-8.3418 z m 150.91993,0 -19.82617,8.3418 c -3.16885,5.59356 -6.3639,11.14236 -9.58985,16.63672 l 29.41602,0 0,-24.97852 z m -57.48828,9.74805 c 5.87933,0.007 11.77428,0.0425 18.04296,0.15234 -11.55077,20.61435 -23.81505,40.15822 -35.99414,59.83008 -12.1789,-19.67157 -24.44158,-39.21604 -35.99218,-59.83008 12.35448,-0.21467 24.64158,-0.14002 35.99218,-0.13867 6.20712,-1e-5 12.07184,-0.0209 17.95118,-0.0137 z m -17.9668,7.77539 c -5.86491,0.003 -11.72884,0.0137 -17.59375,0.0215 l 17.59375,10.05469 17.5957,-10.05469 c -5.86491,-0.02 -11.7308,-0.0245 -17.5957,-0.0215 z m -20.21094,4.33008 c 5.83019,10.17838 11.71532,20.32408 17.59375,30.4746 l -0.0898,-20.26562 -17.50391,-10.20898 z m 40.48633,0 -17.50391,10.20898 -0.0898,20.26562 c 5.87843,-10.15052 11.76356,-20.29622 17.59375,-30.4746 z"
       style="opacity:1;fill:#000000;fill-opacity:1;stroke:none;stroke-width:14.30000019;stroke-linecap:round;stroke-linejoin:miter;stroke-miterlimit:4;stroke-dasharray:none;stroke-dashoffset:0;stroke-opacity:1"
       inkscape:connector-curvature="0" />
    <g
       id="text4332"
       style="font-style:normal;font-weight:normal;font-size:36.98229599px;line-height:125%;font-family:sans-serif;letter-spacing:0px;word-spacing:0px;fill:#000000;fill-opacity:1;stroke:none;stroke-width:1px;stroke-linecap:butt;stroke-linejoin:miter;stroke-opacity:1"
       transform="matrix(0.95998533,0,0,1.0036193,205.4776,0.7910448)">
      <path
         inkscape:connector-curvature="0"
         id="path8074"
         style="font-style:normal;font-variant:normal;font-weight:normal;font-stretch:normal;font-family:AmarilloUSAF;-inkscape-font-specification:AmarilloUSAF"
         d="m 79.003013,69.84343 -3.809177,0 -0.924557,-3.69823 -5.251486,0 -0.924558,3.69823 -3.809176,0 5.362433,-22.189378 3.994088,0 5.362433,22.189378 z m -5.658292,-7.39646 -1.701185,-6.841724 -1.701186,6.841724 3.402371,0 z" />
      <path
         inkscape:connector-curvature="0"
         id="path8076"
         style="font-style:normal;font-variant:normal;font-weight:normal;font-stretch:normal;font-family:AmarilloUSAF;-inkscape-font-specification:AmarilloUSAF"
         d="m 97.568125,69.84343 -14.792918,0 0,-22.189378 14.792918,0 0,3.69823 -11.094688,0 0,5.547344 5.547344,0 0,3.69823 -5.547344,0 0,5.547344 11.094688,0 0,3.69823 z" />
      <path
         inkscape:connector-curvature="0"
         id="path8078"
         style="font-style:normal;font-variant:normal;font-weight:normal;font-stretch:normal;font-family:AmarilloUSAF;-inkscape-font-specification:AmarilloUSAF"
         d="m 116.05927,66.1452 -3.84616,3.69823 -7.24853,0 -3.69823,-3.69823 0,-14.792918 3.69823,-3.69823 7.39646,0 3.69823,3.69823 0,1.849114 -3.69823,0 0,-0.33284 -1.51627,-1.516274 -4.36391,0 -1.51628,1.516274 0,11.76037 1.51628,1.516274 4.36391,0 1.51627,-1.516274 0,-2.181956 -1.84911,0 0,-3.698229 5.54734,0 0,7.396459 z m 0,-12.943804 0,0 z m -3.69823,0 0,0 z" />
      <path
         inkscape:connector-curvature="0"
         id="path8080"
         style="font-style:normal;font-variant:normal;font-weight:normal;font-stretch:normal;font-family:AmarilloUSAF;-inkscape-font-specification:AmarilloUSAF"
         d="m 123.45573,69.84343 -3.69823,0 0,-22.189378 3.69823,0 0,22.189378 z" />
      <path
         inkscape:connector-curvature="0"
         id="path8082"
         style="font-style:normal;font-variant:normal;font-weight:normal;font-stretch:normal;font-family:AmarilloUSAF;-inkscape-font-specification:AmarilloUSAF"
         d="m 141.91799,66.1452 -3.69823,3.69823 -7.39646,0 -3.69823,-3.69823 0,-1.849115 3.69823,0 0,0.332841 1.51627,1.516274 4.36391,0 1.51628,-1.516274 0,-2.514796 -1.51628,-1.516274 -5.88018,0 -3.69823,-3.69823 0,-5.547344 3.69823,-3.69823 7.39646,0 3.69823,3.69823 0,1.849114 -3.69823,0 0,-0.33284 -1.51628,-1.516274 -4.36391,0 -1.51627,1.516274 0,2.514796 1.51627,1.516274 5.88019,0 3.69823,3.69823 0,5.547344 z" />
      <path
         inkscape:connector-curvature="0"
         id="path8084"
         style="font-style:normal;font-variant:normal;font-weight:normal;font-stretch:normal;font-family:AmarilloUSAF;-inkscape-font-specification:AmarilloUSAF"
         d="m 171.53272,69.84343 -3.69823,0 -7.39646,-14.127238 0,14.127238 -3.69823,0 0,-22.189378 3.69823,0.03698 7.39646,14.127237 0,-14.164219 3.69823,0 0,22.189378 z" />
      <path
         inkscape:connector-curvature="0"
         id="path8086"
         style="font-style:normal;font-variant:normal;font-weight:normal;font-stretch:normal;font-family:AmarilloUSAF;-inkscape-font-specification:AmarilloUSAF"
         d="m 190.02386,66.1452 -3.84616,3.69823 -7.24853,0 -3.69823,-3.69823 0,-14.792918 3.69823,-3.69823 7.39646,0 3.69823,3.69823 0,14.792918 z m -3.69823,-1.516274 0,-11.76037 -1.51627,-1.516274 -4.36391,0 -1.51628,1.516274 0,11.76037 1.51628,1.516274 4.36391,0 1.51627,-1.516274 z" />
      <path
         inkscape:connector-curvature="0"
         id="path8088"
         style="font-style:normal;font-variant:normal;font-weight:normal;font-stretch:normal;font-family:AmarilloUSAF;-inkscape-font-specification:AmarilloUSAF"
         d="m 206.8961,47.654052 -5.36244,22.189378 -3.99408,0 -5.36244,-22.189378 3.80918,0 3.5503,14.238184 3.5503,-14.238184 3.80918,0 z" />
      <path
         inkscape:connector-curvature="0"
         id="path8090"
         style="font-style:normal;font-variant:normal;font-weight:normal;font-stretch:normal;font-family:AmarilloUSAF;-inkscape-font-specification:AmarilloUSAF"
         d="m 221.52489,69.84343 -3.80918,0 -0.92456,-3.69823 -5.25148,0 -0.92456,3.69823 -3.80918,0 5.36244,-22.189378 3.99408,0 5.36244,22.189378 z m -5.65829,-7.39646 -1.70119,-6.841724 -1.70119,6.841724 3.40238,0 z" />
    </g>
    <path
       sodipodi:nodetypes="cccccccccccccccc"
       inkscape:connector-curvature="0"
       id="rect8114"
       d="m 254.57812,38.714844 -9.7e-4,162.345796 c -9.8e-4,35.21369 61.42179,68.18144 87.99257,79.37695 26.57078,-11.19551 87.99355,-44.16326 87.99257,-79.37695 l -9.7e-4,-162.345796 z m 185.02226,-10.048782 0,178.980468 -0.002,0 0.002,0.002 c 0,33.64499 -67.94021,70.47373 -97.03066,83 -29.09045,-12.52627 -97.03066,-49.35501 -97.03066,-83 l 0.002,-0.002 -0.002,0 0,-178.980468 z"
       style="opacity:1;fill:#000000;fill-opacity:1;stroke:none;stroke-width:25;stroke-linecap:round;stroke-linejoin:round;stroke-miterlimit:4;stroke-dasharray:none;stroke-dashoffset:0;stroke-opacity:1" />
  </g>
</svg>
