<?xml version="1.0" encoding="UTF-8"?>
<!DOCTYPE svg PUBLIC "-//W3C//DTD SVG 1.1//EN" "http://www.w3.org/Graphics/SVG/1.1/DTD/svg11.dtd">
<!-- Creator: CorelDRAW X7 -->
<svg xmlns="http://www.w3.org/2000/svg" xml:space="preserve" width="200mm" height="258.931mm" version="1.1" style="shape-rendering:geometricPrecision; text-rendering:geometricPrecision; image-rendering:optimizeQuality; fill-rule:evenodd; clip-rule:evenodd"
viewBox="0 0 21582 27942"
 xmlns:xlink="http://www.w3.org/1999/xlink">
 <defs>
  <style type="text/css">
   <![CDATA[
    .fil0 {fill:#E95229;fill-rule:nonzero}
    .fil1 {fill:#C9BBA0;fill-rule:nonzero}
    .fil3 {fill:#26343A;fill-rule:nonzero}
    .fil2 {fill:#25353A;fill-rule:nonzero}
   ]]>
  </style>
 </defs>
 <g id="Layer_x0020_1">
  <metadata id="CorelCorpID_0Corel-Layer"/>
  <polygon class="fil0" points="1304,1303 20279,1303 20279,6547 1304,6547 "/>
  <polygon class="fil1" points="1304,7850 20279,7850 20279,24028 10369,26592 1304,24042 "/>
  <polygon class="fil2" points="4163,10147 4163,21816 5450,23052 5450,11435 14104,11435 16194,13525 16194,19626 14117,21703 7885,21703 7885,13871 13072,13871 13758,14558 13758,18594 13085,19267 10626,19267 10626,16600 11758,16600 12613,15296 9324,15296 9324,20566 13628,20566 15056,19138 15056,14014 13620,12578 6595,12578 6595,22996 14652,22996 17486,20162 17486,12990 14644,10147 "/>
  <path class="fil3" d="M18043 3499l211 837 -411 -1 200 -836zm-4875 0l211 837 -411 -1 200 -836zm-7148 0l210 837 -411 -1 201 -836zm1924 -520l713 0 185 183 0 319 -185 183 -713 0 0 -685zm-4697 0l730 0 183 185 0 1459 -185 183 -728 0 0 -1827zm7130 -456l-464 463 0 672 463 464 723 0 185 183 0 318 -185 184 -546 0 -183 -197 0 -57 -457 0 0 247 463 463 901 0 463 -462 0 -673 -231 -232 -231 -231 -725 0 -183 -185 0 -316 183 -184 547 0 183 188 1 64 456 0 0 -246 -462 -463 -901 0zm7434 -1l-686 2740 473 1 128 -471 626 0 120 471 476 -4 -685 -2737 -452 0 0 0zm-3121 0l0 2741 457 0 7 -1729 941 1729 422 0 0 -2740 -456 0 -7 1628 -907 -1622 -457 -7zm-1754 0l-686 2740 473 1 128 -471 626 0 120 471 476 -4 -685 -2737 -452 0 0 0zm-5449 0l0 2741 457 0 0 -1178 374 0 520 1177 474 0 -476 -1175 447 -429 0 -672 -447 -464 -1349 0zm-1700 0l-686 2740 474 1 127 -471 627 0 120 471 475 -4 -685 -2737 -452 0 0 0zm-2997 0l0 2741 1363 0 464 -463 0 -1814 -463 -464 -1364 0z"/>
  <path class="fil2" d="M1304 7850l18975 0 0 16178 -9910 2564 -9065 -2550 0 -16192zm0 -6547l18975 0 0 5244 -18975 0 0 -5244zm-1304 -1303l0 25029 1304 367 6557 1844 2494 702 2508 -649 3890 -1006 3526 -912 1303 -338 0 -25037 -21582 0z"/>
 </g>
</svg>
