<?xml version="1.0" encoding="UTF-8" standalone="no"?>
<!-- Created with Inkscape (http://www.inkscape.org/) -->

<svg
   xmlns:dc="http://purl.org/dc/elements/1.1/"
   xmlns:cc="http://creativecommons.org/ns#"
   xmlns:rdf="http://www.w3.org/1999/02/22-rdf-syntax-ns#"
   xmlns:svg="http://www.w3.org/2000/svg"
   xmlns="http://www.w3.org/2000/svg"
   xmlns:sodipodi="http://sodipodi.sourceforge.net/DTD/sodipodi-0.dtd"
   xmlns:inkscape="http://www.inkscape.org/namespaces/inkscape"
   width="477.10062"
   height="490.2132"
   id="svg2"
   version="1.1"
   inkscape:version="0.48.4 r9939"
   sodipodi:docname="helios.svg"
   inkscape:export-filename="/home/ra100/Downloads/sources/ingress-logos/helios/helios.png"
   inkscape:export-xdpi="377.28482"
   inkscape:export-ydpi="377.28482">
  <defs
     id="defs4" />
  <sodipodi:namedview
     id="base"
     pagecolor="#ffffff"
     bordercolor="#666666"
     borderopacity="1.0"
     inkscape:pageopacity="0.0"
     inkscape:pageshadow="2"
     inkscape:zoom="0.70710678"
     inkscape:cx="463.41651"
     inkscape:cy="364.41775"
     inkscape:document-units="px"
     inkscape:current-layer="layer1"
     showgrid="false"
     inkscape:window-width="1887"
     inkscape:window-height="1054"
     inkscape:window-x="3840"
     inkscape:window-y="0"
     inkscape:window-maximized="1"
     inkscape:snap-bbox="true"
     inkscape:bbox-paths="true"
     inkscape:bbox-nodes="false"
     inkscape:snap-bbox-edge-midpoints="false"
     inkscape:snap-global="false"
     fit-margin-top="0"
     fit-margin-left="0"
     fit-margin-right="0"
     fit-margin-bottom="0" />
  <metadata
     id="metadata7">
    <rdf:RDF>
      <cc:Work
         rdf:about="">
        <dc:format>image/svg+xml</dc:format>
        <dc:type
           rdf:resource="http://purl.org/dc/dcmitype/StillImage" />
        <dc:title></dc:title>
      </cc:Work>
    </rdf:RDF>
  </metadata>
  <g
     inkscape:label="Layer 1"
     inkscape:groupmode="layer"
     id="layer1"
     transform="translate(-8.0599405,-275.32034)">
    <path
       inkscape:connector-curvature="0"
       id="path8478"
       d="m 8.0599405,275.32034 0,432.82508 238.5503095,57.38813 238.55031,-57.38813 0,-432.82508 -238.55031,0 z"
       style="fill:#e98026;fill-opacity:1;stroke:none"
       sodipodi:nodetypes="ccccccc" />
    <path
       inkscape:connector-curvature="0"
       id="path8480"
       d="m 246.61025,391.59176 c 23.83776,0 43.15487,19.31715 43.15487,43.15488 0,23.83777 -19.31711,43.15488 -43.15487,43.15488 -23.83777,0 -43.15488,-19.31711 -43.15488,-43.15488 0,-23.83773 19.31711,-43.15488 43.15488,-43.15488 z m -201.674771,182.43888 201.674771,0 201.67476,0 0,106.20027 L 246.61025,728.7235 44.935479,680.23091 z"
       style="fill:#f8d271;fill-opacity:1;stroke:none"
       sodipodi:nodetypes="sssssccccccc" />
    <path
       style="fill:#000000;stroke:none"
       d="m 27.663458,295.46264 0,397.2565 218.946792,52.67211 218.94679,-52.67211 0,-397.2565 -218.94679,0 -218.946792,0 z m 17.272021,15.8117 43.960568,0 95.978053,81.82809 c 12.81935,-19.03431 34.18405,-31.8223 58.61409,-32.83195 l -7.35194,-48.99614 10.474,0 10.47399,0 -7.35193,48.99614 c 24.43004,1.00965 45.79474,13.79764 58.61409,32.83195 l 95.97805,-81.82809 43.96056,0 0,40.68745 -134.85269,49.85219 c 4.93134,9.8961 7.70443,21.11071 7.70443,32.93266 0,12.10264 -2.90646,23.50489 -8.05691,33.58729 l 135.20517,50.05361 0,38.97535 -46.02514,0 -94.31632,-80.41813 c -12.87004,18.78693 -34.12351,31.30972 -58.36231,32.22768 l 7.25123,48.19045 -10.22222,0 -10.22222,0 7.25123,-48.19045 c -24.23881,-0.91796 -45.49227,-13.44075 -58.36232,-32.22768 l -94.316308,80.41813 -46.025153,0 0,-38.97535 135.205181,-50.05361 c -5.15045,-10.0824 -8.05692,-21.48465 -8.05692,-33.58729 0,-11.82195 2.7731,-23.03656 7.70443,-32.93266 l -134.852691,-49.85219 0,-40.68745 z m 68.735601,0 53.83029,0 27.74602,49.24793 c -4.39686,2.91755 -8.43965,6.30455 -12.08538,10.02079 l -69.49093,-59.26872 z m 72.26049,0 33.93978,0 5.38806,35.70223 c -5.58136,1.31007 -10.98549,3.16804 -16.06348,5.53913 l -23.26436,-41.24136 z m 87.41758,0 33.93977,0 -23.26435,41.24136 c -5.07799,-2.37109 -10.48212,-4.22906 -16.06348,-5.53913 l 5.38806,-35.70223 z m 52.36998,0 53.83029,0 -69.49093,59.26872 c -3.64574,-3.71624 -7.68852,-7.10324 -12.08538,-10.02079 l 27.74602,-49.24793 z M 44.935479,369.08275 159.3941,411.43193 c -1.41543,5.04379 -2.33247,10.32528 -2.71922,15.711 l -111.739401,0 0,-58.06018 z m 403.349531,0 0,58.06018 -111.7394,0 c -0.38675,-5.38572 -1.30378,-10.66721 -2.71921,-15.711 l 114.45861,-42.34918 z m -201.67476,5.48877 c -33.21394,0 -60.12477,26.96118 -60.12477,60.17512 0,33.21394 26.91083,60.12477 60.12477,60.12477 33.21394,0 60.12476,-26.91083 60.12476,-60.12477 0,-33.21394 -26.91082,-60.17512 -60.12476,-60.17512 z m 0,17.02024 c 23.83776,0 43.15487,19.31715 43.15487,43.15488 0,23.83777 -19.31711,43.15488 -43.15487,43.15488 -23.83777,0 -43.15488,-19.31711 -43.15488,-43.15488 0,-23.83773 19.31711,-43.15488 43.15488,-43.15488 z m -201.674771,51.61465 111.840111,0 c 0.41118,5.36594 1.34899,10.60748 2.81993,15.61028 l -114.660041,42.39954 0,-58.00982 z m 291.509421,0 111.84011,0 0,58.00982 -114.66003,-42.39954 c 1.47093,-5.0028 2.40874,-10.24434 2.81992,-15.61028 z m -152.77934,56.19701 c 3.61508,3.66522 7.62986,6.94505 11.93431,9.81937 l -27.14174,48.1401 -52.82318,0 68.03061,-57.95947 z m 125.88937,0 68.03061,57.95947 -52.82317,0 -27.14175,-48.1401 c 4.30446,-2.87432 8.31923,-6.15415 11.93431,-9.81937 z m -99.95616,17.67487 c 4.98571,2.32679 10.26792,4.14786 15.76135,5.38807 l -5.237,34.89653 -33.23479,0 22.71044,-40.2846 z m 74.02295,0 22.71044,40.2846 -33.23479,0 -5.237,-34.89653 c 5.49344,-1.24021 10.77565,-3.06128 15.76135,-5.38807 z m -238.686241,56.95235 201.674771,0 201.67476,0 0,106.20027 -201.67476,48.49259 -201.674771,-48.49259 0,-106.20027 z m 19.286252,19.73946 0,70.95124 17.221668,4.12917 0,-32.93265 19.034471,0 0,37.51503 17.42309,4.22988 0,-83.89267 -17.42309,0 0,25.88285 -19.034471,0 0,-25.88285 -17.221668,0 z m 77.296069,0 0,89.53251 45.57195,10.97755 0,-16.7181 -29.10562,-6.99945 0,-27.44388 19.13518,0 0,-16.96989 -19.13518,0 0,-16.26491 29.10562,0 0,-16.11383 -45.57195,0 z m 66.31852,0 0,105.44493 38.77393,9.36617 0,-16.71811 -20.69621,-4.93486 0,-93.15813 -18.07772,0 z m 61.23259,0 0,109.82588 18.32949,-4.38095 0,-105.44493 -18.32949,0 z m 38.67322,0 0,100.51006 53.27638,-12.79035 0,-87.71971 -53.27638,0 z m 71.0016,0 0,45.1691 30.51558,0 0,14.25068 -30.51558,7.35194 0,16.66775 48.44223,-11.63218 0,-44.31305 -31.9759,0 0,-11.38041 31.9759,0 0,-16.11383 -48.44223,0 z m -53.12531,16.11383 17.92664,0 0,59.11765 -17.92664,4.28024 0,-63.39789 z"
       id="path8431"
       inkscape:connector-curvature="0" />
  </g>
</svg>
