<?xml version="1.0" encoding="UTF-8" standalone="no"?>
<!-- Creator: CorelDRAW X7 -->

<svg
   xmlns:dc="http://purl.org/dc/elements/1.1/"
   xmlns:cc="http://creativecommons.org/ns#"
   xmlns:rdf="http://www.w3.org/1999/02/22-rdf-syntax-ns#"
   xmlns:svg="http://www.w3.org/2000/svg"
   xmlns="http://www.w3.org/2000/svg"
   xmlns:sodipodi="http://sodipodi.sourceforge.net/DTD/sodipodi-0.dtd"
   xmlns:inkscape="http://www.inkscape.org/namespaces/inkscape"
   xml:space="preserve"
   width="199.37619mm"
   height="199.37619mm"
   version="1.1"
   style="clip-rule:evenodd;fill-rule:evenodd;image-rendering:optimizeQuality;shape-rendering:geometricPrecision;text-rendering:geometricPrecision"
   viewBox="0 0 20001.419 20001.051"
   id="svg2"
   inkscape:version="0.91+devel r"
   sodipodi:docname="obsidian.svg"><metadata
     id="metadata20"><rdf:RDF><cc:Work
         rdf:about=""><dc:format>image/svg+xml</dc:format><dc:type
           rdf:resource="http://purl.org/dc/dcmitype/StillImage" /><dc:title></dc:title></cc:Work></rdf:RDF></metadata><sodipodi:namedview
     pagecolor="#ffffff"
     bordercolor="#666666"
     borderopacity="1"
     objecttolerance="10"
     gridtolerance="10"
     guidetolerance="10"
     inkscape:pageopacity="0"
     inkscape:pageshadow="2"
     inkscape:window-width="1887"
     inkscape:window-height="1054"
     id="namedview18"
     showgrid="false"
     inkscape:zoom="0.63634617"
     inkscape:cx="-181.45298"
     inkscape:cy="319.98419"
     inkscape:window-x="3840"
     inkscape:window-y="0"
     inkscape:window-maximized="1"
     inkscape:current-layer="svg2"
     fit-margin-top="0"
     fit-margin-left="0"
     fit-margin-right="0"
     fit-margin-bottom="0" /><defs
     id="defs4"><style
       type="text/css"
       id="style6"><![CDATA[
    .fil1 {fill:#EBAD1E}
    .fil0 {fill:#FFC423}
    .fil2 {fill:#231F20;fill-rule:nonzero}
   ]]></style></defs><circle
     style="opacity:1;fill:#000000;fill-opacity:1;fill-rule:nonzero;stroke:none;stroke-width:20443.47265625;stroke-linecap:butt;stroke-linejoin:miter;stroke-miterlimit:4;stroke-dasharray:none;stroke-opacity:1"
     id="path4806"
     cx="10000.71"
     cy="10000.517"
     r="10000.71"
     inkscape:export-xdpi="919.89087"
     inkscape:export-ydpi="919.89087" /><path
     style="opacity:1;fill:#a53cbc;fill-opacity:1;fill-rule:nonzero;stroke:none;stroke-width:20443.47265625;stroke-linecap:butt;stroke-linejoin:miter;stroke-miterlimit:4;stroke-dasharray:none;stroke-opacity:1"
     d="m 10455.098,1235.0665 v 3931.7737 l 1382.53,311.2454 1853.288,-3435.8628 a 8795.1325,8795.1325 0 0 0 -3235.818,-807.1563 z m -944.312,8.5877 a 8795.1325,8795.1325 0 0 0 -3222.0424,808.354 L 8153.2117,5515.6188 9510.786,5151.8713 Z m -904.584,901.7873 c 51.3534,-1.502 77.0631,1.4017 77.0631,1.4017 l 31.5432,2324.6468 -151.1294,43.5203 -1109.2187,-2039.1561 c 612.8932,-281.5474 997.6852,-325.9034 1151.7418,-330.409 z m 2698.978,17.9687 c 896.995,64.1925 1235.392,303.0591 1235.392,303.0591 l -1091.05,2052.7308 -153.526,-34.3394 9.18,-2321.4505 z m 3220.645,319.8302 -1855.085,3439.2517 1109.817,944.114 3248.395,-2121.8099 A 8795.1325,8795.1325 0 0 0 14525.825,2483.2404 Z m -9069.7941,13.7751 A 8795.1325,8795.1325 0 0 0 2975.4629,4737.0093 L 6256.4008,6894.9531 7303.3307,5929.0819 Z M 5164.5521,3710.0452 6305.5132,5735.6263 6193.7131,5846.427 4243.3979,4587.2782 c 537.6233,-720.8897 921.1542,-877.233 921.1542,-877.233 z m 9632.7879,6.1847 c 758.081,483.7715 941.717,854.8742 941.717,854.8742 l -1937.138,1285.1016 -118.589,-103.416 z M 2450.8009,5522.2032 A 8795.1325,8795.1325 0 0 0 1318.624,8642.8271 l 3893.2436,356.7611 479.7427,-1345.793 z m 15103.8121,6.9891 -3251.591,2123.8094 538.639,1338.6067 3835.148,-351.5734 A 8795.1325,8795.1325 0 0 0 17554.613,5529.1923 Z m -298.267,1165.1203 c 434.063,787.5967 417.853,1201.4525 417.853,1201.4525 l -2316.061,201.0425 -54.704,-147.5363 z m -14505.8806,26.9529 1966.4862,1239.7818 -45.718,150.5323 -2314.2652,-180.8779 c 130.3443,-889.7952 393.497,-1209.4362 393.497,-1209.4362 z m 16023.5696,2858.0926 -3838.742,351.97 -144.542,1431.0429 3538.677,1443.421 a 8795.1325,8795.1325 0 0 0 466.368,-2791.609 8795.1325,8795.1325 0 0 0 -21.761,-434.8249 z m -17553.2363,2.596 a 8795.1325,8795.1325 0 0 0 -15.173,432.2289 8795.1325,8795.1325 0 0 0 458.9803,2780.033 l 3594.9764,-1466.38 -197.8469,-1393.7109 z m 789.3889,873.6399 2316.2621,197.845 28.5489,154.723 -2138.7785,902.587 c -292.9999,-850.218 -206.0325,-1255.155 -206.0325,-1255.155 z m 15975.8554,18.565 c 23.826,898.976 -180.878,1259.153 -180.878,1259.153 l -2149.559,-885.02 19.166,-156.123 z m -12436.7784,1755.463 -3536.681,1442.624 a 8795.1325,8795.1325 0 0 0 1854.8863,2645.074 l 2514.3069,-2931.963 z m 8886.1224,7.791 -798.973,1209.036 2471.984,2882.851 a 8795.1325,8795.1325 0 0 0 1873.452,-2645.278 l -3546.463,-1446.613 z m -9147.2563,925.545 96.8275,123.979 -1478.1589,1790 C 3253.5994,14458.83 3143.363,14059.558 3143.363,14059.558 Z m 9424.7593,64.886 2149.559,876.831 c -395.066,807.866 -743.071,1032.357 -743.071,1032.357 L 14623.65,13357.209 Z m -1801.98,823.125 -1266.936,697.954 894.801,3683.02 a 8795.1325,8795.1325 0 0 0 2856.098,-1484.348 l -2483.963,-2896.63 z m -5857.3331,1.403 -2473.5804,2884.444 a 8795.1325,8795.1325 0 0 0 2850.9066,1479.759 l 904.5826,-3723.946 z m 3665.6491,889.81 -1479.7554,29.946 -892.4045,3673.435 a 8795.1325,8795.1325 0 0 0 1653.6439,163.703 8795.1325,8795.1325 0 0 0 1620.106,-156.124 l -901.59,-3710.968 z m -3396.5305,25.354 142.7458,66.08 -497.7119,2267.352 c -863.3786,-251.599 -1143.7558,-556.209 -1143.7558,-556.209 z m 5370.6035,35.935 1508.704,1764.447 c -721.36,536.997 -1133.574,576.97 -1133.574,576.97 l -513.881,-2267.351 z m -2597.358,651.036 572.776,2249.779 c -884.477,162.556 -1271.9267,15.974 -1271.9267,15.974 l 542.0309,-2260.561 z"
     id="path4233"
     inkscape:connector-curvature="0" /><path
     style="opacity:1;fill:#fef200;fill-opacity:1;fill-rule:nonzero;stroke:none;stroke-width:20443.47265625;stroke-linecap:butt;stroke-linejoin:miter;stroke-miterlimit:4;stroke-dasharray:none;stroke-opacity:1"
     d="m 7509.3589,7900.9184 5016.4921,-12.1809 -2519.26,1455.4626 z"
     id="rect4773"
     inkscape:connector-curvature="0"
     sodipodi:nodetypes="cccc" /><path
     style="opacity:1;fill:#fef200;fill-opacity:1;fill-rule:nonzero;stroke:none;stroke-width:20443.47265625;stroke-linecap:butt;stroke-linejoin:miter;stroke-miterlimit:4;stroke-dasharray:none;stroke-opacity:1"
     d="m 13092.015,8805.1586 -2506.483,4345.4454 5.039,-2909.473 z"
     id="rect4773-3"
     inkscape:connector-curvature="0"
     sodipodi:nodetypes="cccc" /><path
     style="opacity:1;fill:#fef200;fill-opacity:1;fill-rule:nonzero;stroke:none;stroke-width:20443.47265625;stroke-linecap:butt;stroke-linejoin:miter;stroke-miterlimit:4;stroke-dasharray:none;stroke-opacity:1"
     d="m 6914.0799,8807.7961 2506.4842,4345.4449 -5.0396,-2909.469 z"
     id="rect4773-3-5"
     inkscape:connector-curvature="0"
     sodipodi:nodetypes="cccc" /></svg>