<?xml version="1.0" encoding="UTF-8" ?>
<!DOCTYPE svg PUBLIC "-//W3C//DTD SVG 1.1//EN" "http://www.w3.org/Graphics/SVG/1.1/DTD/svg11.dtd">
<svg width="1222pt" height="1222pt" viewBox="0 0 1222 1222" version="1.1" xmlns="http://www.w3.org/2000/svg">
<g id="#492015ff">
<path fill="#492015" opacity="1.00" d=" M 32.52 0.00 L 1189.61 0.00 C 1189.62 101.61 1189.60 203.23 1189.62 304.84 C 1153.31 304.78 1116.99 304.85 1080.68 304.81 C 1080.68 533.08 1080.69 761.34 1080.67 989.61 C 934.47 1062.04 788.32 1134.58 642.11 1207.01 C 631.95 1212.02 621.89 1217.23 611.62 1222.00 L 610.67 1222.00 C 594.01 1214.22 577.69 1205.72 561.13 1197.74 C 420.48 1128.39 279.85 1059.02 139.17 989.73 C 139.03 761.42 139.15 533.12 139.11 304.81 C 103.58 304.85 68.05 304.77 32.52 304.85 C 32.51 203.24 32.52 101.62 32.52 0.00 M 118.40 92.45 C 118.39 130.22 118.40 167.98 118.39 205.74 C 124.78 205.70 131.17 205.86 137.56 205.63 C 137.40 189.96 137.53 174.28 137.49 158.61 C 149.77 158.48 162.13 158.99 174.37 158.37 C 180.95 152.38 187.34 146.10 193.69 139.86 C 193.99 130.28 193.80 120.67 193.76 111.07 C 187.78 105.45 182.08 99.54 176.30 93.72 C 175.53 92.67 174.30 92.33 173.05 92.44 C 154.83 92.47 136.61 92.46 118.40 92.45 M 225.56 92.49 C 225.66 130.26 225.43 168.04 225.67 205.81 C 250.83 205.64 275.99 205.82 301.14 205.72 C 301.18 199.33 301.15 192.95 301.16 186.56 C 282.33 186.50 263.50 186.60 244.67 186.51 C 244.74 177.22 244.70 167.92 244.68 158.63 C 254.08 158.64 263.47 158.63 272.87 158.64 C 272.84 152.27 272.89 145.89 272.83 139.52 C 263.44 139.57 254.06 139.51 244.68 139.55 C 244.73 130.25 244.70 120.94 244.70 111.63 C 263.47 111.67 282.25 111.59 301.03 111.67 C 301.32 105.31 301.05 98.94 301.21 92.57 C 275.99 92.33 250.77 92.50 225.56 92.49 M 333.06 92.43 C 332.98 130.20 333.02 167.98 333.04 205.76 C 339.32 205.73 345.59 205.75 351.87 205.75 C 351.86 190.06 351.90 174.37 351.85 158.69 C 357.13 158.57 362.42 158.68 367.70 158.60 C 374.36 174.29 381.05 189.97 387.62 205.70 C 394.63 205.70 401.65 205.94 408.65 205.55 C 401.86 189.95 395.45 174.18 389.02 158.44 C 395.63 152.41 401.85 145.97 408.41 139.90 C 408.50 130.32 408.55 120.75 408.38 111.17 C 401.96 105.08 395.84 98.69 389.55 92.46 C 370.72 92.44 351.89 92.50 333.06 92.43 M 459.23 92.40 C 452.90 98.64 446.54 104.86 440.40 111.27 C 440.05 120.79 440.36 130.35 440.26 139.89 C 446.71 146.05 452.76 152.62 459.30 158.69 C 469.18 158.60 479.06 158.62 488.94 158.67 C 491.43 161.26 493.96 163.82 496.52 166.34 C 496.52 170.63 496.56 174.92 496.47 179.22 C 493.74 181.45 491.69 184.62 488.69 186.44 C 481.39 186.71 474.08 186.47 466.77 186.52 C 464.11 183.43 460.40 181.14 458.70 177.32 C 452.55 177.27 446.39 177.30 440.25 177.31 C 440.26 180.52 440.26 183.73 440.24 186.94 C 446.52 193.21 452.78 199.51 459.08 205.77 C 471.66 205.71 484.25 205.76 496.84 205.74 C 503.09 199.37 509.52 193.18 515.74 186.77 C 515.69 177.32 515.69 167.87 515.74 158.43 C 509.56 152.11 503.15 146.02 497.07 139.60 C 487.05 139.47 477.02 139.56 467.00 139.56 C 464.40 136.98 461.82 134.38 459.22 131.81 C 459.21 127.63 459.20 123.45 459.23 119.27 C 461.77 116.70 464.34 114.17 466.91 111.63 C 474.27 111.65 481.63 111.63 488.99 111.64 C 491.45 114.10 493.89 116.58 496.37 119.02 C 496.46 119.56 496.65 120.63 496.74 121.17 C 503.05 121.16 509.35 121.17 515.66 121.17 C 515.73 117.83 515.74 114.48 515.62 111.14 C 509.86 105.70 504.32 100.02 498.75 94.39 C 497.86 93.71 497.16 92.42 495.90 92.49 C 483.68 92.37 471.45 92.56 459.23 92.40 M 547.47 92.46 C 547.46 130.21 547.49 167.96 547.46 205.72 C 572.58 205.78 597.70 205.73 622.83 205.74 C 622.83 199.34 622.83 192.94 622.83 186.54 C 604.06 186.56 585.29 186.53 566.53 186.55 C 566.56 177.25 566.57 167.94 566.52 158.63 C 575.95 158.64 585.38 158.62 594.81 158.65 C 594.80 152.27 594.82 145.90 594.80 139.52 C 585.37 139.57 575.95 139.51 566.53 139.56 C 566.57 130.25 566.55 120.94 566.55 111.63 C 585.31 111.66 604.06 111.63 622.83 111.64 C 622.82 105.24 622.83 98.84 622.82 92.44 C 597.70 92.48 572.59 92.45 547.47 92.46 M 654.61 92.52 C 654.61 130.21 654.71 167.91 654.56 205.61 C 660.97 205.89 667.39 205.68 673.82 205.75 C 673.82 190.04 673.83 174.33 673.81 158.63 C 686.08 158.65 698.36 158.62 710.64 158.65 C 717.26 152.46 723.70 146.06 730.34 139.89 C 730.46 130.51 730.50 121.13 730.35 111.75 C 724.46 104.97 717.63 99.01 711.45 92.47 C 692.50 92.48 673.56 92.39 654.61 92.52 M 780.73 92.50 C 774.65 98.82 768.31 104.89 762.17 111.16 C 762.09 136.41 762.18 161.66 762.13 186.91 C 767.66 192.69 773.45 198.21 779.03 203.95 C 779.89 204.74 780.72 205.90 782.08 205.72 C 794.01 205.81 805.94 205.67 817.87 205.78 C 824.57 199.50 831.08 193.01 837.72 186.66 C 837.75 164.11 837.71 141.55 837.74 119.00 C 837.65 116.47 838.01 113.88 837.47 111.40 C 831.29 104.97 824.85 98.80 818.60 92.44 C 805.98 92.50 793.36 92.40 780.73 92.50 M 1046.31 92.46 C 1040.69 98.12 1035.07 103.78 1029.38 109.37 C 1028.39 110.36 1027.16 111.40 1027.47 112.96 C 1027.44 121.87 1027.52 130.78 1027.45 139.69 C 1033.04 145.39 1038.75 150.96 1044.33 156.66 C 1045.17 157.31 1045.83 158.55 1047.04 158.56 C 1056.69 158.84 1066.38 158.42 1076.04 158.72 C 1078.80 160.94 1081.21 163.67 1083.59 166.33 C 1083.85 170.44 1083.83 174.60 1083.62 178.72 C 1081.75 181.66 1078.86 183.92 1076.37 186.35 C 1069.02 186.87 1061.61 186.34 1054.25 186.59 C 1051.56 183.58 1047.66 181.35 1046.24 177.41 C 1039.98 177.17 1033.72 177.35 1027.47 177.30 C 1027.48 180.43 1027.48 183.57 1027.42 186.71 C 1033.66 193.07 1039.89 199.47 1046.35 205.60 C 1058.81 205.86 1071.32 205.81 1083.79 205.62 C 1090.50 199.89 1096.49 193.10 1102.88 186.91 C 1102.89 177.39 1102.84 167.88 1102.91 158.37 C 1096.84 151.99 1090.38 146.01 1084.36 139.60 C 1074.29 139.44 1064.22 139.62 1054.15 139.51 C 1051.73 136.79 1048.80 134.53 1046.60 131.63 C 1046.30 127.55 1046.60 123.45 1046.48 119.36 C 1048.99 116.75 1051.57 114.21 1054.14 111.64 C 1061.49 111.62 1068.84 111.68 1076.20 111.61 C 1079.21 114.65 1082.66 117.38 1084.76 121.20 C 1090.78 120.95 1096.80 121.36 1102.83 121.07 C 1102.81 117.79 1103.12 114.49 1102.68 111.23 C 1096.74 104.80 1090.20 98.91 1084.22 92.50 C 1071.58 92.40 1058.95 92.49 1046.31 92.46 M 869.37 205.75 C 894.51 205.73 919.66 205.74 944.81 205.75 C 944.82 199.35 944.79 192.95 944.84 186.56 C 926.02 186.54 907.21 186.53 888.39 186.57 C 888.45 155.20 888.39 123.84 888.42 92.47 C 882.08 92.43 875.74 92.50 869.41 92.42 C 869.31 130.20 869.39 167.97 869.37 205.75 M 976.65 92.44 C 976.68 130.23 976.57 168.02 976.70 205.81 C 983.02 205.68 989.35 205.76 995.68 205.75 C 995.64 167.97 995.76 130.19 995.61 92.41 C 989.29 92.50 982.97 92.46 976.65 92.44 M 336.49 273.36 C 332.84 304.01 329.00 334.61 325.31 365.25 C 353.36 373.30 381.41 381.34 409.42 389.51 C 409.51 350.81 409.38 312.12 409.49 273.42 C 385.16 273.26 360.82 273.38 336.49 273.36 M 431.26 273.34 C 431.24 313.75 431.27 354.16 431.24 394.58 C 458.35 402.69 485.50 410.67 512.58 418.88 C 512.77 370.37 512.61 321.86 512.66 273.35 C 485.53 273.34 458.39 273.36 431.26 273.34 M 534.71 273.52 C 534.82 324.15 534.82 374.80 534.71 425.43 C 556.56 432.24 578.71 438.15 600.62 444.79 C 600.80 387.64 600.65 330.49 600.69 273.34 C 578.70 273.47 556.69 273.12 534.71 273.52 M 621.44 273.36 C 621.45 330.49 621.42 387.63 621.46 444.76 C 643.43 438.20 665.56 432.17 687.48 425.45 C 687.37 374.81 687.35 324.15 687.49 273.51 C 665.48 273.18 643.46 273.47 621.44 273.36 M 709.47 273.38 C 709.50 321.86 709.44 370.34 709.50 418.82 C 736.29 410.84 763.09 402.86 789.88 394.87 C 791.73 394.58 790.90 392.27 791.15 391.03 C 790.97 351.80 791.34 312.56 790.96 273.33 C 763.80 273.42 736.64 273.32 709.47 273.38 M 812.63 273.51 C 812.79 312.05 812.61 350.60 812.71 389.14 C 820.59 387.44 828.23 384.85 836.01 382.74 C 856.28 376.94 876.52 371.02 896.79 365.23 C 893.19 334.59 889.36 303.97 885.62 273.34 C 861.29 273.49 836.95 273.15 812.63 273.51 M 311.33 383.14 C 314.81 393.05 317.43 403.24 320.72 413.22 C 343.90 418.69 366.37 427.28 387.26 438.71 C 415.64 454.29 441.08 476.41 457.20 504.76 C 467.13 521.79 472.70 540.90 477.08 560.00 C 482.85 585.07 486.37 610.69 493.84 635.36 C 499.05 652.17 506.65 668.99 519.85 681.07 C 533.04 693.55 551.21 699.33 569.03 700.65 C 579.51 701.15 590.01 700.85 600.48 700.25 C 600.99 679.86 600.55 659.45 600.70 639.05 C 600.70 581.46 600.69 523.88 600.70 466.29 C 506.86 439.10 412.97 412.02 319.11 384.87 C 316.58 384.03 314.00 383.33 311.33 383.14 M 887.62 389.38 C 798.89 415.06 710.10 440.57 621.42 466.39 C 621.46 544.22 621.47 622.05 621.41 699.87 C 641.64 701.80 662.90 701.97 681.98 694.05 C 696.10 688.33 707.94 677.63 715.68 664.57 C 725.55 648.31 730.39 629.67 734.51 611.27 C 739.49 588.88 742.90 566.12 749.13 544.01 C 752.98 530.00 758.13 516.26 765.56 503.73 C 775.85 485.97 789.89 470.55 805.94 457.83 C 833.86 436.00 867.05 421.49 901.38 413.22 C 904.72 403.27 907.41 393.12 910.75 383.17 C 902.84 384.29 895.36 387.46 887.62 389.38 M 316.89 434.97 C 309.65 459.87 303.01 484.95 295.93 509.91 C 284.08 553.09 271.82 596.16 260.13 639.40 C 290.41 639.41 320.68 639.39 350.95 639.40 C 364.82 639.90 378.69 636.37 390.99 630.05 C 405.13 622.99 416.99 611.95 426.30 599.29 C 437.50 583.98 444.94 566.26 450.22 548.14 C 450.48 546.85 451.08 545.49 450.65 544.18 C 436.04 507.30 409.63 474.70 374.98 454.95 C 357.07 444.86 337.42 437.27 316.89 434.97 M 882.74 439.65 C 865.00 445.03 848.10 453.26 833.07 464.12 C 806.72 482.79 786.65 509.44 773.72 538.88 C 772.80 541.47 770.63 544.08 771.68 546.93 C 779.42 574.65 792.93 602.03 815.89 620.23 C 830.11 631.47 847.77 638.69 865.97 639.37 C 897.99 639.31 930.00 639.47 962.02 639.29 C 943.42 571.18 924.17 503.24 905.54 435.14 C 897.76 435.48 890.19 437.56 882.74 439.65 M 459.79 584.56 C 449.66 604.89 436.14 623.96 417.88 637.75 C 401.82 649.99 382.28 658.06 362.02 659.25 C 335.84 659.27 309.66 659.27 283.47 659.25 C 282.55 664.67 281.82 670.14 280.94 675.57 C 285.93 675.68 290.92 675.65 295.91 675.59 C 295.37 680.88 294.25 686.09 293.39 691.34 C 288.42 691.31 283.44 691.31 278.47 691.33 C 277.77 697.13 276.65 702.87 275.58 708.62 C 279.72 709.64 284.01 709.04 288.22 709.13 C 284.92 731.39 281.77 753.68 278.46 775.94 C 309.02 775.27 339.54 773.11 369.97 770.20 C 391.81 768.16 413.72 763.55 433.41 753.60 C 449.24 745.65 463.30 734.05 473.70 719.67 C 482.30 708.07 488.51 694.83 492.87 681.10 C 481.34 664.64 475.31 645.14 469.92 626.00 C 466.04 612.31 463.23 598.34 459.79 584.56 M 762.16 584.48 C 758.60 601.85 754.43 619.10 749.41 636.11 C 744.50 651.74 738.99 667.56 729.35 680.99 C 733.76 695.16 740.29 708.78 749.25 720.66 C 759.17 734.13 772.41 745.03 787.22 752.77 C 807.79 763.53 830.89 768.31 853.86 770.34 C 883.72 773.29 913.69 774.97 943.67 776.13 C 940.68 753.67 936.80 731.31 934.17 708.82 C 938.27 708.89 942.38 708.89 946.49 708.83 C 945.53 702.99 944.53 697.17 943.60 691.33 C 938.66 691.36 933.72 691.35 928.79 691.35 C 927.85 686.12 926.93 680.89 926.11 675.65 C 931.08 675.57 936.05 675.60 941.03 675.63 C 940.53 670.14 939.60 664.70 938.67 659.28 C 920.10 659.30 901.53 659.28 882.97 659.28 C 870.30 659.03 857.42 660.33 845.01 657.10 C 817.57 650.90 793.87 632.89 777.71 610.21 C 771.64 602.19 767.15 593.17 762.16 584.48 M 467.15 760.07 C 441.10 778.79 409.22 787.96 377.52 790.49 C 377.66 823.83 377.53 857.17 377.59 890.51 C 332.73 890.40 287.88 890.59 243.03 890.41 C 242.85 899.26 242.83 908.13 243.04 916.99 C 281.78 935.52 320.31 954.51 358.99 973.18 C 439.49 1012.38 520.12 1051.32 600.56 1090.63 C 600.88 1042.78 600.61 994.92 600.70 947.07 C 600.60 872.26 600.88 797.45 600.56 722.65 C 586.50 723.05 572.39 722.29 558.53 719.85 C 541.26 716.79 523.77 711.47 509.86 700.39 C 502.86 724.36 487.43 745.58 467.15 760.07 M 682.32 715.48 C 662.68 721.43 642.00 723.21 621.56 722.70 C 621.27 845.17 621.57 967.65 621.40 1090.13 C 628.06 1087.99 634.03 1084.21 640.41 1081.39 C 753.33 1026.59 866.18 971.63 979.15 916.92 C 979.30 908.14 979.13 899.36 979.25 890.58 C 934.34 890.40 889.42 890.54 844.51 890.51 C 844.52 857.14 844.50 823.78 844.52 790.41 C 829.95 789.44 815.51 786.74 801.52 782.55 C 777.58 775.32 754.61 763.09 737.49 744.57 C 725.77 732.11 717.28 716.79 712.27 700.47 C 703.48 707.52 693.05 712.22 682.32 715.48 Z" />
<path fill="#492015" opacity="1.00" d=" M 137.48 111.63 C 147.38 111.64 157.27 111.66 167.16 111.62 C 169.74 114.12 172.28 116.65 174.80 119.20 C 174.81 123.43 174.80 127.65 174.81 131.88 C 172.15 134.34 169.86 137.20 166.99 139.43 C 157.16 139.72 147.31 139.43 137.46 139.55 C 137.51 130.24 137.48 120.94 137.48 111.63 Z" />
<path fill="#492015" opacity="1.00" d=" M 351.88 111.64 C 361.63 111.70 371.39 111.52 381.13 111.71 C 384.42 113.57 386.73 116.94 389.45 119.56 C 389.33 123.65 389.38 127.74 389.34 131.83 C 386.78 134.32 384.22 136.82 381.80 139.45 C 371.82 139.65 361.85 139.50 351.87 139.53 C 351.88 130.23 351.87 120.94 351.88 111.64 Z" />
<path fill="#492015" opacity="1.00" d=" M 673.82 111.63 C 683.23 111.67 692.64 111.61 702.05 111.64 C 703.81 111.33 704.82 112.99 705.98 113.99 C 707.70 115.90 709.89 117.48 711.20 119.74 C 711.41 123.79 711.20 127.86 711.23 131.93 C 708.69 134.35 706.18 136.81 703.84 139.44 C 693.83 139.68 683.82 139.45 673.81 139.56 C 673.83 130.25 673.82 120.94 673.82 111.63 Z" />
<path fill="#492015" opacity="1.00" d=" M 781.22 119.17 C 783.67 116.59 786.19 114.07 788.76 111.60 C 796.12 111.70 803.49 111.57 810.86 111.68 C 813.22 114.25 815.91 116.51 818.20 119.15 C 818.68 120.73 818.44 122.42 818.52 124.05 C 818.43 142.37 818.56 160.69 818.46 179.01 C 815.75 181.39 813.49 184.27 810.62 186.45 C 803.28 186.70 795.93 186.47 788.59 186.53 C 786.27 183.87 783.28 181.75 781.34 178.81 C 781.06 158.94 781.32 139.05 781.22 119.17 Z" />
<path fill="#492015" opacity="1.00" d=" M 349.07 511.05 C 363.30 509.89 377.53 514.68 389.00 522.97 C 399.08 529.99 407.42 539.16 415.05 548.71 C 409.97 547.88 405.15 545.98 400.08 545.16 C 398.35 544.64 396.87 545.61 395.54 546.57 C 386.58 553.03 376.80 558.83 365.90 561.23 C 359.07 562.95 351.95 562.52 345.00 561.97 C 334.39 560.74 323.51 558.47 314.48 552.47 C 309.67 549.29 305.32 544.14 305.55 538.06 C 305.99 531.58 310.67 526.43 315.53 522.59 C 325.11 515.26 337.16 511.84 349.07 511.05 M 322.69 536.17 C 323.54 537.65 324.67 538.97 326.18 539.81 C 334.71 545.17 345.15 546.52 355.05 546.00 C 363.96 545.59 373.06 542.74 379.80 536.73 C 374.25 531.33 366.38 528.77 358.85 527.61 C 346.38 526.20 332.60 527.80 322.69 536.17 Z" />
<path fill="#492015" opacity="1.00" d=" M 846.35 515.51 C 861.35 508.97 878.78 509.75 893.90 515.47 C 902.23 518.84 910.60 523.91 914.99 532.05 C 917.82 537.13 916.79 543.72 912.90 547.95 C 907.03 554.54 898.36 557.67 890.04 559.83 C 877.32 562.54 863.70 564.10 851.12 559.86 C 842.19 556.89 834.04 551.99 826.47 546.47 C 825.19 545.48 823.66 544.73 822.02 545.18 C 817.01 546.00 812.25 547.96 807.22 548.69 C 817.76 535.13 830.38 522.46 846.35 515.51 M 842.04 536.75 C 849.11 542.39 857.93 545.76 866.99 546.00 C 878.42 546.59 891.10 544.91 899.77 536.74 C 892.28 529.35 881.19 527.14 871.01 527.18 C 860.67 526.95 849.96 529.89 842.04 536.75 Z" />
</g>
<g id="#84d1c5ff">
<path fill="#84d1c5" opacity="1.00" d=" M 118.40 92.45 C 136.61 92.46 154.83 92.47 173.05 92.44 C 174.30 92.33 175.53 92.67 176.30 93.72 C 182.08 99.54 187.78 105.45 193.76 111.07 C 193.80 120.67 193.99 130.28 193.69 139.86 C 187.34 146.10 180.95 152.38 174.37 158.37 C 162.13 158.99 149.77 158.48 137.49 158.61 C 137.53 174.28 137.40 189.96 137.56 205.63 C 131.17 205.86 124.78 205.70 118.39 205.74 C 118.40 167.98 118.39 130.22 118.40 92.45 M 137.48 111.63 C 137.48 120.94 137.51 130.24 137.46 139.55 C 147.31 139.43 157.16 139.72 166.99 139.43 C 169.86 137.20 172.15 134.34 174.81 131.88 C 174.80 127.65 174.81 123.43 174.80 119.20 C 172.28 116.65 169.74 114.12 167.16 111.62 C 157.27 111.66 147.38 111.64 137.48 111.63 Z" />
<path fill="#84d1c5" opacity="1.00" d=" M 225.56 92.49 C 250.77 92.50 275.99 92.33 301.21 92.57 C 301.05 98.94 301.32 105.31 301.03 111.67 C 282.25 111.59 263.47 111.67 244.70 111.63 C 244.70 120.94 244.73 130.25 244.68 139.55 C 254.06 139.51 263.44 139.57 272.83 139.52 C 272.89 145.89 272.84 152.27 272.87 158.64 C 263.47 158.63 254.08 158.64 244.68 158.63 C 244.70 167.92 244.74 177.22 244.67 186.51 C 263.50 186.60 282.33 186.50 301.16 186.56 C 301.15 192.95 301.18 199.33 301.14 205.72 C 275.99 205.82 250.83 205.64 225.67 205.81 C 225.43 168.04 225.66 130.26 225.56 92.49 Z" />
<path fill="#84d1c5" opacity="1.00" d=" M 333.06 92.43 C 351.89 92.50 370.72 92.44 389.55 92.46 C 395.84 98.69 401.96 105.08 408.38 111.17 C 408.55 120.75 408.50 130.32 408.41 139.90 C 401.85 145.97 395.63 152.41 389.02 158.44 C 395.45 174.18 401.86 189.95 408.65 205.55 C 401.65 205.94 394.63 205.70 387.62 205.70 C 381.05 189.97 374.36 174.29 367.70 158.60 C 362.42 158.68 357.13 158.57 351.85 158.69 C 351.90 174.37 351.86 190.06 351.87 205.75 C 345.59 205.75 339.32 205.73 333.04 205.76 C 333.02 167.98 332.98 130.20 333.06 92.43 M 351.88 111.64 C 351.87 120.94 351.88 130.23 351.87 139.53 C 361.85 139.50 371.82 139.65 381.80 139.45 C 384.22 136.82 386.78 134.32 389.34 131.83 C 389.38 127.74 389.33 123.65 389.45 119.56 C 386.73 116.94 384.42 113.57 381.13 111.71 C 371.39 111.52 361.63 111.70 351.88 111.64 Z" />
<path fill="#84d1c5" opacity="1.00" d=" M 459.23 92.40 C 471.45 92.56 483.68 92.37 495.90 92.49 C 497.16 92.42 497.86 93.71 498.75 94.39 C 504.32 100.02 509.86 105.70 515.62 111.14 C 515.74 114.48 515.73 117.83 515.66 121.17 C 509.35 121.17 503.05 121.16 496.74 121.17 C 496.65 120.63 496.46 119.56 496.37 119.02 C 493.89 116.58 491.45 114.10 488.99 111.64 C 481.63 111.63 474.27 111.65 466.91 111.63 C 464.34 114.17 461.77 116.70 459.23 119.27 C 459.20 123.45 459.21 127.63 459.22 131.81 C 461.82 134.38 464.40 136.98 467.00 139.56 C 477.02 139.56 487.05 139.47 497.07 139.60 C 503.15 146.02 509.56 152.11 515.74 158.43 C 515.69 167.87 515.69 177.32 515.74 186.77 C 509.52 193.18 503.09 199.37 496.84 205.74 C 484.25 205.76 471.66 205.71 459.08 205.77 C 452.78 199.51 446.52 193.21 440.24 186.94 C 440.26 183.73 440.26 180.52 440.25 177.31 C 446.39 177.30 452.55 177.27 458.70 177.32 C 460.40 181.14 464.11 183.43 466.77 186.52 C 474.08 186.47 481.39 186.71 488.69 186.44 C 491.69 184.62 493.74 181.45 496.47 179.22 C 496.56 174.92 496.52 170.63 496.52 166.34 C 493.96 163.82 491.43 161.26 488.94 158.67 C 479.06 158.62 469.18 158.60 459.30 158.69 C 452.76 152.62 446.71 146.05 440.26 139.89 C 440.36 130.35 440.05 120.79 440.40 111.27 C 446.54 104.86 452.90 98.64 459.23 92.40 Z" />
<path fill="#84d1c5" opacity="1.00" d=" M 547.47 92.46 C 572.59 92.45 597.70 92.48 622.82 92.44 C 622.83 98.84 622.82 105.24 622.83 111.64 C 604.06 111.63 585.31 111.66 566.55 111.63 C 566.55 120.94 566.57 130.25 566.53 139.56 C 575.95 139.51 585.37 139.57 594.80 139.52 C 594.82 145.90 594.80 152.27 594.81 158.65 C 585.38 158.62 575.95 158.64 566.52 158.63 C 566.57 167.94 566.56 177.25 566.53 186.55 C 585.29 186.53 604.06 186.56 622.83 186.54 C 622.83 192.94 622.83 199.34 622.83 205.74 C 597.70 205.73 572.58 205.78 547.46 205.72 C 547.49 167.96 547.46 130.21 547.47 92.46 Z" />
<path fill="#84d1c5" opacity="1.00" d=" M 654.61 92.52 C 673.56 92.39 692.50 92.48 711.45 92.47 C 717.63 99.01 724.46 104.97 730.35 111.75 C 730.50 121.13 730.46 130.51 730.34 139.89 C 723.70 146.06 717.26 152.46 710.64 158.65 C 698.36 158.62 686.08 158.65 673.81 158.63 C 673.83 174.33 673.82 190.04 673.82 205.75 C 667.39 205.68 660.97 205.89 654.56 205.61 C 654.71 167.91 654.61 130.21 654.61 92.52 M 673.82 111.63 C 673.82 120.94 673.83 130.25 673.81 139.56 C 683.82 139.45 693.83 139.68 703.84 139.44 C 706.18 136.81 708.69 134.35 711.23 131.93 C 711.20 127.86 711.41 123.79 711.20 119.74 C 709.89 117.48 707.70 115.90 705.98 113.99 C 704.82 112.99 703.81 111.33 702.05 111.64 C 692.64 111.61 683.23 111.67 673.82 111.63 Z" />
<path fill="#84d1c5" opacity="1.00" d=" M 780.73 92.50 C 793.36 92.40 805.98 92.50 818.60 92.44 C 824.85 98.80 831.29 104.97 837.47 111.40 C 838.01 113.88 837.65 116.47 837.74 119.00 C 837.71 141.55 837.75 164.11 837.72 186.66 C 831.08 193.01 824.57 199.50 817.87 205.78 C 805.94 205.67 794.01 205.81 782.08 205.72 C 780.72 205.90 779.89 204.74 779.03 203.95 C 773.45 198.21 767.66 192.69 762.13 186.91 C 762.18 161.66 762.09 136.41 762.17 111.16 C 768.31 104.89 774.65 98.82 780.73 92.50 M 781.22 119.17 C 781.32 139.05 781.06 158.94 781.34 178.81 C 783.28 181.75 786.27 183.87 788.59 186.53 C 795.93 186.47 803.28 186.70 810.62 186.45 C 813.49 184.27 815.75 181.39 818.46 179.01 C 818.56 160.69 818.43 142.37 818.52 124.05 C 818.44 122.42 818.68 120.73 818.20 119.15 C 815.91 116.51 813.22 114.25 810.86 111.68 C 803.49 111.57 796.12 111.70 788.76 111.60 C 786.19 114.07 783.67 116.59 781.22 119.17 Z" />
<path fill="#84d1c5" opacity="1.00" d=" M 1046.31 92.46 C 1058.95 92.49 1071.58 92.40 1084.22 92.50 C 1090.20 98.91 1096.74 104.80 1102.68 111.23 C 1103.12 114.49 1102.81 117.79 1102.83 121.07 C 1096.80 121.36 1090.78 120.95 1084.76 121.20 C 1082.66 117.38 1079.21 114.65 1076.20 111.61 C 1068.84 111.68 1061.49 111.62 1054.14 111.64 C 1051.57 114.21 1048.99 116.75 1046.48 119.36 C 1046.60 123.45 1046.30 127.55 1046.60 131.63 C 1048.80 134.53 1051.73 136.79 1054.15 139.51 C 1064.22 139.62 1074.29 139.44 1084.36 139.60 C 1090.38 146.01 1096.84 151.99 1102.91 158.37 C 1102.84 167.88 1102.89 177.39 1102.88 186.91 C 1096.49 193.10 1090.50 199.89 1083.79 205.62 C 1071.32 205.81 1058.81 205.86 1046.35 205.60 C 1039.89 199.47 1033.66 193.07 1027.42 186.71 C 1027.48 183.57 1027.48 180.43 1027.47 177.30 C 1033.72 177.35 1039.98 177.17 1046.24 177.41 C 1047.66 181.35 1051.56 183.58 1054.25 186.59 C 1061.61 186.34 1069.02 186.87 1076.37 186.35 C 1078.86 183.92 1081.75 181.66 1083.62 178.72 C 1083.83 174.60 1083.85 170.44 1083.59 166.33 C 1081.21 163.67 1078.80 160.94 1076.04 158.72 C 1066.38 158.42 1056.69 158.84 1047.04 158.56 C 1045.83 158.55 1045.17 157.31 1044.33 156.66 C 1038.75 150.96 1033.04 145.39 1027.45 139.69 C 1027.52 130.78 1027.44 121.87 1027.47 112.96 C 1027.16 111.40 1028.39 110.36 1029.38 109.37 C 1035.07 103.78 1040.69 98.12 1046.31 92.46 Z" />
<path fill="#84d1c5" opacity="1.00" d=" M 869.37 205.75 C 869.39 167.97 869.31 130.20 869.41 92.42 C 875.74 92.50 882.08 92.43 888.42 92.47 C 888.39 123.84 888.45 155.20 888.39 186.57 C 907.21 186.53 926.02 186.54 944.84 186.56 C 944.79 192.95 944.82 199.35 944.81 205.75 C 919.66 205.74 894.51 205.73 869.37 205.75 Z" />
<path fill="#84d1c5" opacity="1.00" d=" M 976.65 92.44 C 982.97 92.46 989.29 92.50 995.61 92.41 C 995.76 130.19 995.64 167.97 995.68 205.75 C 989.35 205.76 983.02 205.68 976.70 205.81 C 976.57 168.02 976.68 130.23 976.65 92.44 Z" />
<path fill="#84d1c5" opacity="1.00" d=" M 336.49 273.36 C 360.82 273.38 385.16 273.26 409.49 273.42 C 409.38 312.12 409.51 350.81 409.42 389.51 C 381.41 381.34 353.36 373.30 325.31 365.25 C 329.00 334.61 332.84 304.01 336.49 273.36 Z" />
<path fill="#84d1c5" opacity="1.00" d=" M 431.26 273.34 C 458.39 273.36 485.53 273.34 512.66 273.35 C 512.61 321.86 512.77 370.37 512.58 418.88 C 485.50 410.67 458.35 402.69 431.24 394.58 C 431.27 354.16 431.24 313.75 431.26 273.34 Z" />
<path fill="#84d1c5" opacity="1.00" d=" M 534.71 273.52 C 556.69 273.12 578.70 273.47 600.69 273.34 C 600.65 330.49 600.80 387.64 600.62 444.79 C 578.71 438.15 556.56 432.24 534.71 425.43 C 534.82 374.80 534.82 324.15 534.71 273.52 Z" />
<path fill="#84d1c5" opacity="1.00" d=" M 311.33 383.14 C 314.00 383.33 316.58 384.03 319.11 384.87 C 412.97 412.02 506.86 439.10 600.70 466.29 C 600.69 523.88 600.70 581.46 600.70 639.05 C 600.55 659.45 600.99 679.86 600.48 700.25 C 590.01 700.85 579.51 701.15 569.03 700.65 C 551.21 699.33 533.04 693.55 519.85 681.07 C 506.65 668.99 499.05 652.17 493.84 635.36 C 486.37 610.69 482.85 585.07 477.08 560.00 C 472.70 540.90 467.13 521.79 457.20 504.76 C 441.08 476.41 415.64 454.29 387.26 438.71 C 366.37 427.28 343.90 418.69 320.72 413.22 C 317.43 403.24 314.81 393.05 311.33 383.14 Z" />
<path fill="#84d1c5" opacity="1.00" d=" M 316.89 434.97 C 337.42 437.27 357.07 444.86 374.98 454.95 C 409.63 474.70 436.04 507.30 450.65 544.18 C 451.08 545.49 450.48 546.85 450.22 548.14 C 444.94 566.26 437.50 583.98 426.30 599.29 C 416.99 611.95 405.13 622.99 390.99 630.05 C 378.69 636.37 364.82 639.90 350.95 639.40 C 320.68 639.39 290.41 639.41 260.13 639.40 C 271.82 596.16 284.08 553.09 295.93 509.91 C 303.01 484.95 309.65 459.87 316.89 434.97 M 349.07 511.05 C 337.16 511.84 325.11 515.26 315.53 522.59 C 310.67 526.43 305.99 531.58 305.55 538.06 C 305.32 544.14 309.67 549.29 314.48 552.47 C 323.51 558.47 334.39 560.74 345.00 561.97 C 351.95 562.52 359.07 562.95 365.90 561.23 C 376.80 558.83 386.58 553.03 395.54 546.57 C 396.87 545.61 398.35 544.64 400.08 545.16 C 405.15 545.98 409.97 547.88 415.05 548.71 C 407.42 539.16 399.08 529.99 389.00 522.97 C 377.53 514.68 363.30 509.89 349.07 511.05 Z" />
<path fill="#84d1c5" opacity="1.00" d=" M 842.04 536.75 C 849.96 529.89 860.67 526.95 871.01 527.18 C 881.19 527.14 892.28 529.35 899.77 536.74 C 891.10 544.91 878.42 546.59 866.99 546.00 C 857.93 545.76 849.11 542.39 842.04 536.75 Z" />
<path fill="#84d1c5" opacity="1.00" d=" M 459.79 584.56 C 463.23 598.34 466.04 612.31 469.92 626.00 C 475.31 645.14 481.34 664.64 492.87 681.10 C 488.51 694.83 482.30 708.07 473.70 719.67 C 463.30 734.05 449.24 745.65 433.41 753.60 C 413.72 763.55 391.81 768.16 369.97 770.20 C 339.54 773.11 309.02 775.27 278.46 775.94 C 281.77 753.68 284.92 731.39 288.22 709.13 C 284.01 709.04 279.72 709.64 275.58 708.62 C 276.65 702.87 277.77 697.13 278.47 691.33 C 283.44 691.31 288.42 691.31 293.39 691.34 C 294.25 686.09 295.37 680.88 295.91 675.59 C 290.92 675.65 285.93 675.68 280.94 675.57 C 281.82 670.14 282.55 664.67 283.47 659.25 C 309.66 659.27 335.84 659.27 362.02 659.25 C 382.28 658.06 401.82 649.99 417.88 637.75 C 436.14 623.96 449.66 604.89 459.79 584.56 Z" />
<path fill="#84d1c5" opacity="1.00" d=" M 467.15 760.07 C 487.43 745.58 502.86 724.36 509.86 700.39 C 523.77 711.47 541.26 716.79 558.53 719.85 C 572.39 722.29 586.50 723.05 600.56 722.65 C 600.88 797.45 600.60 872.26 600.70 947.07 C 600.61 994.92 600.88 1042.78 600.56 1090.63 C 520.12 1051.32 439.49 1012.38 358.99 973.18 C 320.31 954.51 281.78 935.52 243.04 916.99 C 242.83 908.13 242.85 899.26 243.03 890.41 C 287.88 890.59 332.73 890.40 377.59 890.51 C 377.53 857.17 377.66 823.83 377.52 790.49 C 409.22 787.96 441.10 778.79 467.15 760.07 Z" />
</g>
<g id="#fc4400ff">
<path fill="#fc4400" opacity="1.00" d=" M 621.44 273.36 C 643.46 273.47 665.48 273.18 687.49 273.51 C 687.35 324.15 687.37 374.81 687.48 425.45 C 665.56 432.17 643.43 438.20 621.46 444.76 C 621.42 387.63 621.45 330.49 621.44 273.36 Z" />
<path fill="#fc4400" opacity="1.00" d=" M 709.47 273.38 C 736.64 273.32 763.80 273.42 790.96 273.33 C 791.34 312.56 790.97 351.80 791.15 391.03 C 790.90 392.27 791.73 394.58 789.88 394.87 C 763.09 402.86 736.29 410.84 709.50 418.82 C 709.44 370.34 709.50 321.86 709.47 273.38 Z" />
<path fill="#fc4400" opacity="1.00" d=" M 812.63 273.51 C 836.95 273.15 861.29 273.49 885.62 273.34 C 889.36 303.97 893.19 334.59 896.79 365.23 C 876.52 371.02 856.28 376.94 836.01 382.74 C 828.23 384.85 820.59 387.44 812.71 389.14 C 812.61 350.60 812.79 312.05 812.63 273.51 Z" />
<path fill="#fc4400" opacity="1.00" d=" M 887.62 389.38 C 895.36 387.46 902.84 384.29 910.75 383.17 C 907.41 393.12 904.72 403.27 901.38 413.22 C 867.05 421.49 833.86 436.00 805.94 457.83 C 789.89 470.55 775.85 485.97 765.56 503.73 C 758.13 516.26 752.98 530.00 749.13 544.01 C 742.90 566.12 739.49 588.88 734.51 611.27 C 730.39 629.67 725.55 648.31 715.68 664.57 C 707.94 677.63 696.10 688.33 681.98 694.05 C 662.90 701.97 641.64 701.80 621.41 699.87 C 621.47 622.05 621.46 544.22 621.42 466.39 C 710.10 440.57 798.89 415.06 887.62 389.38 Z" />
<path fill="#fc4400" opacity="1.00" d=" M 882.74 439.65 C 890.19 437.56 897.76 435.48 905.54 435.14 C 924.17 503.24 943.42 571.18 962.02 639.29 C 930.00 639.47 897.99 639.31 865.97 639.37 C 847.77 638.69 830.11 631.47 815.89 620.23 C 792.93 602.03 779.42 574.65 771.68 546.93 C 770.63 544.08 772.80 541.47 773.72 538.88 C 786.65 509.44 806.72 482.79 833.07 464.12 C 848.10 453.26 865.00 445.03 882.74 439.65 M 846.35 515.51 C 830.38 522.46 817.76 535.13 807.22 548.69 C 812.25 547.96 817.01 546.00 822.02 545.18 C 823.66 544.73 825.19 545.48 826.47 546.47 C 834.04 551.99 842.19 556.89 851.12 559.86 C 863.70 564.10 877.32 562.54 890.04 559.83 C 898.36 557.67 907.03 554.54 912.90 547.95 C 916.79 543.72 917.82 537.13 914.99 532.05 C 910.60 523.91 902.23 518.84 893.90 515.47 C 878.78 509.75 861.35 508.97 846.35 515.51 Z" />
<path fill="#fc4400" opacity="1.00" d=" M 322.69 536.17 C 332.60 527.80 346.38 526.20 358.85 527.61 C 366.38 528.77 374.25 531.33 379.80 536.73 C 373.06 542.74 363.96 545.59 355.05 546.00 C 345.15 546.52 334.71 545.17 326.18 539.81 C 324.67 538.97 323.54 537.65 322.69 536.17 Z" />
<path fill="#fc4400" opacity="1.00" d=" M 762.16 584.48 C 767.15 593.17 771.64 602.19 777.71 610.21 C 793.87 632.89 817.57 650.90 845.01 657.10 C 857.42 660.33 870.30 659.03 882.97 659.28 C 901.53 659.28 920.10 659.30 938.67 659.28 C 939.60 664.70 940.53 670.14 941.03 675.63 C 936.05 675.60 931.08 675.57 926.11 675.65 C 926.93 680.89 927.85 686.12 928.79 691.35 C 933.72 691.35 938.66 691.36 943.60 691.33 C 944.53 697.17 945.53 702.99 946.49 708.83 C 942.38 708.89 938.27 708.89 934.17 708.82 C 936.80 731.31 940.68 753.67 943.67 776.13 C 913.69 774.97 883.72 773.29 853.86 770.34 C 830.89 768.31 807.79 763.53 787.22 752.77 C 772.41 745.03 759.17 734.13 749.25 720.66 C 740.29 708.78 733.76 695.16 729.35 680.99 C 738.99 667.56 744.50 651.74 749.41 636.11 C 754.43 619.10 758.60 601.85 762.16 584.48 Z" />
<path fill="#fc4400" opacity="1.00" d=" M 682.32 715.48 C 693.05 712.22 703.48 707.52 712.27 700.47 C 717.28 716.79 725.77 732.11 737.49 744.57 C 754.61 763.09 777.58 775.32 801.52 782.55 C 815.51 786.74 829.95 789.44 844.52 790.41 C 844.50 823.78 844.52 857.14 844.51 890.51 C 889.42 890.54 934.34 890.40 979.25 890.58 C 979.13 899.36 979.30 908.14 979.15 916.92 C 866.18 971.63 753.33 1026.59 640.41 1081.39 C 634.03 1084.21 628.06 1087.99 621.40 1090.13 C 621.57 967.65 621.27 845.17 621.56 722.70 C 642.00 723.21 662.68 721.43 682.32 715.48 Z" />
</g>
</svg>
