<?xml version="1.0" encoding="UTF-8" standalone="no"?>
<!-- Creator: CorelDRAW X7 -->

<svg
   xmlns:dc="http://purl.org/dc/elements/1.1/"
   xmlns:cc="http://creativecommons.org/ns#"
   xmlns:rdf="http://www.w3.org/1999/02/22-rdf-syntax-ns#"
   xmlns:svg="http://www.w3.org/2000/svg"
   xmlns="http://www.w3.org/2000/svg"
   xmlns:sodipodi="http://sodipodi.sourceforge.net/DTD/sodipodi-0.dtd"
   xmlns:inkscape="http://www.inkscape.org/namespaces/inkscape"
   xml:space="preserve"
   width="200mm"
   height="209.334mm"
   version="1.1"
   style="shape-rendering:geometricPrecision; text-rendering:geometricPrecision; image-rendering:optimizeQuality; fill-rule:evenodd; clip-rule:evenodd"
   viewBox="0 0 20064 21000"
   id="svg2"
   inkscape:version="0.91pre2 r"
   sodipodi:docname="recursion.svg"><metadata
     id="metadata20"><rdf:RDF><cc:Work
         rdf:about=""><dc:format>image/svg+xml</dc:format><dc:type
           rdf:resource="http://purl.org/dc/dcmitype/StillImage" /></cc:Work></rdf:RDF></metadata><sodipodi:namedview
     pagecolor="#ffffff"
     bordercolor="#666666"
     borderopacity="1"
     objecttolerance="10"
     gridtolerance="10"
     guidetolerance="10"
     inkscape:pageopacity="0"
     inkscape:pageshadow="2"
     inkscape:window-width="1920"
     inkscape:window-height="1054"
     id="namedview18"
     showgrid="false"
     inkscape:zoom="0.63634617"
     inkscape:cx="492.30193"
     inkscape:cy="327.43511"
     inkscape:window-x="1920"
     inkscape:window-y="0"
     inkscape:window-maximized="1"
     inkscape:current-layer="svg2" /><defs
     id="defs4"><style
       type="text/css"
       id="style6"><![CDATA[
    .fil1 {fill:#EBAD1E}
    .fil0 {fill:#FFC423}
    .fil2 {fill:#231F20;fill-rule:nonzero}
   ]]></style></defs><g
     id="Layer_x0020_1"
     inkscape:export-filename="recursion"
     inkscape:export-xdpi="121.285"
     inkscape:export-ydpi="121.285"><metadata
       id="CorelCorpID_0Corel-Layer" /><polygon
       class="fil0"
       points="16909,4441 3155,4441 3155,15728 10032,19698 16909,15728 "
       id="polygon10" /><path
       class="fil1"
       d="M0 0l20064 0 0 4441 -2028 0 0 11938 0 0 0 0 -8004 4621 -8004 -4621 0 0 0 0 0 -11938 -2028 0 0 -4441zm16909 4441l-13754 0 0 11287 6877 3970 6877 -3970 0 -11287z"
       id="path12" /><path
       class="fil2"
       d="M2690 1591l-162 -162 -629 0 0 593 629 0 162 -162 0 -269zm-35 1819l-419 -991 -337 0 0 991 -397 0 0 -2378 1188 0 397 397 0 593 -412 397 412 991 -432 0zm1328 -1981l0 593 593 0 0 397 -593 0 0 594 1188 0 0 397 -1585 0 0 -2378 1585 0 0 397 -1188 0zm2756 1981l-792 0 -397 -397 0 -1584 397 -397 792 0 396 397 0 197 -396 0 0 -35 -163 -162 -466 0 -163 162 0 1260 163 162 466 0 163 -162 0 -35 396 0 0 197 -396 397zm2044 0l-792 0 -397 -397 0 -1981 397 0 0 1819 163 162 466 0 163 -162 0 -1819 396 0 0 1981 -396 397zm2123 -1819l-163 -162 -628 0 0 593 628 0 163 -162 0 -269zm-35 1819l-420 -991 -336 0 0 991 -397 0 0 -2378 1188 0 397 397 0 593 -412 397 412 991 -432 0zm2079 0l-791 0 -397 -397 0 -197 397 0 0 35 162 162 466 0 163 -162 0 -269 -163 -163 -628 0 -397 -397 0 -593 397 -397 791 0 397 397 0 197 -397 0 0 -35 -163 -162 -466 0 -162 162 0 269 162 162 629 0 397 397 0 594 -397 397zm935 0l0 -2378 397 0 0 2378 -397 0zm2161 -1819l-163 -162 -431 0 -197 197 0 1190 197 197 431 0 163 -162 0 -1260zm0 1819l-791 0 -397 -397 0 -1584 397 -397 791 0 397 397 0 1584 -397 397zm2123 0l-791 -1517 0 1517 -397 0 0 -2378 397 0 791 1519 0 -1519 397 0 0 2378 -397 0z"
       id="path14" /><path
       class="fil2"
       d="M7695 11725l-639 639 0 1057 639 639 2790 0 651 1560 -4080 0 -1560 -1560 0 -2335 1620 -1561 -1620 -3895 1698 0 1649 3895c1171,0 2341,0 3512,0l639 -638 0 -1057 -639 -639 -2790 0 -650 -1561 4079 0 1561 1561 0 2334 -1621 1561 1621 3895 -1699 0 -1649 -3895c-1170,0 -2341,0 -3512,0z"
       id="path16" /></g></svg>