<?xml version="1.0" encoding="UTF-8" standalone="no"?>
<!-- Created with Inkscape (http://www.inkscape.org/) -->

<svg
   xmlns:dc="http://purl.org/dc/elements/1.1/"
   xmlns:cc="http://creativecommons.org/ns#"
   xmlns:rdf="http://www.w3.org/1999/02/22-rdf-syntax-ns#"
   xmlns:svg="http://www.w3.org/2000/svg"
   xmlns="http://www.w3.org/2000/svg"
   xmlns:sodipodi="http://sodipodi.sourceforge.net/DTD/sodipodi-0.dtd"
   xmlns:inkscape="http://www.inkscape.org/namespaces/inkscape"
   id="svg2"
   version="1.1"
   inkscape:version="0.92+devel unknown"
   width="363.32422"
   height="524.05078"
   viewBox="0 0 363.32423 524.05077"
   sodipodi:docname="via_lux.svg">
  <metadata
     id="metadata8">
    <rdf:RDF>
      <cc:Work
         rdf:about="">
        <dc:format>image/svg+xml</dc:format>
        <dc:type
           rdf:resource="http://purl.org/dc/dcmitype/StillImage" />
        <dc:title></dc:title>
      </cc:Work>
    </rdf:RDF>
  </metadata>
  <defs
     id="defs6" />
  <sodipodi:namedview
     pagecolor="#ffffff"
     bordercolor="#666666"
     borderopacity="1"
     objecttolerance="10"
     gridtolerance="10"
     guidetolerance="10"
     inkscape:pageopacity="0"
     inkscape:pageshadow="2"
     inkscape:window-width="1887"
     inkscape:window-height="1054"
     id="namedview4"
     showgrid="false"
     inkscape:zoom="1"
     inkscape:cx="40.229309"
     inkscape:cy="208.68555"
     inkscape:window-x="33"
     inkscape:window-y="0"
     inkscape:window-maximized="1"
     inkscape:current-layer="svg2"
     inkscape:snap-global="true"
     inkscape:snap-bbox="true"
     showguides="true"
     fit-margin-top="0"
     fit-margin-left="0"
     fit-margin-right="0"
     fit-margin-bottom="0"
     inkscape:guide-bbox="true">
    <sodipodi:guide
       position="319.59998,342.39145"
       orientation="0,1"
       id="guide4335"
       inkscape:locked="false" />
  </sodipodi:namedview>
  <circle
     style="opacity:1;fill:#bd932d;fill-opacity:1;stroke:none;stroke-width:3.02399969;stroke-linecap:round;stroke-linejoin:round;stroke-miterlimit:4;stroke-dasharray:none;stroke-dashoffset:0;stroke-opacity:1"
     id="circle4381"
     cx="181.66205"
     cy="201.9326"
     r="87.79493" />
  <circle
     r="144.25371"
     cy="181.66219"
     cx="181.66205"
     id="circle4299"
     style="opacity:1;fill:#f8e7c1;fill-opacity:1;stroke:none;stroke-width:3.02399993;stroke-linecap:round;stroke-linejoin:round;stroke-miterlimit:4;stroke-dasharray:none;stroke-dashoffset:0;stroke-opacity:1" />
  <path
     style="opacity:1;fill:#ffc423;fill-opacity:1;stroke:#ffc423;stroke-width:3.77952766;stroke-linecap:round;stroke-linejoin:round;stroke-miterlimit:4;stroke-dasharray:none;stroke-dashoffset:0;stroke-opacity:1"
     d="M 181.6621,13.207031 A 168.45468,168.45468 0 0 0 13.207031,181.66016 v 229.89062 l 18.720703,-18.7207 V 181.66016 A 149.73335,149.73335 0 0 1 181.6621,31.929688 149.73335,149.73335 0 0 1 329.74609,160.57031 h -0.0273 a 149.73335,149.73335 0 0 1 1.43554,14.3086 149.73335,149.73335 0 0 1 0.24024,6.78125 v 212.68359 l 18.72265,18.72266 V 181.66016 A 168.45468,168.45468 0 0 0 181.6621,13.207031 Z M 42.074218,401.36719 21.816406,421.625 H 339.99218 l -20.25781,-20.25781 z"
     id="circle4295"
     inkscape:connector-curvature="0" />
  <circle
     r="0"
     cy="181.66219"
     cx="181.66205"
     id="ellipse4291"
     style="opacity:1;fill:#008000;fill-opacity:0.53009117;stroke:none;stroke-width:3.02399993;stroke-linecap:round;stroke-linejoin:round;stroke-miterlimit:4;stroke-dasharray:none;stroke-dashoffset:0;stroke-opacity:1" />
  <circle
     r="0"
     cy="181.66219"
     cx="181.66205"
     id="ellipse4293"
     style="opacity:1;fill:#008000;fill-opacity:0.53009117;stroke:none;stroke-width:3.02399993;stroke-linecap:round;stroke-linejoin:round;stroke-miterlimit:4;stroke-dasharray:none;stroke-dashoffset:0;stroke-opacity:1" />
  <circle
     style="opacity:1;fill:#ffc423;fill-opacity:1;stroke:none;stroke-width:3.02399969;stroke-linecap:round;stroke-linejoin:round;stroke-miterlimit:4;stroke-dasharray:none;stroke-dashoffset:0;stroke-opacity:1"
     id="circle4301"
     cx="181.66205"
     cy="201.9326"
     r="102.64417" />
  <circle
     r="87.79493"
     cy="201.9326"
     cx="181.66205"
     id="circle4303"
     style="opacity:1;fill:#bd932d;fill-opacity:1;stroke:none;stroke-width:3.02399969;stroke-linecap:round;stroke-linejoin:round;stroke-miterlimit:4;stroke-dasharray:none;stroke-dashoffset:0;stroke-opacity:1" />
  <rect
     style="opacity:1;fill:#836528;fill-opacity:1;stroke:none;stroke-width:3.77952766;stroke-linecap:round;stroke-linejoin:round;stroke-miterlimit:4;stroke-dasharray:none;stroke-dashoffset:0;stroke-opacity:1"
     id="rect4373"
     width="284.38037"
     height="197.58772"
     x="40.387772"
     y="201.90459" />
  <path
     style="fill:#ffc423;fill-opacity:1;fill-rule:evenodd;stroke:none;stroke-width:1px;stroke-linecap:butt;stroke-linejoin:miter;stroke-opacity:1"
     d="m 180.65039,39.847657 c -8.41255,0.04833 -18.00181,2.056962 -29.73438,7.638671 l 14.56836,68.210942 a 87.79493,87.79493 0 0 1 16.17773,-1.56055 87.79493,87.79493 0 0 1 15.45508,1.45117 l 15.89649,-68.416015 c -10.28602,-3.278091 -20.06803,-7.394849 -32.36328,-7.324218 z m -96.050781,40.017578 -38.462891,53.419925 55.423822,32.8789 a 87.79493,87.79493 0 0 1 26.69141,-33.83593 z m 192.158201,3.828125 -38.52344,51.10156 a 87.79493,87.79493 0 0 1 22.83203,29.90625 l 50.20313,-29.00781 c -4.72415,-24.37786 -18.14736,-39.746322 -34.51172,-52 z"
     id="path4307"
     inkscape:connector-curvature="0" />
  <rect
     style="opacity:1;fill:#f8e7c1;fill-opacity:1;stroke:none;stroke-width:3.77952766;stroke-linecap:round;stroke-linejoin:round;stroke-miterlimit:4;stroke-dasharray:none;stroke-dashoffset:0;stroke-opacity:1"
     id="rect4384"
     width="342.21387"
     height="80.740913"
     x="13.207031"
     y="434.83789" />
  <path
     style="opacity:1;fill:#000000;fill-opacity:1;stroke:none;stroke-width:3.02399993;stroke-linecap:round;stroke-linejoin:round;stroke-miterlimit:4;stroke-dasharray:none;stroke-dashoffset:0;stroke-opacity:1"
     d="M 181.6621,0 A 181.66299,181.66299 0 0 0 0,181.66016 V 524.05078 H 363.32421 V 181.66016 A 181.66299,181.66299 0 0 0 181.6621,0 Z m 0,13.207031 A 168.45468,168.45468 0 0 1 350.11718,181.66016 V 413.06641 L 331.39453,394.34375 V 181.66016 A 149.73335,149.73335 0 0 0 181.6621,31.929688 149.73335,149.73335 0 0 0 31.927734,181.66016 v 211.16992 l -18.720703,18.7207 V 181.66016 A 168.45468,168.45468 0 0 1 181.6621,13.207031 Z m 0,31.980469 a 136.47552,136.47552 0 0 1 136.47461,136.47266 h 0.002 V 388.15625 H 45.185546 V 181.66016 A 136.47552,136.47552 0 0 1 181.6621,45.1875 Z M 42.074218,401.36719 H 319.73437 L 339.99218,421.625 H 21.816406 Z m -28.867187,33.4707 H 350.11718 v 76 H 13.207031 Z"
     id="circle4297"
     inkscape:connector-curvature="0" />
  <g
     id="g4315"
     style="fill:#000000"
     transform="translate(-5.9785156,23.886719)">
    <path
       d="M 105.64136,428.30425 94.222467,474.14063 H 85.71736 L 74.298466,428.30425 h 8.111352 l 7.560095,29.41168 7.560095,-29.41168 z"
       style="font-style:normal;font-variant:normal;font-weight:normal;font-stretch:normal;font-size:medium;line-height:59.06324768px;font-family:AmarilloUSAF;-inkscape-font-specification:AmarilloUSAF;letter-spacing:1.42999995px;word-spacing:0px;fill:#000000;fill-opacity:1;stroke:none;stroke-width:1px;stroke-linecap:butt;stroke-linejoin:miter;stroke-opacity:1"
       id="path4290"
       inkscape:connector-curvature="0" />
    <path
       d="m 123.68617,474.14063 h -7.8751 v -45.83638 h 7.8751 z"
       style="font-style:normal;font-variant:normal;font-weight:normal;font-stretch:normal;font-size:medium;line-height:59.06324768px;font-family:AmarilloUSAF;-inkscape-font-specification:AmarilloUSAF;letter-spacing:1.42999995px;word-spacing:0px;fill:#000000;fill-opacity:1;stroke:none;stroke-width:1px;stroke-linecap:butt;stroke-linejoin:miter;stroke-opacity:1"
       id="path4292"
       inkscape:connector-curvature="0" />
    <path
       d="m 163.46019,474.14063 h -8.11135 l -1.96878,-7.6394 h -11.18264 l -1.96877,7.6394 h -8.11135 l 11.41889,-45.83638 h 8.50511 z m -12.0489,-15.27878 -3.62255,-14.1329 -3.62254,14.1329 z"
       style="font-style:normal;font-variant:normal;font-weight:normal;font-stretch:normal;font-size:medium;line-height:59.06324768px;font-family:AmarilloUSAF;-inkscape-font-specification:AmarilloUSAF;letter-spacing:1.42999995px;word-spacing:0px;fill:#000000;fill-opacity:1;stroke:none;stroke-width:1px;stroke-linecap:butt;stroke-linejoin:miter;stroke-opacity:1"
       id="path4294"
       inkscape:connector-curvature="0" />
    <path
       sodipodi:nodetypes="ccccccc"
       d="m 218.74447,474.14063 h -30.2504 v -45.83638 h 8.26379 v 37.92749 h 21.98661 z"
       style="font-style:normal;font-variant:normal;font-weight:normal;font-stretch:normal;font-size:medium;line-height:59.06324768px;font-family:AmarilloUSAF;-inkscape-font-specification:AmarilloUSAF;letter-spacing:1.42999995px;word-spacing:0px;fill:#000000;fill-opacity:1;stroke:none;stroke-width:1px;stroke-linecap:butt;stroke-linejoin:miter;stroke-opacity:1"
       id="path4296"
       inkscape:connector-curvature="0" />
    <path
       sodipodi:nodetypes="ccccccccccccc"
       d="m 259.25498,466.50123 -7.8751,7.6394 h -15.7502 l -7.8751,-7.6394 v -38.19698 h 7.8751 v 34.93983 l 3.22879,3.13215 h 9.29262 l 3.22879,-3.13215 v -34.93983 h 7.8751 z"
       style="font-style:normal;font-variant:normal;font-weight:normal;font-stretch:normal;font-size:medium;line-height:59.06324768px;font-family:AmarilloUSAF;-inkscape-font-specification:AmarilloUSAF;letter-spacing:1.42999995px;word-spacing:0px;fill:#000000;fill-opacity:1;stroke:none;stroke-width:1px;stroke-linecap:butt;stroke-linejoin:miter;stroke-opacity:1"
       id="path4298"
       inkscape:connector-curvature="0" />
    <path
       d="m 298.51987,474.14063 h -8.66261 l -7.08759,-14.66764 -7.08759,14.66764 h -8.66261 l 11.41889,-23.75852 -10.63138,-22.07786 h 8.66261 l 6.30008,13.06337 6.30008,-13.06337 h 8.66261 l -10.63139,22.07786 z"
       style="font-style:normal;font-variant:normal;font-weight:normal;font-stretch:normal;font-size:medium;line-height:59.06324768px;font-family:AmarilloUSAF;-inkscape-font-specification:AmarilloUSAF;letter-spacing:1.42999995px;word-spacing:0px;fill:#000000;fill-opacity:1;stroke:none;stroke-width:1px;stroke-linecap:butt;stroke-linejoin:miter;stroke-opacity:1"
       id="path4300"
       inkscape:connector-curvature="0" />
  </g>
  <g
     id="g4323"
     transform="translate(-5.9785156,23.886719)">
    <path
       id="path4319"
       d="m 257.64844,82.742188 2.23828,28.919922 c -2.18068,34.18019 -6.37268,61.96278 -17.87305,90.26367 -6.3977,15.74389 -12.74582,28.21775 -18.45508,39 C 203.36333,193.34529 182.5124,157.31082 140.53125,119.0332 l -5.82422,10.67188 c 23.35704,24.74201 57.73263,61.42862 80.11524,127.7539 -8.90529,17.28917 -14.37584,31.38435 -12.33594,51.68164 0.0345,0.87428 0.0903,1.73581 0.15625,2.5918 -19.12773,-20.23969 -37.23246,-33.23454 -52.25586,-43.06445 -8.63222,-5.64812 -15.99587,-11.03981 -21.77734,-15.1875 l -9.0586,9.44531 c 10.81005,6.64626 21.99791,15.1839 34.04688,23.53711 24.85216,17.2293 47.15723,40.03016 62.99414,64.58203 2.67635,4.74716 5.62098,9.6802 8.73632,14.97656 l 17.52344,-0.98242 C 237.4124,356.10638 231.94158,347.96595 226.48633,340.5 c -5.11637,-9.86413 -9.74399,-21.92806 -10.92578,-34.72852 -2.94569,-31.90601 32.46974,-76.7349 41.62695,-103.73242 9.15721,-26.99752 15.45995,-57.60917 14.60156,-90.03711 z"
       style="fill:#000000;fill-opacity:1;fill-rule:evenodd;stroke:none;stroke-width:1px;stroke-linecap:butt;stroke-linejoin:miter;stroke-opacity:1"
       inkscape:connector-curvature="0" />
    <g
       style="fill:#000000;fill-opacity:1"
       transform="rotate(-54.429192,245.39437,334.14506)"
       id="g4346">
      <path
         style="opacity:1;fill:#000000;fill-opacity:1;stroke:none;stroke-width:3.02399993;stroke-linecap:round;stroke-linejoin:round;stroke-miterlimit:4;stroke-dasharray:none;stroke-dashoffset:0;stroke-opacity:1"
         d="m 277.62085,334.14505 c 0,0 -9.67829,19.91706 -32.22648,19.91706 -22.54819,0 -32.22648,-19.91706 -32.22648,-19.91706 0,0 10.17829,-19.91705 32.22648,-19.91705 22.04819,0 32.22648,19.91705 32.22648,19.91705 z"
         id="path4337"
         inkscape:connector-curvature="0"
         sodipodi:nodetypes="czczc" />
      <path
         sodipodi:nodetypes="czczc"
         inkscape:connector-curvature="0"
         id="path4342"
         d="m 261.37219,334.14506 c 0,0 -5.40351,7.40476 -15.97781,7.40476 -10.5743,0 -15.97781,-7.40476 -15.97781,-7.40476 0,0 5.2046,-7.40475 15.97781,-7.40475 10.77321,0 15.97781,7.40475 15.97781,7.40475 z"
         style="opacity:1;fill:#f8e7c1;fill-opacity:1;stroke:none;stroke-width:3.02400017;stroke-linecap:round;stroke-linejoin:round;stroke-miterlimit:4;stroke-dasharray:none;stroke-dashoffset:0;stroke-opacity:1" />
    </g>
    <g
       style="fill:#000000;fill-opacity:1"
       transform="rotate(-15.265134,157.18969,604.68425)"
       id="g4352">
      <path
         sodipodi:nodetypes="czczc"
         inkscape:connector-curvature="0"
         id="path4348"
         d="m 277.62085,334.14505 c 0,0 -9.67829,19.91706 -32.22648,19.91706 -22.54819,0 -32.22648,-19.91706 -32.22648,-19.91706 0,0 10.17829,-19.91705 32.22648,-19.91705 22.04819,0 32.22648,19.91705 32.22648,19.91705 z"
         style="opacity:1;fill:#000000;fill-opacity:1;stroke:none;stroke-width:3.02399993;stroke-linecap:round;stroke-linejoin:round;stroke-miterlimit:4;stroke-dasharray:none;stroke-dashoffset:0;stroke-opacity:1" />
      <path
         style="opacity:1;fill:#f8e7c1;fill-opacity:1;stroke:none;stroke-width:3.02400017;stroke-linecap:round;stroke-linejoin:round;stroke-miterlimit:4;stroke-dasharray:none;stroke-dashoffset:0;stroke-opacity:1"
         d="m 261.37219,334.14506 c 0,0 -5.40351,7.40476 -15.97781,7.40476 -10.5743,0 -15.97781,-7.40476 -15.97781,-7.40476 0,0 5.2046,-7.40475 15.97781,-7.40475 10.77321,0 15.97781,7.40475 15.97781,7.40475 z"
         id="path4350"
         inkscape:connector-curvature="0"
         sodipodi:nodetypes="czczc" />
    </g>
    <g
       style="fill:#000000;fill-opacity:1"
       id="g4358"
       transform="rotate(30.803776,338.10836,27.080399)">
      <path
         style="opacity:1;fill:#000000;fill-opacity:1;stroke:none;stroke-width:3.02399993;stroke-linecap:round;stroke-linejoin:round;stroke-miterlimit:4;stroke-dasharray:none;stroke-dashoffset:0;stroke-opacity:1"
         d="m 277.62085,334.14505 c 0,0 -9.67829,19.91706 -32.22648,19.91706 -22.54819,0 -32.22648,-19.91706 -32.22648,-19.91706 0,0 10.17829,-19.91705 32.22648,-19.91705 22.04819,0 32.22648,19.91705 32.22648,19.91705 z"
         id="path4354"
         inkscape:connector-curvature="0"
         sodipodi:nodetypes="czczc" />
      <path
         sodipodi:nodetypes="czczc"
         inkscape:connector-curvature="0"
         id="path4356"
         d="m 261.37219,334.14506 c 0,0 -5.40351,7.40476 -15.97781,7.40476 -10.5743,0 -15.97781,-7.40476 -15.97781,-7.40476 0,0 5.2046,-7.40475 15.97781,-7.40475 10.77321,0 15.97781,7.40475 15.97781,7.40475 z"
         style="opacity:1;fill:#f8e7c1;fill-opacity:1;stroke:none;stroke-width:3.02400017;stroke-linecap:round;stroke-linejoin:round;stroke-miterlimit:4;stroke-dasharray:none;stroke-dashoffset:0;stroke-opacity:1" />
    </g>
    <g
       style="fill:#000000;fill-opacity:1"
       transform="rotate(-23.299588,35.823561,289.18432)"
       id="g4364">
      <path
         sodipodi:nodetypes="czczc"
         inkscape:connector-curvature="0"
         id="path4360"
         d="m 277.62085,334.14505 c 0,0 -9.67829,19.91706 -32.22648,19.91706 -22.54819,0 -32.22648,-19.91706 -32.22648,-19.91706 0,0 10.17829,-19.91705 32.22648,-19.91705 22.04819,0 32.22648,19.91705 32.22648,19.91705 z"
         style="opacity:1;fill:#000000;fill-opacity:1;stroke:none;stroke-width:3.02399993;stroke-linecap:round;stroke-linejoin:round;stroke-miterlimit:4;stroke-dasharray:none;stroke-dashoffset:0;stroke-opacity:1" />
      <path
         style="opacity:1;fill:#f8e7c1;fill-opacity:1;stroke:none;stroke-width:3.02400017;stroke-linecap:round;stroke-linejoin:round;stroke-miterlimit:4;stroke-dasharray:none;stroke-dashoffset:0;stroke-opacity:1"
         d="m 261.37219,334.14506 c 0,0 -5.40351,7.40476 -15.97781,7.40476 -10.5743,0 -15.97781,-7.40476 -15.97781,-7.40476 0,0 5.2046,-7.40475 15.97781,-7.40475 10.77321,0 15.97781,7.40475 15.97781,7.40475 z"
         id="path4362"
         inkscape:connector-curvature="0"
         sodipodi:nodetypes="czczc" />
    </g>
    <g
       style="fill:#000000;fill-opacity:1"
       id="g4370"
       transform="rotate(9.7191341,989.23782,-157.76397)">
      <path
         style="opacity:1;fill:#000000;fill-opacity:1;stroke:none;stroke-width:3.02399993;stroke-linecap:round;stroke-linejoin:round;stroke-miterlimit:4;stroke-dasharray:none;stroke-dashoffset:0;stroke-opacity:1"
         d="m 277.62085,334.14505 c 0,0 -9.67829,19.91706 -32.22648,19.91706 -22.54819,0 -32.22648,-19.91706 -32.22648,-19.91706 0,0 10.17829,-19.91705 32.22648,-19.91705 22.04819,0 32.22648,19.91705 32.22648,19.91705 z"
         id="path4366"
         inkscape:connector-curvature="0"
         sodipodi:nodetypes="czczc" />
      <path
         sodipodi:nodetypes="czczc"
         inkscape:connector-curvature="0"
         id="path4368"
         d="m 261.37219,334.14506 c 0,0 -5.40351,7.40476 -15.97781,7.40476 -10.5743,0 -15.97781,-7.40476 -15.97781,-7.40476 0,0 5.2046,-7.40475 15.97781,-7.40475 10.77321,0 15.97781,7.40475 15.97781,7.40475 z"
         style="opacity:1;fill:#f8e7c1;fill-opacity:1;stroke:none;stroke-width:3.02400017;stroke-linecap:round;stroke-linejoin:round;stroke-miterlimit:4;stroke-dasharray:none;stroke-dashoffset:0;stroke-opacity:1" />
    </g>
    <g
       style="fill:#000000;fill-opacity:1"
       transform="rotate(49.413308,417.56089,240.80265)"
       id="g4376">
      <path
         sodipodi:nodetypes="czczc"
         inkscape:connector-curvature="0"
         id="path4372"
         d="m 277.62085,334.14505 c 0,0 -9.67829,19.91706 -32.22648,19.91706 -22.54819,0 -32.22648,-19.91706 -32.22648,-19.91706 0,0 10.17829,-19.91705 32.22648,-19.91705 22.04819,0 32.22648,19.91705 32.22648,19.91705 z"
         style="opacity:1;fill:#000000;fill-opacity:1;stroke:none;stroke-width:3.02399993;stroke-linecap:round;stroke-linejoin:round;stroke-miterlimit:4;stroke-dasharray:none;stroke-dashoffset:0;stroke-opacity:1" />
      <path
         style="opacity:1;fill:#f8e7c1;fill-opacity:1;stroke:none;stroke-width:3.02400017;stroke-linecap:round;stroke-linejoin:round;stroke-miterlimit:4;stroke-dasharray:none;stroke-dashoffset:0;stroke-opacity:1"
         d="m 261.37219,334.14506 c 0,0 -5.40351,7.40476 -15.97781,7.40476 -10.5743,0 -15.97781,-7.40476 -15.97781,-7.40476 0,0 5.2046,-7.40475 15.97781,-7.40475 10.77321,0 15.97781,7.40475 15.97781,7.40475 z"
         id="path4374"
         inkscape:connector-curvature="0"
         sodipodi:nodetypes="czczc" />
    </g>
    <g
       style="fill:#000000;fill-opacity:1"
       id="g4382"
       transform="rotate(-42.166986,15.26097,191.20394)">
      <path
         style="opacity:1;fill:#000000;fill-opacity:1;stroke:none;stroke-width:3.02399993;stroke-linecap:round;stroke-linejoin:round;stroke-miterlimit:4;stroke-dasharray:none;stroke-dashoffset:0;stroke-opacity:1"
         d="m 277.62085,334.14505 c 0,0 -9.67829,19.91706 -32.22648,19.91706 -22.54819,0 -32.22648,-19.91706 -32.22648,-19.91706 0,0 10.17829,-19.91705 32.22648,-19.91705 22.04819,0 32.22648,19.91705 32.22648,19.91705 z"
         id="path4378"
         inkscape:connector-curvature="0"
         sodipodi:nodetypes="czczc" />
      <path
         sodipodi:nodetypes="czczc"
         inkscape:connector-curvature="0"
         id="path4380"
         d="m 261.37219,334.14506 c 0,0 -5.40351,7.40476 -15.97781,7.40476 -10.5743,0 -15.97781,-7.40476 -15.97781,-7.40476 0,0 5.2046,-7.40475 15.97781,-7.40475 10.77321,0 15.97781,7.40475 15.97781,7.40475 z"
         style="opacity:1;fill:#f8e7c1;fill-opacity:1;stroke:none;stroke-width:3.02400017;stroke-linecap:round;stroke-linejoin:round;stroke-miterlimit:4;stroke-dasharray:none;stroke-dashoffset:0;stroke-opacity:1" />
    </g>
    <g
       style="fill:#000000;fill-opacity:1"
       transform="rotate(-87.396931,106.84052,270.35893)"
       id="g4388">
      <path
         sodipodi:nodetypes="czczc"
         inkscape:connector-curvature="0"
         id="path4384"
         d="m 277.62085,334.14505 c 0,0 -9.67829,19.91706 -32.22648,19.91706 -22.54819,0 -32.22648,-19.91706 -32.22648,-19.91706 0,0 10.17829,-19.91705 32.22648,-19.91705 22.04819,0 32.22648,19.91705 32.22648,19.91705 z"
         style="opacity:1;fill:#000000;fill-opacity:1;stroke:none;stroke-width:3.02399993;stroke-linecap:round;stroke-linejoin:round;stroke-miterlimit:4;stroke-dasharray:none;stroke-dashoffset:0;stroke-opacity:1" />
      <path
         style="opacity:1;fill:#f8e7c1;fill-opacity:1;stroke:none;stroke-width:3.02400017;stroke-linecap:round;stroke-linejoin:round;stroke-miterlimit:4;stroke-dasharray:none;stroke-dashoffset:0;stroke-opacity:1"
         d="m 261.37219,334.14506 c 0,0 -5.40351,7.40476 -15.97781,7.40476 -10.5743,0 -15.97781,-7.40476 -15.97781,-7.40476 0,0 5.2046,-7.40475 15.97781,-7.40475 10.77321,0 15.97781,7.40475 15.97781,7.40475 z"
         id="path4386"
         inkscape:connector-curvature="0"
         sodipodi:nodetypes="czczc" />
    </g>
    <g
       style="fill:#000000;fill-opacity:1"
       id="g4394"
       transform="rotate(-111.27364,167.34528,205.07752)">
      <path
         style="opacity:1;fill:#000000;fill-opacity:1;stroke:none;stroke-width:3.02399993;stroke-linecap:round;stroke-linejoin:round;stroke-miterlimit:4;stroke-dasharray:none;stroke-dashoffset:0;stroke-opacity:1"
         d="m 277.62085,334.14505 c 0,0 -9.67829,19.91706 -32.22648,19.91706 -22.54819,0 -32.22648,-19.91706 -32.22648,-19.91706 0,0 10.17829,-19.91705 32.22648,-19.91705 22.04819,0 32.22648,19.91705 32.22648,19.91705 z"
         id="path4390"
         inkscape:connector-curvature="0"
         sodipodi:nodetypes="czczc" />
      <path
         sodipodi:nodetypes="czczc"
         inkscape:connector-curvature="0"
         id="path4392"
         d="m 261.37219,334.14506 c 0,0 -5.40351,7.40476 -15.97781,7.40476 -10.5743,0 -15.97781,-7.40476 -15.97781,-7.40476 0,0 5.2046,-7.40475 15.97781,-7.40475 10.77321,0 15.97781,7.40475 15.97781,7.40475 z"
         style="opacity:1;fill:#f8e7c1;fill-opacity:1;stroke:none;stroke-width:3.02400017;stroke-linecap:round;stroke-linejoin:round;stroke-miterlimit:4;stroke-dasharray:none;stroke-dashoffset:0;stroke-opacity:1" />
    </g>
    <g
       style="fill:#000000;fill-opacity:1"
       transform="rotate(30.313255,593.12859,-17.520566)"
       id="g4400">
      <path
         sodipodi:nodetypes="czczc"
         inkscape:connector-curvature="0"
         id="path4396"
         d="m 277.62085,334.14505 c 0,0 -9.67829,19.91706 -32.22648,19.91706 -22.54819,0 -32.22648,-19.91706 -32.22648,-19.91706 0,0 10.17829,-19.91705 32.22648,-19.91705 22.04819,0 32.22648,19.91705 32.22648,19.91705 z"
         style="opacity:1;fill:#000000;fill-opacity:1;stroke:none;stroke-width:3.02399993;stroke-linecap:round;stroke-linejoin:round;stroke-miterlimit:4;stroke-dasharray:none;stroke-dashoffset:0;stroke-opacity:1" />
      <path
         style="opacity:1;fill:#f8e7c1;fill-opacity:1;stroke:none;stroke-width:3.02400017;stroke-linecap:round;stroke-linejoin:round;stroke-miterlimit:4;stroke-dasharray:none;stroke-dashoffset:0;stroke-opacity:1"
         d="m 261.37219,334.14506 c 0,0 -5.40351,7.40476 -15.97781,7.40476 -10.5743,0 -15.97781,-7.40476 -15.97781,-7.40476 0,0 5.2046,-7.40475 15.97781,-7.40475 10.77321,0 15.97781,7.40475 15.97781,7.40475 z"
         id="path4398"
         inkscape:connector-curvature="0"
         sodipodi:nodetypes="czczc" />
    </g>
    <g
       style="fill:#000000;fill-opacity:1"
       transform="rotate(83.832594,246.04938,258.92214)"
       id="g4406">
      <path
         sodipodi:nodetypes="czczc"
         inkscape:connector-curvature="0"
         id="path4402"
         d="m 277.62085,334.14505 c 0,0 -9.67829,19.91706 -32.22648,19.91706 -22.54819,0 -32.22648,-19.91706 -32.22648,-19.91706 0,0 10.17829,-19.91705 32.22648,-19.91705 22.04819,0 32.22648,19.91705 32.22648,19.91705 z"
         style="opacity:1;fill:#000000;fill-opacity:1;stroke:none;stroke-width:3.02399993;stroke-linecap:round;stroke-linejoin:round;stroke-miterlimit:4;stroke-dasharray:none;stroke-dashoffset:0;stroke-opacity:1" />
      <path
         style="opacity:1;fill:#f8e7c1;fill-opacity:1;stroke:none;stroke-width:3.02400017;stroke-linecap:round;stroke-linejoin:round;stroke-miterlimit:4;stroke-dasharray:none;stroke-dashoffset:0;stroke-opacity:1"
         d="m 261.37219,334.14506 c 0,0 -5.40351,7.40476 -15.97781,7.40476 -10.5743,0 -15.97781,-7.40476 -15.97781,-7.40476 0,0 5.2046,-7.40475 15.97781,-7.40475 10.77321,0 15.97781,7.40475 15.97781,7.40475 z"
         id="path4404"
         inkscape:connector-curvature="0"
         sodipodi:nodetypes="czczc" />
    </g>
  </g>
</svg>
