<?xml version="1.0" encoding="UTF-8" standalone="no"?>
<!-- Creator: CorelDRAW X7 -->

<svg
   xmlns:dc="http://purl.org/dc/elements/1.1/"
   xmlns:cc="http://creativecommons.org/ns#"
   xmlns:rdf="http://www.w3.org/1999/02/22-rdf-syntax-ns#"
   xmlns:svg="http://www.w3.org/2000/svg"
   xmlns="http://www.w3.org/2000/svg"
   xmlns:sodipodi="http://sodipodi.sourceforge.net/DTD/sodipodi-0.dtd"
   xmlns:inkscape="http://www.inkscape.org/namespaces/inkscape"
   xml:space="preserve"
   width="200mm"
   height="270.25mm"
   version="1.1"
   style="shape-rendering:geometricPrecision; text-rendering:geometricPrecision; image-rendering:optimizeQuality; fill-rule:evenodd; clip-rule:evenodd"
   viewBox="0 0 17158 23185"
   id="svg2"
   inkscape:version="0.91pre2 r"
   sodipodi:docname="interitus.svg"><metadata
     id="metadata20"><rdf:RDF><cc:Work
         rdf:about=""><dc:format>image/svg+xml</dc:format><dc:type
           rdf:resource="http://purl.org/dc/dcmitype/StillImage" /></cc:Work></rdf:RDF></metadata><sodipodi:namedview
     pagecolor="#ffffff"
     bordercolor="#666666"
     borderopacity="1"
     objecttolerance="10"
     gridtolerance="10"
     guidetolerance="10"
     inkscape:pageopacity="0"
     inkscape:pageshadow="2"
     inkscape:window-width="1920"
     inkscape:window-height="1054"
     id="namedview18"
     showgrid="false"
     inkscape:zoom="0.49290986"
     inkscape:cx="408.369"
     inkscape:cy="347.13181"
     inkscape:window-x="1920"
     inkscape:window-y="0"
     inkscape:window-maximized="1"
     inkscape:current-layer="svg2" /><defs
     id="defs4"><style
       type="text/css"
       id="style6"><![CDATA[
    .fil0 {fill:#241F1F}
    .fil1 {fill:#B0B7BB}
    .fil2 {fill:black;fill-rule:nonzero}
   ]]></style></defs><g
     id="Layer_x0020_1"
     inkscape:export-filename="interitus.png"
     inkscape:export-xdpi="93.981026"
     inkscape:export-ydpi="93.981026"><metadata
       id="CorelCorpID_0Corel-Layer" /><path
       class="fil0"
       d="M987 19046l15185 0c0,-5561 0,-7968 0,-13529l-7593 -4378 -7592 4378c0,5561 0,7968 0,13529z"
       id="path10" /><path
       class="fil1"
       d="M0 23185c0,-6079 0,-12158 0,-18238l8579 -4947 8579 4947c0,6080 0,12159 0,18238l-17158 0zm987 -4139l15185 0c0,-5561 0,-7968 0,-13529l-7593 -4378 -7592 4378c0,5561 0,7968 0,13529z"
       id="path12" /><path
       class="fil1"
       d="M5191 10552l2884 0 -1102 -1521 -71 0 -1711 0 0 1521zm6801 0l-2884 0 1103 -1521 71 0 1710 0 0 1521zm-3140 6481l0 -3266 1437 0 0 2438 -1437 828zm-260 794l32 19 0 -37 4057 -2339 -15 -26 15 0 0 -1677 0 -164 1212 -699 0 0 0 0 0 -6100 0 -1 0 0 -5292 -3051 -9 -5 -9 5 -5292 3051 -1 0 0 1 0 6100 0 0 0 0 1213 699 0 164 0 1677 15 0 -15 26 4057 2339 32 18zm0 -13437l303 175 829 478 0 3431 0 279 -1132 1561 -1132 -1561 0 -279 0 -3431 829 -478 303 -175zm0 6958l1347 1861c-898,0 -1796,0 -2695,0l1348 -1861zm2255 4535l0 -2116 1276 0 0 1380 -1276 736zm1401 -2674l-1620 0 -1520 -2099 3017 0 1110 1530 -987 569zm-1966 -7844l2948 1699 -1022 1410 -1926 0 0 -3109zm2268 5380l786 1085 0 -3962 -786 1084 0 1793zm-4219 6288l0 -3266 -1437 0 0 2438 1437 828zm-1994 -1150l0 -2116 -1276 0 0 1380 1276 736zm-1401 -2674l1620 0 1520 -2099 -3018 0 -1109 1530 987 569zm1966 -7844l-2948 1699 1022 1410 1926 0 0 -3109zm-2268 5380l-786 1085 0 -3962 786 1084 0 1793z"
       id="path14" /><path
       class="fil2"
       d="M1594 22031l0 -2084 347 0 0 2084 -347 0zm1903 0l-694 -1329 0 1329 -347 0 0 -2084 347 0 694 1331 0 -1331 347 0 0 2084 -347 0zm1592 -1736l0 1736 -347 0 0 -1736 -521 0 0 -348 1389 0 0 348 -521 0zm1246 0l0 520 520 0 0 348 -520 0 0 520 1040 0 0 348 -1388 0 0 -2084 1388 0 0 348 -1040 0zm2563 142l-143 -142 -551 0 0 520 551 0 143 -142 0 -236zm-31 1594l-367 -868 -296 0 0 868 -347 0 0 -2084 1041 0 347 348 0 520 -361 348 361 868 -378 0zm860 0l0 -2084 347 0 0 2084 -347 0zm1695 -1736l0 1736 -348 0 0 -1736 -520 0 0 -348 1388 0 0 348 -520 0zm2008 1736l-693 0 -348 -348 0 -1736 348 0 0 1594 142 142 408 0 143 -142 0 -1594 347 0 0 1736 -347 348zm1800 0l-693 0 -348 -348 0 -173 348 0 0 31 142 142 409 0 142 -142 0 -236 -142 -142 -551 0 -348 -348 0 -520 348 -348 693 0 348 348 0 173 -348 0 0 -31 -142 -142 -409 0 -142 142 0 236 142 142 551 0 348 348 0 520 -348 348z"
       id="path16" /></g></svg>