<?xml version="1.0" encoding="UTF-8"?>
<!DOCTYPE svg PUBLIC "-//W3C//DTD SVG 1.1//EN" "http://www.w3.org/Graphics/SVG/1.1/DTD/svg11.dtd">
<svg version="1.1" xmlns="http://www.w3.org/2000/svg" xmlns:xlink="http://www.w3.org/1999/xlink" x="0" y="0" width="720" height="960" viewBox="0, 0, 720, 960">
  <g id="Layer_1">
    <g>
      <g>
        <path d="M105,618.236 L105,95.833 L335.722,95.833 L296.669,127.833 L136.75,127.833 L136.75,603.855 L360,811.949 L583.25,603.855 L583.25,127.833 L423.33,127.833 L384.278,95.833 L615.001,95.833 L615.001,618.236 L360,855.926 z" fill="#000000"/>
        <path d="M613.501,97.333 L613.501,617.583 L360,853.875 L106.5,617.584 L106.5,97.333 L331.525,97.333 L296.134,126.333 L135.25,126.333 L135.25,604.507 L360,814 L584.75,604.508 L584.75,126.333 L423.866,126.333 L388.475,97.333 L613.501,97.333 M616.501,94.333 L613.501,94.333 L388.476,94.333 L380.081,94.333 L386.574,99.653 L421.965,128.653 L422.794,129.333 L423.866,129.333 L581.75,129.333 L581.75,603.203 L360,809.898 L138.25,603.203 L138.25,129.333 L296.133,129.333 L297.205,129.333 L298.034,128.653 L333.425,99.653 L339.918,94.333 L331.523,94.333 L106.5,94.333 L103.5,94.333 L103.5,97.333 L103.5,617.583 L103.5,618.888 L104.455,619.778 L357.955,856.069 L360,857.976 L362.046,856.069 L615.547,619.778 L616.501,618.888 L616.501,617.583 L616.501,97.333 L616.501,94.333 L616.501,94.333 z" fill="#FFFFFF"/>
      </g>
      <g>
        <path d="M332.25,729.293 L332.25,668.5 L307.355,668.5 L307.355,706.088 L219.053,623.78 L219.053,523.25 L304,523.25 L304,568 L268,568 L268,593.5 L332.25,593.5 L332.25,427 L307.25,427 L307.25,395.5 L332.25,395.5 L332.25,375.833 L307.5,375.833 L307.5,362.203 L170.166,258.413 L170.166,165.5 L314.049,165.5 L360,129.256 L405.951,165.5 L549.834,165.5 L549.834,258.413 L412.5,362.203 L412.5,375.833 L387.75,375.833 L387.75,395.5 L412.75,395.5 L412.75,427 L387.75,427 L387.75,729.293 L360,755.159 L332.25,729.293 z M313.066,314.359 L360.001,301.108 L406.935,314.359 L508.078,237.92 L508.078,207.5 L406.556,207.5 L360,256.318 L313.445,207.5 L211.923,207.5 L211.923,237.92 L313.066,314.359 z M360,217.702 L388.777,187.526 L360,164.827 L331.223,187.525 L360,217.702 z" fill="#000000"/>
        <path d="M360,131.167 L405.431,167 L548.334,167 L548.334,257.667 L411,361.457 L411,374.334 L386.25,374.334 L386.25,397 L411.25,397 L411.25,425.5 L386.25,425.5 L386.25,728.641 L360,753.108 L333.75,728.64 L333.75,667 L305.855,667 L305.855,702.64 L220.553,623.128 L220.553,524.75 L302.5,524.75 L302.5,566.5 L266.5,566.5 L266.5,595 L333.75,595 L333.75,425.5 L308.75,425.5 L308.75,397 L333.75,397 L333.75,374.333 L309,374.333 L309,361.456 L171.666,257.666 L171.666,167 L314.569,167 L360,131.167 M360,219.875 L391,187.368 L360,162.916 L329,187.368 L360,219.875 M360,254.145 L314.087,206 L210.423,206 L210.423,238.667 L312.756,316.005 L360.001,302.667 L407.244,316.005 L509.577,238.667 L509.577,206 L405.913,206 L360,254.145 M360,127.346 L358.142,128.811 L313.528,164 L171.666,164 L168.666,164 L168.666,167 L168.666,257.667 L168.666,259.16 L169.857,260.06 L306,362.95 L306,374.334 L306,377.334 L309,377.334 L330.75,377.334 L330.75,394 L308.75,394 L305.75,394 L305.75,397 L305.75,425.5 L305.75,428.5 L308.75,428.5 L330.75,428.5 L330.75,592 L269.5,592 L269.5,569.5 L302.5,569.5 L305.5,569.5 L305.5,566.5 L305.5,524.75 L305.5,521.75 L302.5,521.75 L220.553,521.75 L217.553,521.75 L217.553,524.75 L217.553,623.128 L217.553,624.433 L218.508,625.323 L303.81,704.835 L308.855,709.538 L308.855,702.641 L308.855,670 L330.75,670 L330.75,728.641 L330.75,729.946 L331.705,730.836 L357.955,755.304 L360,757.21 L362.046,755.303 L388.296,730.835 L389.25,729.945 L389.25,728.64 L389.25,428.5 L411.25,428.5 L414.25,428.5 L414.25,425.5 L414.25,397 L414.25,394 L411.25,394 L389.25,394 L389.25,377.333 L411,377.333 L414,377.333 L414,374.333 L414,362.95 L550.143,260.06 L551.334,259.16 L551.334,257.667 L551.334,167 L551.334,164 L548.334,164 L406.472,164 L361.858,128.811 L360,127.346 L360,127.346 z M333.445,187.683 L360,166.737 L386.555,187.682 L360,215.528 L333.445,187.683 L333.445,187.683 z M407.197,209 L506.577,209 L506.577,237.174 L406.625,312.713 L360.816,299.78 L360.001,299.55 L359.186,299.78 L313.376,312.714 L213.423,237.174 L213.423,209 L312.802,209 L357.828,256.215 L359.999,258.492 L362.17,256.215 L407.197,209 L407.197,209 z" fill="#FFFFFF"/>
      </g>
    </g>
  </g>
</svg>
