<?xml version="1.0" encoding="UTF-8" standalone="no"?>
<!-- Created with Inkscape (http://www.inkscape.org/) -->

<svg
   xmlns:dc="http://purl.org/dc/elements/1.1/"
   xmlns:cc="http://creativecommons.org/ns#"
   xmlns:rdf="http://www.w3.org/1999/02/22-rdf-syntax-ns#"
   xmlns:svg="http://www.w3.org/2000/svg"
   xmlns="http://www.w3.org/2000/svg"
   xmlns:sodipodi="http://sodipodi.sourceforge.net/DTD/sodipodi-0.dtd"
   xmlns:inkscape="http://www.inkscape.org/namespaces/inkscape"
   width="365.91068"
   height="490.17551"
   id="svg2"
   version="1.1"
   inkscape:version="0.91+devel r"
   sodipodi:docname="shonin.svg"
   inkscape:export-filename="/home/ra100/Downloads/sources/ingress-logos/helios/helios.png"
   inkscape:export-xdpi="377.28482"
   inkscape:export-ydpi="377.28482"
   viewBox="0 0 365.91068 490.17551">
  <defs
     id="defs4" />
  <sodipodi:namedview
     id="base"
     pagecolor="#ffffff"
     bordercolor="#666666"
     borderopacity="1.0"
     inkscape:pageopacity="0.0"
     inkscape:pageshadow="2"
     inkscape:zoom="0.70710678"
     inkscape:cx="499.01819"
     inkscape:cy="115.64833"
     inkscape:document-units="px"
     inkscape:current-layer="layer1"
     showgrid="false"
     inkscape:window-width="1887"
     inkscape:window-height="1054"
     inkscape:window-x="33"
     inkscape:window-y="0"
     inkscape:window-maximized="1"
     inkscape:snap-bbox="true"
     inkscape:bbox-paths="true"
     inkscape:bbox-nodes="false"
     inkscape:snap-bbox-edge-midpoints="false"
     inkscape:snap-global="false"
     fit-margin-top="0"
     fit-margin-left="0"
     fit-margin-right="0"
     fit-margin-bottom="0" />
  <metadata
     id="metadata7">
    <rdf:RDF>
      <cc:Work
         rdf:about="">
        <dc:format>image/svg+xml</dc:format>
        <dc:type
           rdf:resource="http://purl.org/dc/dcmitype/StillImage" />
        <dc:title></dc:title>
      </cc:Work>
    </rdf:RDF>
  </metadata>
  <g
     inkscape:label="Layer 1"
     inkscape:groupmode="layer"
     id="layer1"
     transform="translate(-63.654919,-275.33918)">
    <g
       transform="matrix(1.75878,0,0,1.75878,-267.96305,-102.10028)"
       id="shonin_copy"
       inkscape:export-filename="shonin.png"
       inkscape:export-xdpi="200.44237"
       inkscape:export-ydpi="200.44237">
      <g
         id="g22">
        <g
           id="g24">
          <polygon
             points="340.849,422.356 376.147,422.356 376.147,490.806 209.001,490.806 209.001,422.356 244.279,422.356 191.054,391.667 191.334,275.385 292.861,217.485 394.094,275.864 393.824,392.142 "
             id="polygon26"
             style="fill:#010101" />
          <path
             d="m 292.854,220.367 98.736,56.939 -0.264,113.381 -59.908,34.169 42.229,0 0,63.449 -162.146,0 0,-63.449 42.118,0 -60.063,-34.632 0.273,-113.386 99.025,-56.471 m 0.014,-5.764 -2.491,1.42 -99.024,56.472 -2.516,1.435 -0.007,2.896 -0.273,113.386 -0.007,2.897 2.509,1.447 43.879,25.3 -23.437,0 -5,0 0,5 0,63.449 0,5 5,0 162.146,0 5,0 0,-5 0,-63.449 0,-5 -5,0 -23.37,0 43.527,-24.826 2.516,-1.435 0.007,-2.896 0.264,-113.381 0.007,-2.896 -2.509,-1.447 -98.736,-56.939 -2.485,-1.433 0,0 z"
             id="path28"
             inkscape:connector-curvature="0"
             style="fill:#ffffff" />
        </g>
        <polygon
           points="373.649,426.231 331.421,426.231 391.329,392.063 391.593,278.681 292.856,221.742 193.833,278.214 193.559,391.6 253.622,426.231 211.503,426.231 211.503,489.681 373.649,489.681 "
           id="polygon30"
           style="fill:#010101" />
        <path
           d="m 260.436,322.634 c -14.931,8.667 -33.387,22.705 -46.045,43.735 l -0.027,11.993 33.298,19.202 c -3.532,-34.304 7.779,-63.864 12.774,-74.93 z m 43.266,-21.012 c -7.814,-13.461 -19.989,-29.778 -37.71,-42.136 l -51.412,29.318 -0.007,2.361 c 40.132,-9.032 76.547,4.778 89.129,10.457 z m -45.056,102.276 33.718,19.439 17.23,-9.826 c -29.25,-22.007 -43.13,-52.999 -47.62,-64.87 -3.917,14.761 -6.807,34.435 -3.328,55.257 z M 277.719,303.17 c -16.614,-4.409 -39.466,-7.526 -63.172,-1.709 l -0.113,47.268 c 21.9,-27.847 51.717,-41.188 63.285,-45.559 z m 14.852,15.234 c -8.482,0 -15.359,6.88 -15.359,15.362 0,8.484 6.877,15.358 15.359,15.358 8.488,0 15.363,-6.874 15.363,-15.358 10e-4,-8.482 -6.874,-15.362 -15.363,-15.362 z m -11.136,47.508 c 7.818,13.461 19.998,29.788 37.732,42.141 l 51.408,-29.318 0.004,-2.367 c -9.438,2.123 -18.672,2.988 -27.438,2.988 -28.521,-10e-4 -52.089,-9.1 -61.706,-13.444 z m 26.003,-1.541 c 16.619,4.406 39.461,7.519 63.168,1.705 l 0.111,-47.265 c -21.886,27.835 -51.687,41.177 -63.279,45.56 z m 30.049,-94.4 c 3.531,34.308 -7.771,63.861 -12.766,74.931 14.932,-8.668 33.383,-22.707 46.035,-43.738 l 0.031,-11.992 -33.3,-19.201 z m -14.312,48.954 c 3.918,-14.765 6.809,-34.451 3.324,-55.29 l -33.703,-19.434 -17.238,9.83 c 29.255,22.022 43.136,53.032 47.617,64.894 z m -89.479,123.563 -4.565,4.563 0,6.881 4.565,4.566 7.749,0 2.296,2.297 0,3.742 -2.296,2.309 -6.18,0 -2.302,-2.307 0,-0.133 -3.833,0 0,1.701 4.565,4.563 9.313,0 4.564,-4.563 0,-6.875 -4.564,-4.566 -7.744,0 -2.302,-2.305 0,-3.74 2.302,-2.305 6.18,0 2.296,2.305 0,0.131 3.833,0 0,-1.701 -4.564,-4.563 -9.313,0 z m 48.716,9.234 -4.566,4.566 0,9.82 4.566,4.563 9.121,0 4.758,-4.566 0,-9.816 -4.568,-4.566 -9.311,0 z m 10.046,12.816 -2.301,2.309 -6.18,0 -2.299,-2.309 0,-6.678 2.299,-2.307 6.18,0 2.301,2.307 0,6.678 z m 35.373,6.133 3.832,0 0,-28.183 -3.832,0 0,28.183 z m -59.727,-16.004 -10.785,0 0,-12.179 -3.831,0 0,28.183 3.831,0 0,-12.172 10.785,0 0,12.172 3.827,0 0,-28.183 -3.827,0 0,12.179 z m 84.084,8.068 -10.584,-20.208 -4.031,-0.036 0,28.18 3.828,0 0,-20.199 10.584,20.199 4.033,0 0,-28.183 -3.83,0 0,20.247 z m -34.103,0 -10.578,-20.208 -4.037,-0.036 0,28.18 3.83,0 0,-20.201 10.576,20.201 4.039,0 0,-28.183 -3.83,0 0,20.247 z m -40.24,-16.291 18.445,0 0,-3.956 -18.445,0 0,3.956 z"
           id="path32"
           inkscape:connector-curvature="0"
           style="fill:#d2d3d1" />
      </g>
    </g>
  </g>
</svg>
