<?xml version="1.0" encoding="UTF-8" standalone="no"?>
<!-- Generator: Adobe Illustrator 15.1.0, SVG Export Plug-In . SVG Version: 6.00 Build 0)  -->

<svg
   xmlns:i="http://ns.adobe.com/AdobeIllustrator/10.0/"
   xmlns:dc="http://purl.org/dc/elements/1.1/"
   xmlns:cc="http://creativecommons.org/ns#"
   xmlns:rdf="http://www.w3.org/1999/02/22-rdf-syntax-ns#"
   xmlns:svg="http://www.w3.org/2000/svg"
   xmlns="http://www.w3.org/2000/svg"
   xmlns:sodipodi="http://sodipodi.sourceforge.net/DTD/sodipodi-0.dtd"
   xmlns:inkscape="http://www.inkscape.org/namespaces/inkscape"
   version="1.1"
   id="resistance"
   x="0px"
   y="0px"
   width="720px"
   height="960px"
   viewBox="0 0 720 960"
   overflow="inherit"
   xml:space="preserve"
   inkscape:version="0.48.2 r9819"
   sodipodi:docname="resistance.svg"><defs
     id="defs27" /><sodipodi:namedview
     pagecolor="#ffffff"
     bordercolor="#666666"
     borderopacity="1"
     objecttolerance="10"
     gridtolerance="10"
     guidetolerance="10"
     inkscape:pageopacity="0"
     inkscape:pageshadow="2"
     inkscape:window-width="1600"
     inkscape:window-height="847"
     id="namedview25"
     showgrid="false"
     inkscape:zoom="0.69532167"
     inkscape:cx="20.398232"
     inkscape:cy="602.79045"
     inkscape:window-x="-8"
     inkscape:window-y="-8"
     inkscape:window-maximized="1"
     inkscape:current-layer="resistance" /><switch
     id="switch5"><g
       i:extraneous="self"
       id="g9"><g
         id="g11"><g
           id="g13"><polygon
             points="105,618.236 105,95.833 335.722,95.833 296.669,127.833 136.75,127.833 136.75,603.855 360,811.949       583.25,603.855 583.25,127.833 423.33,127.833 384.278,95.833 615.001,95.833 615.001,618.236 360,855.926     "
             id="polygon15" /><path
             fill="#83CDEF"
             d="M613.501,97.333v520.25L360,853.875L106.5,617.584V97.333h225.025l-35.391,29H135.25v478.174L360,814      l224.75-209.492V126.333H423.866l-35.391-29H613.501 M616.501,94.333h-3H388.476h-8.395l6.493,5.32l35.391,29l0.829,0.68h1.072      H581.75v473.87L360,809.898L138.25,603.203v-473.87h157.883h1.072l0.829-0.68l35.391-29l6.493-5.32h-8.395H106.5h-3v3v520.25      v1.305l0.955,0.89l253.5,236.291l2.045,1.907l2.046-1.907l253.501-236.291l0.954-0.89v-1.305V97.333V94.333L616.501,94.333z"
             id="path17" /></g><g
           id="g19"><path
             d="M332.25,729.293V668.5h-24.895v37.588l-88.302-82.308V523.25H304V568h-36v25.5h64.25V427h-25v-31.5h25v-19.667H307.5      v-13.63l-137.334-103.79V165.5h143.883L360,129.256l45.951,36.244h143.883v92.913L412.5,362.203v13.63h-24.75V395.5h25V427h-25      v302.293L360,755.159L332.25,729.293z M313.066,314.359l46.935-13.251l46.934,13.251l101.143-76.439V207.5H406.556L360,256.318      L313.445,207.5H211.923v30.42L313.066,314.359z M360,217.702l28.777-30.176L360,164.827l-28.777,22.698L360,217.702z"
             id="path21" /><path
             fill="#83CDEF"
             d="M360,131.167L405.431,167h142.903v90.667L411,361.457v12.877h-24.75V397h25v28.5h-25v303.141      L360,753.108l-26.25-24.468V667h-27.895v35.64l-85.302-79.512V524.75H302.5v41.75h-36V595h67.25V425.5h-25V397h25v-22.667H309      v-12.877l-137.334-103.79V167h142.903L360,131.167 M360,219.875l31-32.507l-31-24.452l-31,24.452L360,219.875 M360,254.145      L314.087,206H210.423v32.667l102.333,77.338l47.245-13.338l47.243,13.338l102.333-77.338V206H405.913L360,254.145 M360,127.346      l-1.858,1.465L313.528,164H171.666h-3v3v90.667v1.493l1.191,0.9L306,362.95v11.384v3h3h21.75V394h-22h-3v3v28.5v3h3h22V592      H269.5v-22.5h33h3v-3v-41.75v-3h-3h-81.947h-3v3v98.378v1.305l0.955,0.89l85.302,79.512l5.045,4.703v-6.897V670h21.895v58.641      v1.305l0.955,0.89l26.25,24.468L360,757.21l2.046-1.907l26.25-24.468l0.954-0.89v-1.305V428.5h22h3v-3V397v-3h-3h-22v-16.667      H411h3v-3V362.95l136.143-102.89l1.191-0.9v-1.493V167v-3h-3H406.472l-44.614-35.189L360,127.346L360,127.346z M333.445,187.683      L360,166.737l26.555,20.945L360,215.528L333.445,187.683L333.445,187.683z M407.197,209h99.38v28.174l-99.952,75.539      l-45.809-12.933l-0.815-0.23l-0.815,0.23l-45.81,12.934l-99.953-75.54V209h99.379l45.026,47.215l2.171,2.277l2.171-2.277      L407.197,209L407.197,209z"
             id="path23" /></g></g></g></switch><metadata
     id="metadata3006"><rdf:RDF><cc:Work
         rdf:about=""><dc:title></dc:title><cc:license
           rdf:resource="http://creativecommons.org/licenses/by-nc-sa/3.0/" /></cc:Work><cc:License
         rdf:about="http://creativecommons.org/licenses/by-nc-sa/3.0/"><cc:permits
           rdf:resource="http://creativecommons.org/ns#Reproduction" /><cc:permits
           rdf:resource="http://creativecommons.org/ns#Distribution" /><cc:requires
           rdf:resource="http://creativecommons.org/ns#Notice" /><cc:requires
           rdf:resource="http://creativecommons.org/ns#Attribution" /><cc:prohibits
           rdf:resource="http://creativecommons.org/ns#CommercialUse" /><cc:permits
           rdf:resource="http://creativecommons.org/ns#DerivativeWorks" /><cc:requires
           rdf:resource="http://creativecommons.org/ns#ShareAlike" /></cc:License></rdf:RDF></metadata></svg>