<?xml version="1.0" encoding="UTF-8" standalone="no"?>
<!-- Created with Inkscape (http://www.inkscape.org/) -->

<svg
   xmlns:dc="http://purl.org/dc/elements/1.1/"
   xmlns:cc="http://creativecommons.org/ns#"
   xmlns:rdf="http://www.w3.org/1999/02/22-rdf-syntax-ns#"
   xmlns:svg="http://www.w3.org/2000/svg"
   xmlns="http://www.w3.org/2000/svg"
   xmlns:xlink="http://www.w3.org/1999/xlink"
   xmlns:sodipodi="http://sodipodi.sourceforge.net/DTD/sodipodi-0.dtd"
   xmlns:inkscape="http://www.inkscape.org/namespaces/inkscape"
   width="507.55499"
   height="507.55112"
   id="svg4219"
   version="1.1"
   inkscape:version="0.91pre2 r"
   viewBox="0 0 507.55499 507.55113"
   sodipodi:docname="phoenix.svg">
  <defs
     id="defs4221">
    <filter
       inkscape:collect="always"
       id="filter3932">
      <feGaussianBlur
         inkscape:collect="always"
         stdDeviation="9.9204449"
         id="feGaussianBlur3934" />
    </filter>
    <linearGradient
       inkscape:collect="always"
       xlink:href="#linearGradient3916"
       id="linearGradient3995"
       gradientUnits="userSpaceOnUse"
       x1="416.43494"
       y1="816.50726"
       x2="419.93356"
       y2="559.36444"
       gradientTransform="translate(-202.03051,-457.5991)" />
    <linearGradient
       id="linearGradient3916">
      <stop
         style="stop-color:#50f2e1;stop-opacity:1;"
         offset="0"
         id="stop3918" />
      <stop
         style="stop-color:#0b9284;stop-opacity:1;"
         offset="1"
         id="stop3920" />
    </linearGradient>
    <linearGradient
       inkscape:collect="always"
       xlink:href="#linearGradient3989"
       id="linearGradient3987"
       x1="424.47684"
       y1="640.68121"
       x2="425.72662"
       y2="581.39551"
       gradientUnits="userSpaceOnUse"
       gradientTransform="translate(-202.03051,-457.5991)" />
    <linearGradient
       id="linearGradient3989">
      <stop
         id="stop3991"
         offset="0"
         style="stop-color:#f2de35;stop-opacity:1;" />
      <stop
         id="stop3993"
         offset="1"
         style="stop-color:#8b7c00;stop-opacity:1;" />
    </linearGradient>
  </defs>
  <sodipodi:namedview
     id="base"
     pagecolor="#ffffff"
     bordercolor="#666666"
     borderopacity="1.0"
     inkscape:pageopacity="0.0"
     inkscape:pageshadow="2"
     inkscape:zoom="0.7"
     inkscape:cx="26.301659"
     inkscape:cy="100.10239"
     inkscape:document-units="px"
     inkscape:current-layer="layer1"
     showgrid="false"
     fit-margin-top="0"
     fit-margin-left="0"
     fit-margin-right="0"
     fit-margin-bottom="0"
     inkscape:window-width="1920"
     inkscape:window-height="1054"
     inkscape:window-x="1920"
     inkscape:window-y="0"
     inkscape:window-maximized="1" />
  <metadata
     id="metadata4224">
    <rdf:RDF>
      <cc:Work
         rdf:about="">
        <dc:format>image/svg+xml</dc:format>
        <dc:type
           rdf:resource="http://purl.org/dc/dcmitype/StillImage" />
        <dc:title></dc:title>
      </cc:Work>
    </rdf:RDF>
  </metadata>
  <g
     inkscape:label="Layer 1"
     inkscape:groupmode="layer"
     id="layer1"
     transform="translate(-64.793935,-96.443773)">
    <g
       transform="translate(102.77482,127.20039)"
       id="g4867">
      <circle
         r="193"
         cy="610.36218"
         cx="611"
         inkscape:export-ydpi="299"
         inkscape:export-xdpi="299"
         inkscape:export-filename="helios-badge.png"
         transform="translate(-395.14364,-390.93704)"
         id="path4493"
         style="fill:#000000;stroke:#000000;stroke-width:10;stroke-linecap:round;stroke-linejoin:miter;stroke-miterlimit:4;stroke-dasharray:none;stroke-dashoffset:0;stroke-opacity:1"
         d="m 804,610.36218 a 193,193 0 0 1 -193,193 193,193 0 0 1 -193,-193 193,193 0 0 1 193,-193 193,193 0 0 1 193,193 z" />
      <rect
         inkscape:export-ydpi="120"
         inkscape:export-xdpi="120"
         inkscape:export-filename="phoenix-badge-square.png"
         y="20.400774"
         x="15.856347"
         height="397"
         width="398"
         id="rect3024"
         style="fill:#000000;fill-opacity:1;stroke:#ff0000;stroke-width:0.01;stroke-linecap:butt;stroke-linejoin:miter;stroke-miterlimit:4;stroke-dasharray:none;stroke-dashoffset:0;stroke-opacity:1" />
      <path
         sodipodi:type="star"
         style="fill:#003130;fill-opacity:1;stroke:none"
         id="path3887"
         sodipodi:sides="6"
         sodipodi:cx="468.10468"
         sodipodi:cy="497.28336"
         sodipodi:r1="151.89577"
         sodipodi:r2="35.47345"
         sodipodi:arg1="0.78539816"
         sodipodi:arg2="1.3089969"
         inkscape:flatsided="true"
         inkscape:rounded="0"
         inkscape:randomized="0"
         d="M 575.5112,604.68988 428.79116,644.0034 321.38463,536.59687 360.69815,389.87683 507.41819,350.56331 614.82472,457.96984 Z"
         transform="matrix(1.1367908,-0.30459985,0.30460219,1.1367821,-467.81408,-199.69927)"
         inkscape:export-filename="helios-badge.png"
         inkscape:export-xdpi="299"
         inkscape:export-ydpi="299" />
      <path
         sodipodi:type="star"
         style="fill:none;stroke:#000000;stroke-width:5.9478898;stroke-linecap:round;stroke-linejoin:miter;stroke-miterlimit:4;stroke-dasharray:none;stroke-dashoffset:0;stroke-opacity:1;filter:url(#filter3932)"
         id="path3113"
         sodipodi:sides="6"
         sodipodi:cx="468.10468"
         sodipodi:cy="497.28336"
         sodipodi:r1="151.89577"
         sodipodi:r2="35.47345"
         sodipodi:arg1="0.78539816"
         sodipodi:arg2="1.3089969"
         inkscape:flatsided="true"
         inkscape:rounded="0"
         inkscape:randomized="0"
         d="M 575.5112,604.68988 428.79116,644.0034 321.38463,536.59687 360.69815,389.87683 507.41819,350.56331 614.82472,457.96984 Z"
         transform="matrix(1.1367908,-0.30459985,0.30460219,1.1367821,-467.81408,-199.69927)"
         inkscape:export-filename="helios-badge.png"
         inkscape:export-xdpi="299"
         inkscape:export-ydpi="299" />
      <path
         inkscape:export-ydpi="299"
         inkscape:export-xdpi="299"
         inkscape:export-filename="helios-badge.png"
         transform="matrix(1.1367908,-0.30459985,0.30460219,1.1367821,-467.81408,-199.69927)"
         d="M 575.5112,604.68988 428.79116,644.0034 321.38463,536.59687 360.69815,389.87683 507.41819,350.56331 614.82472,457.96984 Z"
         inkscape:randomized="0"
         inkscape:rounded="0"
         inkscape:flatsided="true"
         sodipodi:arg2="1.3089969"
         sodipodi:arg1="0.78539816"
         sodipodi:r2="35.47345"
         sodipodi:r1="151.89577"
         sodipodi:cy="497.28336"
         sodipodi:cx="468.10468"
         sodipodi:sides="6"
         id="path4280"
         style="fill:none;stroke:#90efef;stroke-width:5.9478898;stroke-linecap:round;stroke-linejoin:miter;stroke-miterlimit:4;stroke-dasharray:none;stroke-dashoffset:0;stroke-opacity:1"
         sodipodi:type="star" />
      <path
         inkscape:connector-curvature="0"
         id="path2996"
         d="m 215.95923,359.98128 c -0.19759,-0.54158 -1.44267,-11.17674 -2.76682,-23.63364 -2.31765,-21.80289 -3.05941,-26.51722 -3.82185,-24.29016 -0.18542,0.5416 -1.56869,8.81338 -3.07394,18.38173 -3.05144,19.39705 -3.235,20.35121 -3.91497,20.35121 -0.26398,0 -0.84764,-0.8124 -1.29704,-1.80534 -1.44527,-3.19333 -7.78073,-12.20424 -11.11357,-15.80681 l -3.23573,-3.4976 4.10714,-8.64749 c 2.25893,-4.7561 4.74729,-10.52284 5.52972,-12.81495 1.63219,-4.78144 2.48761,-9.96805 1.63318,-9.90234 -0.31988,0.0246 -3.33455,3.56965 -6.69926,7.87789 -3.36472,4.30824 -6.32312,7.83317 -6.57421,7.83317 -0.2511,0 -1.08339,-2.14181 -1.84955,-4.75956 -1.07432,-3.67064 -1.22239,-5.00527 -0.6472,-5.83351 0.4102,-0.59066 3.18991,-4.28343 6.17713,-8.20613 4.9309,-6.4751 11.9657,-18.77253 11.9657,-20.91709 0,-1.40293 -6.21435,-6.57786 -11.6725,-9.72014 -11.46255,-6.59903 -26.51039,-13.51187 -31.46631,-14.45533 -2.52588,-0.48085 -3.08509,0.21065 -2.53625,3.13624 0.50183,2.67499 7.06306,9.30541 12.84804,12.98353 2.16777,1.37829 3.94143,2.62375 3.94143,2.76771 0,0.40512 -8.92718,-2.21033 -14.77104,-4.32756 -17.50412,-6.34175 -27.47874,-11.97837 -40.64621,-22.96904 -6.31536,-5.27134 -7.60151,-6.94878 -4.786,-6.24214 10.30305,2.58589 36.38987,4.80513 35.80343,3.04584 -0.329,-0.98701 -3.0933,-1.91483 -13.67664,-4.59046 -14.00285,-3.54016 -29.98476,-10.1062 -33.934349,-13.94169 -3.3386,-3.24212 -6.31215,-8.66424 -7.65769,-13.9634 -1.64375,-6.47359 -3.12848,-23.30542 -2.05575,-23.30542 0.18539,0 3.33561,3.1132 7.0005,6.91821 10.197569,10.58747 16.827109,15.13367 24.328639,16.68329 7.15177,1.47738 6.59292,0.41635 -5.07836,-9.6418 -13.19788,-11.37376 -22.623789,-24.29617 -22.642499,-31.04165 -0.0148,-5.34166 4.83436,-18.28254 9.262509,-24.71865 2.44475,-3.55333 6.42063,-8.09268 7.08812,-8.09268 0.24667,0 0.81064,3.25686 1.25327,7.23746 0.88159,7.9283 2.69393,13.71145 6.10398,19.47752 2.76323,4.6724 7.33256,9.392 9.09295,9.392 0.73165,0 1.33027,-0.11437 1.33027,-0.25402 0,-0.13973 -1.0329,-4.28414 -2.29534,-9.20981 -4.12925,-16.11123 -4.41071,-23.89617 -1.22107,-33.77235 1.24214,-3.84605 2.96062,-5.33841 12.75464,-11.07633 8.18791,-4.79696 13.52971,-7.15179 24.39735,-10.7551 12.64622,-4.192993 14.13674,-4.161423 7.39509,0.15666 -7.38062,4.72734 -14.22023,10.63672 -18.45796,15.94755 -6.91229,8.66268 -9.00186,14.84713 -9.00186,26.64272 0,8.67863 1.09711,13.84341 4.35031,20.47979 l 2.15485,4.39576 -2.11982,4.20483 c -3.98577,7.90613 -5.15093,12.51938 -5.09091,20.15642 0.11195,14.23258 5.5064,24.03505 18.21948,33.10692 7.01061,5.00266 18.80853,10.29235 18.80853,8.43294 0,-0.91367 -3.90232,-4.35134 -8.20614,-7.22906 -7.57696,-5.06627 -18.77585,-18.13771 -21.04185,-24.56026 -1.09701,-3.10924 -1.24986,-10.27306 -0.25006,-11.72001 0.59178,-0.85646 0.78289,-0.82694 1.46705,0.22649 0.43265,0.66617 2.22295,3.42336 3.97846,6.12708 6.41172,9.87496 14.69967,17.19397 25.90671,22.87795 4.97958,2.52555 7.18369,4.17317 11.81683,8.83334 4.15509,4.17935 6.55858,6.05257 8.8868,6.92616 l 3.19132,1.19745 1.24555,-1.59416 c 0.68506,-0.87679 2.18577,-3.47287 3.33494,-5.76906 1.96953,-3.93538 2.08283,-4.55436 1.97484,-10.78914 -0.12819,-7.40081 -0.89137,-10.50206 -2.93713,-11.93495 -0.76299,-0.53442 -1.25736,-1.09933 -1.09862,-1.25536 0.15876,-0.15601 5.24235,-0.11895 11.29685,0.0824 9.10141,0.30268 11.23316,0.56119 12.30678,1.49235 0.96769,0.83925 2.16044,1.06236 4.68095,0.8756 3.82905,-0.28376 6.46983,0.96428 6.46983,3.05765 0,1.28005 -0.40088,1.45685 -5.05291,2.22846 -1.15429,0.19145 -3.17988,0.79984 -4.50134,1.35198 l -2.40265,1.00389 0.45009,6.07679 c 0.55296,7.46598 1.33849,10.67949 3.0221,12.36311 1.6952,1.69519 2.32577,1.31854 8.81295,-5.26417 2.88856,-2.93109 6.87673,-6.24609 8.86262,-7.36666 14.18535,-8.00435 25.19021,-17.99902 31.14433,-28.2854 2.57548,-4.44943 3.25244,-4.03777 2.69902,1.64123 -1.19297,12.24189 -7.80651,21.45861 -24.72029,34.45046 -3.57339,2.74481 -6.49709,5.23746 -6.49709,5.5392 0,1.12967 2.18522,0.46268 8.05502,-2.4586 9.08689,-4.52238 14.65593,-8.44471 20.83056,-14.67117 8.35366,-8.4238 11.09746,-15.12196 10.21941,-24.94786 -0.66929,-7.48986 -2.10661,-12.97384 -4.90294,-18.70666 l -2.5246,-5.17587 1.86706,-5.11598 c 2.63864,-7.22987 4.53195,-17.21517 4.53195,-23.90091 0,-4.58745 -0.38332,-6.85266 -1.95214,-11.53514 -2.43322,-7.26278 -4.22229,-10.11762 -9.67333,-15.43616 -3.82547,-3.7325 -13.96227,-10.9854 -19.8989,-14.23769 -2.99841,-1.64264 -2.14794,-1.959723 2.03476,-0.75862 18.58004,5.33544 29.1334,9.67904 38.92044,16.01914 5.75629,3.72898 6.32476,4.28913 7.22861,7.12311 3.90094,12.23138 3.49817,24.94762 -1.23046,38.85037 -1.58977,4.67399 -1.54545,5.25618 0.39961,5.25618 2.0676,0 4.40649,-2.81485 7.40901,-8.91678 4.01891,-8.16741 5.65969,-13.3187 6.51718,-20.46119 0.40105,-3.33988 0.88646,-6.06726 1.07881,-6.06083 0.59052,0.0197 8.7549,11.54514 11.02557,15.56428 2.3635,4.1836 3.81605,8.54569 4.7438,14.24621 0.72103,4.42978 -0.44327,8.22872 -4.84345,15.80392 -3.19534,5.50107 -14.76992,17.2847 -22.24703,22.64892 -3.79963,2.72589 -5.03746,3.99011 -5.0513,5.15898 -0.0165,1.36308 0.19753,1.49431 1.78697,1.09723 8.61769,-2.15297 18.87851,-8.54048 28.04397,-17.45778 3.68784,-3.58801 6.89991,-6.52368 7.13789,-6.52368 0.83046,0 0.40222,14.80744 -0.55953,19.34763 -1.29046,6.09223 -4.69279,13.05205 -8.36849,17.11867 -4.45436,4.92809 -8.96325,6.79101 -28.42715,11.74493 -20.34636,5.17855 -22.93747,5.92824 -22.93747,6.63648 0,0.29825 1.03398,0.81671 2.29773,1.1521 3.8209,1.01405 28.86504,-1.27053 34.88978,-3.18272 2.6655,-0.84598 0.91299,1.10755 -5.18358,5.77819 -15.10645,11.57319 -28.94114,19.12989 -44.81402,24.47805 -4.80158,1.61782 -8.8559,2.81573 -9.00962,2.66201 -0.15373,-0.15372 2.03403,-1.82619 4.86169,-3.71661 13.47673,-9.0098 16.90006,-14.2409 9.05375,-13.83475 -6.90333,0.35734 -18.27869,5.40609 -33.55798,14.89412 -9.06878,5.63145 -9.20752,5.76043 -8.24295,7.66237 0.41743,0.82306 1.77119,3.75656 3.00837,6.51888 3.20405,7.15389 7.08444,13.58099 11.55413,19.13714 l 3.87316,4.81462 -1.03276,4.2229 c -0.568,2.3226 -1.25015,4.46655 -1.51588,4.76435 -0.26574,0.2978 -3.34084,-3.17339 -6.83358,-7.71377 -3.49274,-4.54036 -6.52679,-8.25521 -6.74234,-8.25521 -0.21555,0 -0.22395,2.00336 -0.0187,4.4519 0.42717,5.09511 2.82948,11.60714 8.00983,21.71243 l 3.48482,6.79785 -4.68986,6.05573 c -2.57943,3.33064 -5.87155,8.02569 -7.31582,10.43346 -1.44429,2.40777 -2.84753,4.37845 -3.11835,4.37932 -0.27079,6.4e-4 -0.49356,-0.95857 -0.49502,-2.13204 -0.013,-10.37338 -2.37303,-31.26478 -4.03509,-35.71895 -1.40051,-3.75324 -2.9574,-5.57668 -3.47736,-4.07268 -0.17008,0.49201 -1.36889,11.38198 -2.66399,24.19996 -2.3353,23.11323 -3.06953,28.21166 -3.78171,26.25964 z"
         style="fill:url(#linearGradient3995);fill-opacity:1" />
      <circle
         r="1.0714285"
         cy="529.14789"
         cx="416.78571"
         transform="matrix(7.6666669,0,0,7.6666669,-2979.6352,-3988.1343)"
         id="path3889"
         style="fill:#90efef;fill-opacity:1;stroke:none"
         d="m 417.85713,529.14789 a 1.0714285,1.0714285 0 0 1 -1.07142,1.07143 1.0714285,1.0714285 0 0 1 -1.07143,-1.07143 1.0714285,1.0714285 0 0 1 1.07143,-1.07143 1.0714285,1.0714285 0 0 1 1.07142,1.07143 z" />
      <circle
         r="1.0714285"
         cy="529.14789"
         cx="416.78571"
         style="fill:#90efef;fill-opacity:1;stroke:none"
         id="path3891"
         transform="matrix(7.6666669,0,0,7.6666669,-2846.0425,-3911.3627)"
         d="m 417.85713,529.14789 a 1.0714285,1.0714285 0 0 1 -1.07142,1.07143 1.0714285,1.0714285 0 0 1 -1.07143,-1.07143 1.0714285,1.0714285 0 0 1 1.07143,-1.07143 1.0714285,1.0714285 0 0 1 1.07142,1.07143 z" />
      <circle
         r="1.0714285"
         cy="529.14789"
         cx="416.78571"
         transform="matrix(7.6666669,0,0,7.6666669,-2846.0425,-3757.8195)"
         id="path3897"
         style="fill:#90efef;fill-opacity:1;stroke:none"
         d="m 417.85713,529.14789 a 1.0714285,1.0714285 0 0 1 -1.07142,1.07143 1.0714285,1.0714285 0 0 1 -1.07143,-1.07143 1.0714285,1.0714285 0 0 1 1.07143,-1.07143 1.0714285,1.0714285 0 0 1 1.07142,1.07143 z" />
      <circle
         r="1.0714285"
         cy="529.14789"
         cx="416.78571"
         style="fill:#90efef;fill-opacity:1;stroke:none"
         id="path3899"
         transform="matrix(-7.6666669,0,0,-7.6666669,3411.0792,4433.0584)"
         d="m 417.85713,529.14789 a 1.0714285,1.0714285 0 0 1 -1.07142,1.07143 1.0714285,1.0714285 0 0 1 -1.07143,-1.07143 1.0714285,1.0714285 0 0 1 1.07143,-1.07143 1.0714285,1.0714285 0 0 1 1.07142,1.07143 z" />
      <circle
         r="1.0714285"
         cy="529.14789"
         cx="416.78571"
         transform="matrix(-7.6666669,0,0,-7.6666669,3277.4865,4356.2868)"
         id="path3901"
         style="fill:#90efef;fill-opacity:1;stroke:none"
         d="m 417.85713,529.14789 a 1.0714285,1.0714285 0 0 1 -1.07142,1.07143 1.0714285,1.0714285 0 0 1 -1.07143,-1.07143 1.0714285,1.0714285 0 0 1 1.07143,-1.07143 1.0714285,1.0714285 0 0 1 1.07142,1.07143 z" />
      <circle
         r="1.0714285"
         cy="529.14789"
         cx="416.78571"
         style="fill:#90efef;fill-opacity:1;stroke:none"
         id="path3903"
         transform="matrix(-7.6666669,0,0,-7.6666669,3277.4865,4202.7436)"
         d="m 417.85713,529.14789 a 1.0714285,1.0714285 0 0 1 -1.07142,1.07143 1.0714285,1.0714285 0 0 1 -1.07143,-1.07143 1.0714285,1.0714285 0 0 1 1.07143,-1.07143 1.0714285,1.0714285 0 0 1 1.07142,1.07143 z" />
      <path
         sodipodi:nodetypes="ccccsscssccssccccssccsccsssscscsccccccccscccccsssccccscscssccscscccccc"
         inkscape:connector-curvature="0"
         id="path3966"
         d="m 165.54985,123.03483 c -0.67748,0.0344 -1.3672,0.17851 -2.03125,0.40625 -1.92142,0.65899 -3.41189,2.28273 -3.78125,4.28125 -0.15773,0.85097 -0.27907,1.39105 0.125,2.5 0.15082,0.41396 0.23441,0.49364 0.375,0.75 0.14059,0.25636 0.32479,0.58481 0.53125,0.9375 0.41292,0.70537 0.93919,1.56987 1.5,2.46875 1.73359,2.77851 2.70112,4.49613 3.21875,5.75 0.51763,1.25387 0.65231,2.06854 0.71875,3.5625 0.38114,8.57134 2.37581,15.48357 6.28125,21.46875 1.09844,1.6831 1.65481,2.37356 3.8125,4.53125 1.65995,1.66093 2.98357,2.8459 4.1875,3.75 12.33102,9.26022 26.33044,11.89452 41.71875,7.875 10.83327,-2.82971 22.72151,-9.76802 32.71875,-18.875 l 0.0625,0 0.5625,-0.53125 c 1.29183,-1.19765 2.55992,-2.35906 2.84375,-2.625 1.48017,-1.38712 5.9827,-6.39822 7.59375,-8.375 1.53623,-1.88494 2.55831,-3.29522 3.25,-4.75 0.69169,-1.45478 0.97513,-2.90872 1.0625,-4.53125 0.0502,-0.93178 0.34398,-1.91529 0.25,-1.71875 0.50988,-1.06611 0.85024,-1.90888 0.96875,-2.90625 0.11851,-0.99737 -0.079,-1.98246 -0.40625,-2.84375 -0.3346,-0.88058 -0.91992,-1.70115 -1.8125,-2.59375 -1.5467,-1.55154 -3.51091,-2.33895 -5.71875,-2.3125 -5.24604,0.0628 -10.97963,2.55123 -21.65625,8.84375 -11.71351,6.90357 -17.33855,9.7735 -23.46875,11.96875 -8.3127,2.97682 -16.99182,3.80226 -23.65625,2.40625 -7.50642,-1.57237 -13.17376,-5.75128 -16.9375,-12.4375 -0.91998,-1.63439 -1.56113,-3.08415 -3.21875,-7.53125 -1.90661,-5.11509 -2.35363,-6.49676 -3.5,-7.625 -1.01467,-1.00445 -2.27764,-1.45326 -3.59375,-1.6875 -0.65805,-0.11712 -1.32252,-0.19067 -2,-0.15625 z m 96.09375,11.875 c 0.0151,0.0227 0.0161,0.0391 0.0312,0.0625 0.13579,0.21013 0.16934,0.37683 0.28125,0.59375 -0.19555,0.0979 -0.34414,0.0316 -0.5625,0.25 -1.75225,1.75224 -10.43642,8.92731 -14.375,11.8125 -0.95845,0.70209 -2.05832,1.5411 -2.46875,1.84375 -0.25905,0.19099 -1.789,1.21887 -3.15625,2.125 -16.76504,11.11115 -31.19602,15.34669 -42.4375,13.03125 -3.79422,-0.78152 -8.23293,-2.74468 -10.8125,-4.71875 -3.67028,-2.80866 -5.45708,-4.67946 -8.21875,-8.5625 -0.1674,-0.23538 -0.28685,-0.50121 -0.4375,-0.71875 2.96971,2.7266 5.90253,4.52404 9.71875,5.875 3.93993,1.39483 7.34285,1.9817 11.875,2.0625 8.79262,0.15665 17.95508,-2.19204 27.90625,-7.0625 3.38539,-1.6569 7.25294,-3.77893 13.53125,-7.4375 11.20586,-6.53 14.7635,-8.24124 18.5,-9.03125 0.23411,-0.0495 0.4204,-0.0917 0.625,-0.125 z m 3.375,5.09375 c -0.0272,0.31677 -0.10828,0.62399 -0.125,0.96875 -0.0727,1.49327 -0.1727,2.12191 -0.65625,3.0625 -0.48355,0.94059 -1.51181,2.27427 -3.40625,4.53125 -0.79086,0.94224 -2.71398,3.03046 -4.5625,4.96875 -1.84852,1.93829 -3.75116,3.87365 -4.1875,4.25 -0.35568,0.30685 -1.50468,1.2965 -2.5625,2.21875 -8.19143,7.14177 -17.60643,12.56904 -26.53125,15.375 -5.16047,1.62247 -9.61996,2.31635 -14.625,2.3125 -10.07585,-0.007 -19.83112,-3.94613 -27.5625,-11.1875 -3.63306,-3.40296 -6.05142,-7.38339 -7.53125,-12.5 -0.50061,-1.73086 -0.81482,-3.1379 -1.0625,-4.71875 0.21826,0.37719 0.38265,0.69105 0.625,1.09375 1.22748,2.03961 2.69285,4.29376 3.84375,5.8125 1.76229,2.32566 5.25494,5.89387 7.375,7.46875 6.42706,4.77407 13.30048,7.03963 21.3125,7.03125 16.19119,-0.0162 35.9978,-10.05842 56.25,-27.8125 1.14972,-1.00793 2.44708,-2.11331 2.34375,-2.03125 z"
         style="color:#000000;font-style:normal;font-variant:normal;font-weight:normal;font-stretch:normal;font-size:medium;line-height:normal;font-family:Sans;-inkscape-font-specification:Sans;text-indent:0;text-align:start;text-decoration:none;text-decoration-line:none;letter-spacing:normal;word-spacing:normal;text-transform:none;direction:ltr;block-progression:tb;writing-mode:lr-tb;baseline-shift:baseline;text-anchor:start;display:inline;overflow:visible;visibility:visible;fill:url(#linearGradient3987);fill-opacity:1;fill-rule:nonzero;stroke:none;stroke-width:4;marker:none;enable-background:accumulate" />
    </g>
  </g>
</svg>
